G04 #@! TF.FileFunction,Legend,Bot*
%FSLAX46Y46*%
G04 Gerber Fmt 4.6, Leading zero omitted, Abs format (unit mm)*
G04 Created by KiCad (PCBNEW 4.0.7) date 10/02/18 15:19:20*
%MOMM*%
%LPD*%
G01*
G04 APERTURE LIST*
%ADD10C,0.100000*%
%ADD11C,0.200000*%
%ADD12C,0.300000*%
%ADD13C,0.120000*%
%ADD14C,0.150000*%
G04 APERTURE END LIST*
D10*
D11*
X156019500Y-74993500D02*
X156083000Y-74993500D01*
X155575000Y-74549000D02*
X156019500Y-74993500D01*
X153035000Y-74549000D02*
X155575000Y-74549000D01*
D12*
X156547429Y-79319143D02*
X158047429Y-79319143D01*
X156976000Y-78819143D01*
X158047429Y-78319143D01*
X156547429Y-78319143D01*
X158047429Y-77319143D02*
X158047429Y-77033429D01*
X157976000Y-76890571D01*
X157833143Y-76747714D01*
X157547429Y-76676286D01*
X157047429Y-76676286D01*
X156761714Y-76747714D01*
X156618857Y-76890571D01*
X156547429Y-77033429D01*
X156547429Y-77319143D01*
X156618857Y-77462000D01*
X156761714Y-77604857D01*
X157047429Y-77676286D01*
X157547429Y-77676286D01*
X157833143Y-77604857D01*
X157976000Y-77462000D01*
X158047429Y-77319143D01*
X156618857Y-76104857D02*
X156547429Y-75890571D01*
X156547429Y-75533428D01*
X156618857Y-75390571D01*
X156690286Y-75319142D01*
X156833143Y-75247714D01*
X156976000Y-75247714D01*
X157118857Y-75319142D01*
X157190286Y-75390571D01*
X157261714Y-75533428D01*
X157333143Y-75819142D01*
X157404571Y-75962000D01*
X157476000Y-76033428D01*
X157618857Y-76104857D01*
X157761714Y-76104857D01*
X157904571Y-76033428D01*
X157976000Y-75962000D01*
X158047429Y-75819142D01*
X158047429Y-75462000D01*
X157976000Y-75247714D01*
X156547429Y-74604857D02*
X158047429Y-74604857D01*
D11*
X150876000Y-79946500D02*
X150876000Y-80391000D01*
X149987000Y-79057500D02*
X150876000Y-79946500D01*
D12*
X150721286Y-89669428D02*
X150649857Y-89740857D01*
X150578429Y-89955143D01*
X150578429Y-90098000D01*
X150649857Y-90312285D01*
X150792714Y-90455143D01*
X150935571Y-90526571D01*
X151221286Y-90598000D01*
X151435571Y-90598000D01*
X151721286Y-90526571D01*
X151864143Y-90455143D01*
X152007000Y-90312285D01*
X152078429Y-90098000D01*
X152078429Y-89955143D01*
X152007000Y-89740857D01*
X151935571Y-89669428D01*
X152078429Y-89169428D02*
X150578429Y-88812285D01*
X151649857Y-88526571D01*
X150578429Y-88240857D01*
X152078429Y-87883714D01*
X150721286Y-86455142D02*
X150649857Y-86526571D01*
X150578429Y-86740857D01*
X150578429Y-86883714D01*
X150649857Y-87097999D01*
X150792714Y-87240857D01*
X150935571Y-87312285D01*
X151221286Y-87383714D01*
X151435571Y-87383714D01*
X151721286Y-87312285D01*
X151864143Y-87240857D01*
X152007000Y-87097999D01*
X152078429Y-86883714D01*
X152078429Y-86740857D01*
X152007000Y-86526571D01*
X151935571Y-86455142D01*
X150721286Y-84955142D02*
X150649857Y-85026571D01*
X150578429Y-85240857D01*
X150578429Y-85383714D01*
X150649857Y-85597999D01*
X150792714Y-85740857D01*
X150935571Y-85812285D01*
X151221286Y-85883714D01*
X151435571Y-85883714D01*
X151721286Y-85812285D01*
X151864143Y-85740857D01*
X152007000Y-85597999D01*
X152078429Y-85383714D01*
X152078429Y-85240857D01*
X152007000Y-85026571D01*
X151935571Y-84955142D01*
X152078429Y-84455142D02*
X150578429Y-84097999D01*
X151649857Y-83812285D01*
X150578429Y-83526571D01*
X152078429Y-83169428D01*
X150435571Y-82955142D02*
X150435571Y-81812285D01*
X150578429Y-80597999D02*
X151292714Y-81097999D01*
X150578429Y-81455142D02*
X152078429Y-81455142D01*
X152078429Y-80883714D01*
X152007000Y-80740856D01*
X151935571Y-80669428D01*
X151792714Y-80597999D01*
X151578429Y-80597999D01*
X151435571Y-80669428D01*
X151364143Y-80740856D01*
X151292714Y-80883714D01*
X151292714Y-81455142D01*
D11*
X153606500Y-77025500D02*
X154051000Y-77470000D01*
D12*
X154261429Y-84645071D02*
X155761429Y-84645071D01*
X155761429Y-84073643D01*
X155690000Y-83930785D01*
X155618571Y-83859357D01*
X155475714Y-83787928D01*
X155261429Y-83787928D01*
X155118571Y-83859357D01*
X155047143Y-83930785D01*
X154975714Y-84073643D01*
X154975714Y-84645071D01*
X155761429Y-83287928D02*
X154261429Y-82930785D01*
X155332857Y-82645071D01*
X154261429Y-82359357D01*
X155761429Y-82002214D01*
X154261429Y-81430785D02*
X155761429Y-81430785D01*
X154690000Y-80930785D01*
X155761429Y-80430785D01*
X154261429Y-80430785D01*
X154118571Y-80073642D02*
X154118571Y-78930785D01*
X154261429Y-77716499D02*
X154975714Y-78216499D01*
X154261429Y-78573642D02*
X155761429Y-78573642D01*
X155761429Y-78002214D01*
X155690000Y-77859356D01*
X155618571Y-77787928D01*
X155475714Y-77716499D01*
X155261429Y-77716499D01*
X155118571Y-77787928D01*
X155047143Y-77859356D01*
X154975714Y-78002214D01*
X154975714Y-78573642D01*
D13*
X158500000Y-62320000D02*
X157500000Y-62320000D01*
X157500000Y-63680000D02*
X158500000Y-63680000D01*
X151500000Y-57320000D02*
X150500000Y-57320000D01*
X150500000Y-58680000D02*
X151500000Y-58680000D01*
X138500000Y-58680000D02*
X139500000Y-58680000D01*
X139500000Y-57320000D02*
X138500000Y-57320000D01*
X132500000Y-62320000D02*
X131500000Y-62320000D01*
X131500000Y-63680000D02*
X132500000Y-63680000D01*
D14*
X149333333Y-114361905D02*
X149333333Y-113561905D01*
X149028571Y-113561905D01*
X148952380Y-113600000D01*
X148914285Y-113638095D01*
X148876190Y-113714286D01*
X148876190Y-113828571D01*
X148914285Y-113904762D01*
X148952380Y-113942857D01*
X149028571Y-113980952D01*
X149333333Y-113980952D01*
X148571428Y-114133333D02*
X148190476Y-114133333D01*
X148647619Y-114361905D02*
X148380952Y-113561905D01*
X148114285Y-114361905D01*
X147847619Y-114361905D02*
X147847619Y-113561905D01*
X147657143Y-113561905D01*
X147542857Y-113600000D01*
X147466666Y-113676190D01*
X147428571Y-113752381D01*
X147390476Y-113904762D01*
X147390476Y-114019048D01*
X147428571Y-114171429D01*
X147466666Y-114247619D01*
X147542857Y-114323810D01*
X147657143Y-114361905D01*
X147847619Y-114361905D01*
X147085714Y-113638095D02*
X147047619Y-113600000D01*
X146971428Y-113561905D01*
X146780952Y-113561905D01*
X146704762Y-113600000D01*
X146666666Y-113638095D01*
X146628571Y-113714286D01*
X146628571Y-113790476D01*
X146666666Y-113904762D01*
X147123809Y-114361905D01*
X146628571Y-114361905D01*
X158333333Y-114361905D02*
X158333333Y-113561905D01*
X158028571Y-113561905D01*
X157952380Y-113600000D01*
X157914285Y-113638095D01*
X157876190Y-113714286D01*
X157876190Y-113828571D01*
X157914285Y-113904762D01*
X157952380Y-113942857D01*
X158028571Y-113980952D01*
X158333333Y-113980952D01*
X157571428Y-114133333D02*
X157190476Y-114133333D01*
X157647619Y-114361905D02*
X157380952Y-113561905D01*
X157114285Y-114361905D01*
X156847619Y-114361905D02*
X156847619Y-113561905D01*
X156657143Y-113561905D01*
X156542857Y-113600000D01*
X156466666Y-113676190D01*
X156428571Y-113752381D01*
X156390476Y-113904762D01*
X156390476Y-114019048D01*
X156428571Y-114171429D01*
X156466666Y-114247619D01*
X156542857Y-114323810D01*
X156657143Y-114361905D01*
X156847619Y-114361905D01*
X155704762Y-113828571D02*
X155704762Y-114361905D01*
X155895238Y-113523810D02*
X156085714Y-114095238D01*
X155590476Y-114095238D01*
X158166666Y-64902381D02*
X158500000Y-64426190D01*
X158738095Y-64902381D02*
X158738095Y-63902381D01*
X158357142Y-63902381D01*
X158261904Y-63950000D01*
X158214285Y-63997619D01*
X158166666Y-64092857D01*
X158166666Y-64235714D01*
X158214285Y-64330952D01*
X158261904Y-64378571D01*
X158357142Y-64426190D01*
X158738095Y-64426190D01*
X157690476Y-64902381D02*
X157500000Y-64902381D01*
X157404761Y-64854762D01*
X157357142Y-64807143D01*
X157261904Y-64664286D01*
X157214285Y-64473810D01*
X157214285Y-64092857D01*
X157261904Y-63997619D01*
X157309523Y-63950000D01*
X157404761Y-63902381D01*
X157595238Y-63902381D01*
X157690476Y-63950000D01*
X157738095Y-63997619D01*
X157785714Y-64092857D01*
X157785714Y-64330952D01*
X157738095Y-64426190D01*
X157690476Y-64473810D01*
X157595238Y-64521429D01*
X157404761Y-64521429D01*
X157309523Y-64473810D01*
X157261904Y-64426190D01*
X157214285Y-64330952D01*
X151642857Y-59902381D02*
X151976191Y-59426190D01*
X152214286Y-59902381D02*
X152214286Y-58902381D01*
X151833333Y-58902381D01*
X151738095Y-58950000D01*
X151690476Y-58997619D01*
X151642857Y-59092857D01*
X151642857Y-59235714D01*
X151690476Y-59330952D01*
X151738095Y-59378571D01*
X151833333Y-59426190D01*
X152214286Y-59426190D01*
X150690476Y-59902381D02*
X151261905Y-59902381D01*
X150976191Y-59902381D02*
X150976191Y-58902381D01*
X151071429Y-59045238D01*
X151166667Y-59140476D01*
X151261905Y-59188095D01*
X150071429Y-58902381D02*
X149976190Y-58902381D01*
X149880952Y-58950000D01*
X149833333Y-58997619D01*
X149785714Y-59092857D01*
X149738095Y-59283333D01*
X149738095Y-59521429D01*
X149785714Y-59711905D01*
X149833333Y-59807143D01*
X149880952Y-59854762D01*
X149976190Y-59902381D01*
X150071429Y-59902381D01*
X150166667Y-59854762D01*
X150214286Y-59807143D01*
X150261905Y-59711905D01*
X150309524Y-59521429D01*
X150309524Y-59283333D01*
X150261905Y-59092857D01*
X150214286Y-58997619D01*
X150166667Y-58950000D01*
X150071429Y-58902381D01*
X139642857Y-57002381D02*
X139976191Y-56526190D01*
X140214286Y-57002381D02*
X140214286Y-56002381D01*
X139833333Y-56002381D01*
X139738095Y-56050000D01*
X139690476Y-56097619D01*
X139642857Y-56192857D01*
X139642857Y-56335714D01*
X139690476Y-56430952D01*
X139738095Y-56478571D01*
X139833333Y-56526190D01*
X140214286Y-56526190D01*
X138690476Y-57002381D02*
X139261905Y-57002381D01*
X138976191Y-57002381D02*
X138976191Y-56002381D01*
X139071429Y-56145238D01*
X139166667Y-56240476D01*
X139261905Y-56288095D01*
X138357143Y-56002381D02*
X137738095Y-56002381D01*
X138071429Y-56383333D01*
X137928571Y-56383333D01*
X137833333Y-56430952D01*
X137785714Y-56478571D01*
X137738095Y-56573810D01*
X137738095Y-56811905D01*
X137785714Y-56907143D01*
X137833333Y-56954762D01*
X137928571Y-57002381D01*
X138214286Y-57002381D01*
X138309524Y-56954762D01*
X138357143Y-56907143D01*
X132642857Y-64902381D02*
X132976191Y-64426190D01*
X133214286Y-64902381D02*
X133214286Y-63902381D01*
X132833333Y-63902381D01*
X132738095Y-63950000D01*
X132690476Y-63997619D01*
X132642857Y-64092857D01*
X132642857Y-64235714D01*
X132690476Y-64330952D01*
X132738095Y-64378571D01*
X132833333Y-64426190D01*
X133214286Y-64426190D01*
X131690476Y-64902381D02*
X132261905Y-64902381D01*
X131976191Y-64902381D02*
X131976191Y-63902381D01*
X132071429Y-64045238D01*
X132166667Y-64140476D01*
X132261905Y-64188095D01*
X130833333Y-64235714D02*
X130833333Y-64902381D01*
X131071429Y-63854762D02*
X131309524Y-64569048D01*
X130690476Y-64569048D01*
M02*
