G04 #@! TF.FileFunction,Legend,Top*
%FSLAX46Y46*%
G04 Gerber Fmt 4.6, Leading zero omitted, Abs format (unit mm)*
G04 Created by KiCad (PCBNEW 4.0.7) date 10/02/18 15:19:20*
%MOMM*%
%LPD*%
G01*
G04 APERTURE LIST*
%ADD10C,0.100000*%
%ADD11C,0.200000*%
%ADD12C,0.250000*%
%ADD13C,0.300000*%
%ADD14C,0.120000*%
%ADD15C,0.150000*%
G04 APERTURE END LIST*
D10*
D11*
X158329381Y-101139714D02*
X158329381Y-101615905D01*
X158805571Y-101663524D01*
X158757952Y-101615905D01*
X158710333Y-101520667D01*
X158710333Y-101282571D01*
X158757952Y-101187333D01*
X158805571Y-101139714D01*
X158900810Y-101092095D01*
X159138905Y-101092095D01*
X159234143Y-101139714D01*
X159281762Y-101187333D01*
X159329381Y-101282571D01*
X159329381Y-101520667D01*
X159281762Y-101615905D01*
X159234143Y-101663524D01*
X158329381Y-100806381D02*
X159329381Y-100473048D01*
X158329381Y-100139714D01*
X157995881Y-101044476D02*
X157519690Y-101377810D01*
X157995881Y-101615905D02*
X156995881Y-101615905D01*
X156995881Y-101234952D01*
X157043500Y-101139714D01*
X157091119Y-101092095D01*
X157186357Y-101044476D01*
X157329214Y-101044476D01*
X157424452Y-101092095D01*
X157472071Y-101139714D01*
X157519690Y-101234952D01*
X157519690Y-101615905D01*
X157948262Y-100663524D02*
X157995881Y-100520667D01*
X157995881Y-100282571D01*
X157948262Y-100187333D01*
X157900643Y-100139714D01*
X157805405Y-100092095D01*
X157710167Y-100092095D01*
X157614929Y-100139714D01*
X157567310Y-100187333D01*
X157519690Y-100282571D01*
X157472071Y-100473048D01*
X157424452Y-100568286D01*
X157376833Y-100615905D01*
X157281595Y-100663524D01*
X157186357Y-100663524D01*
X157091119Y-100615905D01*
X157043500Y-100568286D01*
X156995881Y-100473048D01*
X156995881Y-100234952D01*
X157043500Y-100092095D01*
X156995881Y-99806381D02*
X156995881Y-99234952D01*
X157995881Y-99520667D02*
X156995881Y-99520667D01*
X156725881Y-101615905D02*
X155725881Y-101615905D01*
X155725881Y-101377810D01*
X155773500Y-101234952D01*
X155868738Y-101139714D01*
X155963976Y-101092095D01*
X156154452Y-101044476D01*
X156297310Y-101044476D01*
X156487786Y-101092095D01*
X156583024Y-101139714D01*
X156678262Y-101234952D01*
X156725881Y-101377810D01*
X156725881Y-101615905D01*
X156725881Y-100615905D02*
X155725881Y-100615905D01*
X155725881Y-99949239D02*
X155725881Y-99758762D01*
X155773500Y-99663524D01*
X155868738Y-99568286D01*
X156059214Y-99520667D01*
X156392548Y-99520667D01*
X156583024Y-99568286D01*
X156678262Y-99663524D01*
X156725881Y-99758762D01*
X156725881Y-99949239D01*
X156678262Y-100044477D01*
X156583024Y-100139715D01*
X156392548Y-100187334D01*
X156059214Y-100187334D01*
X155868738Y-100139715D01*
X155773500Y-100044477D01*
X155725881Y-99949239D01*
X155360643Y-101044476D02*
X155408262Y-101092095D01*
X155455881Y-101234952D01*
X155455881Y-101330190D01*
X155408262Y-101473048D01*
X155313024Y-101568286D01*
X155217786Y-101615905D01*
X155027310Y-101663524D01*
X154884452Y-101663524D01*
X154693976Y-101615905D01*
X154598738Y-101568286D01*
X154503500Y-101473048D01*
X154455881Y-101330190D01*
X154455881Y-101234952D01*
X154503500Y-101092095D01*
X154551119Y-101044476D01*
X155455881Y-100139714D02*
X155455881Y-100615905D01*
X154455881Y-100615905D01*
X155455881Y-99806381D02*
X154455881Y-99806381D01*
X155455881Y-99234952D02*
X154884452Y-99663524D01*
X154455881Y-99234952D02*
X155027310Y-99806381D01*
X154185881Y-100980976D02*
X153709690Y-101314310D01*
X154185881Y-101552405D02*
X153185881Y-101552405D01*
X153185881Y-101171452D01*
X153233500Y-101076214D01*
X153281119Y-101028595D01*
X153376357Y-100980976D01*
X153519214Y-100980976D01*
X153614452Y-101028595D01*
X153662071Y-101076214D01*
X153709690Y-101171452D01*
X153709690Y-101552405D01*
X153185881Y-100647643D02*
X154185881Y-99980976D01*
X153185881Y-99980976D02*
X154185881Y-100647643D01*
X151915881Y-101441262D02*
X151915881Y-100869833D01*
X152915881Y-101155548D02*
X151915881Y-101155548D01*
X151915881Y-100631738D02*
X152915881Y-99965071D01*
X151915881Y-99965071D02*
X152915881Y-100631738D01*
X152250000Y-97000000D02*
X153000000Y-97750000D01*
X151500000Y-97000000D02*
X152250000Y-97000000D01*
X150693500Y-101028595D02*
X150645881Y-101123833D01*
X150645881Y-101266690D01*
X150693500Y-101409548D01*
X150788738Y-101504786D01*
X150883976Y-101552405D01*
X151074452Y-101600024D01*
X151217310Y-101600024D01*
X151407786Y-101552405D01*
X151503024Y-101504786D01*
X151598262Y-101409548D01*
X151645881Y-101266690D01*
X151645881Y-101171452D01*
X151598262Y-101028595D01*
X151550643Y-100980976D01*
X151217310Y-100980976D01*
X151217310Y-101171452D01*
X151645881Y-100552405D02*
X150645881Y-100552405D01*
X151645881Y-99980976D01*
X150645881Y-99980976D01*
X151645881Y-99504786D02*
X150645881Y-99504786D01*
X150645881Y-99266691D01*
X150693500Y-99123833D01*
X150788738Y-99028595D01*
X150883976Y-98980976D01*
X151074452Y-98933357D01*
X151217310Y-98933357D01*
X151407786Y-98980976D01*
X151503024Y-99028595D01*
X151598262Y-99123833D01*
X151645881Y-99266691D01*
X151645881Y-99504786D01*
X142750000Y-96750000D02*
G75*
G03X142750000Y-96750000I-250000J0D01*
G01*
X131250000Y-95000000D02*
G75*
G03X131250000Y-95000000I-250000J0D01*
G01*
X156750000Y-95000000D02*
G75*
G03X156750000Y-95000000I-250000J0D01*
G01*
X154750000Y-69750000D02*
G75*
G03X154750000Y-69750000I-250000J0D01*
G01*
X151250000Y-69250000D02*
G75*
G03X151250000Y-69250000I-250000J0D01*
G01*
X143000000Y-81500000D02*
G75*
G03X143000000Y-81500000I-250000J0D01*
G01*
D12*
X160785714Y-92571429D02*
X160833333Y-92500000D01*
X160928571Y-92428571D01*
X161166667Y-92428571D01*
X161261905Y-92500000D01*
X161309524Y-92571429D01*
X161357143Y-92714286D01*
X161357143Y-92857143D01*
X161309524Y-93071429D01*
X160738095Y-93928571D01*
X161357143Y-93928571D01*
X161976190Y-92428571D02*
X162071429Y-92428571D01*
X162166667Y-92500000D01*
X162214286Y-92571429D01*
X162261905Y-92714286D01*
X162309524Y-93000000D01*
X162309524Y-93357143D01*
X162261905Y-93642857D01*
X162214286Y-93785714D01*
X162166667Y-93857143D01*
X162071429Y-93928571D01*
X161976190Y-93928571D01*
X161880952Y-93857143D01*
X161833333Y-93785714D01*
X161785714Y-93642857D01*
X161738095Y-93357143D01*
X161738095Y-93000000D01*
X161785714Y-92714286D01*
X161833333Y-92571429D01*
X161880952Y-92500000D01*
X161976190Y-92428571D01*
X163261905Y-93928571D02*
X162690476Y-93928571D01*
X162976190Y-93928571D02*
X162976190Y-92428571D01*
X162880952Y-92642857D01*
X162785714Y-92785714D01*
X162690476Y-92857143D01*
X163833333Y-93071429D02*
X163738095Y-93000000D01*
X163690476Y-92928571D01*
X163642857Y-92785714D01*
X163642857Y-92714286D01*
X163690476Y-92571429D01*
X163738095Y-92500000D01*
X163833333Y-92428571D01*
X164023810Y-92428571D01*
X164119048Y-92500000D01*
X164166667Y-92571429D01*
X164214286Y-92714286D01*
X164214286Y-92785714D01*
X164166667Y-92928571D01*
X164119048Y-93000000D01*
X164023810Y-93071429D01*
X163833333Y-93071429D01*
X163738095Y-93142857D01*
X163690476Y-93214286D01*
X163642857Y-93357143D01*
X163642857Y-93642857D01*
X163690476Y-93785714D01*
X163738095Y-93857143D01*
X163833333Y-93928571D01*
X164023810Y-93928571D01*
X164119048Y-93857143D01*
X164166667Y-93785714D01*
X164214286Y-93642857D01*
X164214286Y-93357143D01*
X164166667Y-93214286D01*
X164119048Y-93142857D01*
X164023810Y-93071429D01*
D13*
X127357143Y-90642857D02*
X127357143Y-91042857D01*
X126571429Y-91214286D02*
X126571429Y-90642857D01*
X128071429Y-90642857D01*
X128071429Y-91214286D01*
X126571429Y-91614286D02*
X127571429Y-92242857D01*
X127571429Y-91614286D02*
X126571429Y-92242857D01*
X127571429Y-92528572D02*
X127571429Y-92985715D01*
X128071429Y-92700000D02*
X126785714Y-92700000D01*
X126642857Y-92757143D01*
X126571429Y-92871429D01*
X126571429Y-92985715D01*
X126571429Y-93385714D02*
X127571429Y-93385714D01*
X127285714Y-93385714D02*
X127428571Y-93442857D01*
X127500000Y-93500000D01*
X127571429Y-93614286D01*
X127571429Y-93728571D01*
X126571429Y-94642857D02*
X127357143Y-94642857D01*
X127500000Y-94585714D01*
X127571429Y-94471428D01*
X127571429Y-94242857D01*
X127500000Y-94128571D01*
X126642857Y-94642857D02*
X126571429Y-94528571D01*
X126571429Y-94242857D01*
X126642857Y-94128571D01*
X126785714Y-94071428D01*
X126928571Y-94071428D01*
X127071429Y-94128571D01*
X127142857Y-94242857D01*
X127142857Y-94528571D01*
X127214286Y-94642857D01*
X126571429Y-95214285D02*
X128071429Y-95214285D01*
X126714286Y-96471429D02*
X126642857Y-96414286D01*
X126571429Y-96242857D01*
X126571429Y-96128571D01*
X126642857Y-95957143D01*
X126785714Y-95842857D01*
X126928571Y-95785714D01*
X127214286Y-95728571D01*
X127428571Y-95728571D01*
X127714286Y-95785714D01*
X127857143Y-95842857D01*
X128000000Y-95957143D01*
X128071429Y-96128571D01*
X128071429Y-96242857D01*
X128000000Y-96414286D01*
X127928571Y-96471429D01*
X127357143Y-96985714D02*
X127357143Y-97385714D01*
X126571429Y-97557143D02*
X126571429Y-96985714D01*
X128071429Y-96985714D01*
X128071429Y-97557143D01*
X127142857Y-98071428D02*
X127142857Y-98985714D01*
X126571429Y-99557142D02*
X128071429Y-99557142D01*
X127000000Y-99957142D01*
X128071429Y-100357142D01*
X126571429Y-100357142D01*
D11*
X144250000Y-80000000D02*
X144500000Y-79750000D01*
X143500000Y-80000000D02*
X144250000Y-80000000D01*
X160000000Y-107000000D02*
X154000000Y-107000000D01*
X154000000Y-105000000D02*
X160000000Y-105000000D01*
X145000000Y-105000000D02*
X151000000Y-105000000D01*
X145000000Y-107000000D02*
X151000000Y-107000000D01*
D14*
X161750000Y-71720000D02*
X162250000Y-71720000D01*
X162250000Y-70780000D02*
X161750000Y-70780000D01*
X140500000Y-96100000D02*
X141500000Y-96100000D01*
X141500000Y-94400000D02*
X140500000Y-94400000D01*
X134780000Y-96250000D02*
X134780000Y-96750000D01*
X135720000Y-96750000D02*
X135720000Y-96250000D01*
X128780000Y-96250000D02*
X128780000Y-96750000D01*
X129720000Y-96750000D02*
X129720000Y-96250000D01*
X160750000Y-98720000D02*
X161250000Y-98720000D01*
X161250000Y-97780000D02*
X160750000Y-97780000D01*
X133470000Y-71500000D02*
X133470000Y-71000000D01*
X132530000Y-71000000D02*
X132530000Y-71500000D01*
X137000000Y-67280000D02*
X136500000Y-67280000D01*
X136500000Y-68220000D02*
X137000000Y-68220000D01*
X144280000Y-78500000D02*
X144280000Y-79000000D01*
X145220000Y-79000000D02*
X145220000Y-78500000D01*
X151750000Y-78720000D02*
X152250000Y-78720000D01*
X152250000Y-77780000D02*
X151750000Y-77780000D01*
X152530000Y-69750000D02*
X152530000Y-70250000D01*
X153470000Y-70250000D02*
X153470000Y-69750000D01*
X147220000Y-68000000D02*
X147220000Y-67500000D01*
X146280000Y-67500000D02*
X146280000Y-68000000D01*
X148720000Y-68000000D02*
X148720000Y-67500000D01*
X147780000Y-67500000D02*
X147780000Y-68000000D01*
X142150000Y-77000000D02*
X142150000Y-78000000D01*
X143850000Y-78000000D02*
X143850000Y-77000000D01*
X145250000Y-85970000D02*
X145750000Y-85970000D01*
X145750000Y-85030000D02*
X145250000Y-85030000D01*
X147280000Y-82750000D02*
X147280000Y-83250000D01*
X148220000Y-83250000D02*
X148220000Y-82750000D01*
X148250000Y-111530000D02*
X147750000Y-111530000D01*
X147750000Y-112470000D02*
X148250000Y-112470000D01*
X157250000Y-111530000D02*
X156750000Y-111530000D01*
X156750000Y-112470000D02*
X157250000Y-112470000D01*
X155050000Y-96750000D02*
X155050000Y-95750000D01*
X155050000Y-95750000D02*
X152950000Y-95750000D01*
X155050000Y-96750000D02*
X152950000Y-96750000D01*
X135500000Y-68750000D02*
X135500000Y-70750000D01*
X135500000Y-70750000D02*
X139400000Y-70750000D01*
X135500000Y-68750000D02*
X139400000Y-68750000D01*
D15*
X140750000Y-74850000D02*
X140750000Y-71650000D01*
X137750000Y-74850000D02*
X137750000Y-71650000D01*
X160854892Y-66443560D02*
X160681244Y-67428368D01*
X161666052Y-67602016D02*
X161839700Y-66617209D01*
X161839700Y-66617209D02*
X160768068Y-66935964D01*
X160768068Y-66935964D02*
X161666052Y-67602016D01*
X159204033Y-67167896D02*
X163143264Y-67862489D01*
X159696437Y-67254720D02*
X159870085Y-66269912D01*
X159870085Y-66269912D02*
X162824508Y-66790857D01*
X162824508Y-66790857D02*
X162650860Y-67775665D01*
X162332103Y-66704033D02*
G75*
G03X161520945Y-65545577I-984807J173649D01*
G01*
X161520944Y-65545577D02*
G75*
G03X160362489Y-66356736I-173648J-984807D01*
G01*
X148982051Y-56566987D02*
X148116025Y-57066987D01*
X148616025Y-57933013D02*
X149482051Y-57433013D01*
X149482051Y-57433013D02*
X148549038Y-56816987D01*
X148549038Y-56816987D02*
X148616025Y-57933013D01*
X147366025Y-55767949D02*
X149366025Y-59232051D01*
X147616025Y-56200962D02*
X148482051Y-55700962D01*
X148482051Y-55700962D02*
X149982051Y-58299038D01*
X149982051Y-58299038D02*
X149116025Y-58799038D01*
X149732051Y-57866025D02*
G75*
G03X150098076Y-56500000I-500000J866025D01*
G01*
X150098076Y-56500000D02*
G75*
G03X148732051Y-56133975I-866025J-500000D01*
G01*
X140517949Y-57433013D02*
X141383975Y-57933013D01*
X141883975Y-57066987D02*
X141017949Y-56566987D01*
X141017949Y-56566987D02*
X140950962Y-57683013D01*
X140950962Y-57683013D02*
X141883975Y-57066987D01*
X140633975Y-59232051D02*
X142633975Y-55767949D01*
X140883975Y-58799038D02*
X140017949Y-58299038D01*
X140017949Y-58299038D02*
X141517949Y-55700962D01*
X141517949Y-55700962D02*
X142383975Y-56200962D01*
X141267949Y-56133975D02*
G75*
G03X139901924Y-56500000I-500000J-866025D01*
G01*
X139901924Y-56500000D02*
G75*
G03X140267949Y-57866025I866025J-500000D01*
G01*
X128160300Y-66617209D02*
X128333948Y-67602016D01*
X129318756Y-67428368D02*
X129145108Y-66443560D01*
X129145108Y-66443560D02*
X128247124Y-67109612D01*
X128247124Y-67109612D02*
X129318756Y-67428368D01*
X126856736Y-67862489D02*
X130795967Y-67167896D01*
X127349140Y-67775665D02*
X127175492Y-66790857D01*
X127175492Y-66790857D02*
X130129915Y-66269912D01*
X130129915Y-66269912D02*
X130303563Y-67254720D01*
X129637511Y-66356735D02*
G75*
G03X128479055Y-65545577I-984807J-173649D01*
G01*
X128479055Y-65545576D02*
G75*
G03X127667896Y-66704033I173649J-984808D01*
G01*
D14*
X132500000Y-75300000D02*
X133500000Y-75300000D01*
X133500000Y-75300000D02*
X133500000Y-73200000D01*
X132500000Y-75300000D02*
X132500000Y-73200000D01*
X142000000Y-64300000D02*
X143000000Y-64300000D01*
X143000000Y-64300000D02*
X143000000Y-62200000D01*
X142000000Y-64300000D02*
X142000000Y-62200000D01*
X144500000Y-64300000D02*
X145500000Y-64300000D01*
X145500000Y-64300000D02*
X145500000Y-62200000D01*
X144500000Y-64300000D02*
X144500000Y-62200000D01*
X147000000Y-64300000D02*
X148000000Y-64300000D01*
X148000000Y-64300000D02*
X148000000Y-62200000D01*
X147000000Y-64300000D02*
X147000000Y-62200000D01*
X156968147Y-61056574D02*
X155983339Y-60882926D01*
X155983339Y-60882926D02*
X155618678Y-62951022D01*
X156968147Y-61056574D02*
X156603485Y-63124670D01*
X156375833Y-60283013D02*
X155875833Y-59416987D01*
X155875833Y-59416987D02*
X154057180Y-60466987D01*
X156375833Y-60283013D02*
X154557180Y-61333013D01*
X134124167Y-59416987D02*
X133624167Y-60283013D01*
X133624167Y-60283013D02*
X135442820Y-61333013D01*
X134124167Y-59416987D02*
X135942820Y-60466987D01*
X134016661Y-60882926D02*
X133031853Y-61056574D01*
X133031853Y-61056574D02*
X133396515Y-63124670D01*
X134016661Y-60882926D02*
X134381322Y-62951022D01*
D15*
X142100000Y-99150000D02*
X144900000Y-99150000D01*
X144900000Y-97350000D02*
X142100000Y-97350000D01*
X144900000Y-97350000D02*
X144900000Y-99150000D01*
X142100000Y-99150000D02*
X142100000Y-97350000D01*
X145100000Y-99150000D02*
X147900000Y-99150000D01*
X147900000Y-97350000D02*
X145100000Y-97350000D01*
X147900000Y-97350000D02*
X147900000Y-99150000D01*
X145100000Y-99150000D02*
X145100000Y-97350000D01*
X151000000Y-115000000D02*
X151000000Y-112750000D01*
X151000000Y-112750000D02*
X145000000Y-112750000D01*
X145000000Y-112750000D02*
X145000000Y-115000000D01*
X160000000Y-115000000D02*
X160000000Y-112750000D01*
X160000000Y-112750000D02*
X154000000Y-112750000D01*
X154000000Y-112750000D02*
X154000000Y-115000000D01*
X158195074Y-65013304D02*
X158392035Y-65048034D01*
X158392035Y-65048034D02*
X158322576Y-65441957D01*
X158322576Y-65441957D02*
X158519537Y-65476687D01*
X158519537Y-65476687D02*
X158450078Y-65870610D01*
X158450078Y-65870610D02*
X158253117Y-65835880D01*
X158253117Y-65835880D02*
X158183657Y-66229803D01*
X158183657Y-66229803D02*
X157986696Y-66195074D01*
X157986696Y-66195074D02*
X158195074Y-65013304D01*
X156619381Y-64735467D02*
X156411003Y-65917236D01*
X156411003Y-65917236D02*
X156607965Y-65951966D01*
X156607965Y-65951966D02*
X156816343Y-64770197D01*
X156816343Y-64770197D02*
X156619381Y-64735467D01*
X158658456Y-64688840D02*
X159643264Y-64862489D01*
X155704033Y-64167896D02*
X156688840Y-64341544D01*
X157847296Y-63530384D02*
G75*
G03X156688840Y-64341544I-173648J-984808D01*
G01*
X158658456Y-64688840D02*
G75*
G03X157847296Y-63530384I-984808J173648D01*
G01*
X152319615Y-60719615D02*
X152419615Y-60892820D01*
X152419615Y-60892820D02*
X152073205Y-61092820D01*
X152073205Y-61092820D02*
X152173205Y-61266025D01*
X152173205Y-61266025D02*
X151826795Y-61466025D01*
X151826795Y-61466025D02*
X151726795Y-61292820D01*
X151726795Y-61292820D02*
X151380385Y-61492820D01*
X151380385Y-61492820D02*
X151280385Y-61319615D01*
X151280385Y-61319615D02*
X152319615Y-60719615D01*
X151519615Y-59333975D02*
X150480385Y-59933975D01*
X150480385Y-59933975D02*
X150580385Y-60107180D01*
X150580385Y-60107180D02*
X151619615Y-59507180D01*
X151619615Y-59507180D02*
X151519615Y-59333975D01*
X152866025Y-60866025D02*
X153366025Y-61732051D01*
X151366025Y-58267949D02*
X151866025Y-59133975D01*
X153232050Y-59500000D02*
G75*
G03X151866025Y-59133975I-866025J-500000D01*
G01*
X152866025Y-60866026D02*
G75*
G03X153232051Y-59500000I-500000J866026D01*
G01*
X138280385Y-59680385D02*
X138380385Y-59507180D01*
X138380385Y-59507180D02*
X138726795Y-59707180D01*
X138726795Y-59707180D02*
X138826795Y-59533975D01*
X138826795Y-59533975D02*
X139173205Y-59733975D01*
X139173205Y-59733975D02*
X139073205Y-59907180D01*
X139073205Y-59907180D02*
X139419615Y-60107180D01*
X139419615Y-60107180D02*
X139319615Y-60280385D01*
X139319615Y-60280385D02*
X138280385Y-59680385D01*
X137480385Y-61066025D02*
X138519615Y-61666025D01*
X138519615Y-61666025D02*
X138619615Y-61492820D01*
X138619615Y-61492820D02*
X137580385Y-60892820D01*
X137580385Y-60892820D02*
X137480385Y-61066025D01*
X138133975Y-59133975D02*
X138633975Y-58267949D01*
X136633975Y-61732051D02*
X137133975Y-60866025D01*
X136767950Y-59500000D02*
G75*
G03X137133975Y-60866025I866025J-500000D01*
G01*
X138133975Y-59133974D02*
G75*
G03X136767949Y-59500000I-500000J-866026D01*
G01*
X132986696Y-64804926D02*
X133183657Y-64770197D01*
X133183657Y-64770197D02*
X133253117Y-65164120D01*
X133253117Y-65164120D02*
X133450078Y-65129390D01*
X133450078Y-65129390D02*
X133519537Y-65523313D01*
X133519537Y-65523313D02*
X133322576Y-65558043D01*
X133322576Y-65558043D02*
X133392035Y-65951966D01*
X133392035Y-65951966D02*
X133195074Y-65986696D01*
X133195074Y-65986696D02*
X132986696Y-64804926D01*
X131411003Y-65082764D02*
X131619381Y-66264533D01*
X131619381Y-66264533D02*
X131816343Y-66229803D01*
X131816343Y-66229803D02*
X131607965Y-65048034D01*
X131607965Y-65048034D02*
X131411003Y-65082764D01*
X133311160Y-64341544D02*
X134295967Y-64167896D01*
X130356736Y-64862489D02*
X131341544Y-64688840D01*
X132152704Y-63530384D02*
G75*
G03X131341544Y-64688840I173648J-984808D01*
G01*
X133311160Y-64341544D02*
G75*
G03X132152704Y-63530384I-984808J-173648D01*
G01*
D14*
X153500000Y-98780000D02*
X154000000Y-98780000D01*
X154000000Y-97720000D02*
X153500000Y-97720000D01*
X160750000Y-96780000D02*
X161250000Y-96780000D01*
X161250000Y-95720000D02*
X160750000Y-95720000D01*
X130320000Y-74500000D02*
X130320000Y-73500000D01*
X131680000Y-73500000D02*
X131680000Y-74500000D01*
X136000000Y-77430000D02*
X135000000Y-77430000D01*
X135000000Y-76070000D02*
X136000000Y-76070000D01*
X139070000Y-64250000D02*
X139070000Y-63250000D01*
X140430000Y-63250000D02*
X140430000Y-64250000D01*
X126820000Y-72500000D02*
X126820000Y-71500000D01*
X128180000Y-71500000D02*
X128180000Y-72500000D01*
X145680000Y-59500000D02*
X145680000Y-60500000D01*
X144320000Y-60500000D02*
X144320000Y-59500000D01*
X150750000Y-64680000D02*
X149750000Y-64680000D01*
X149750000Y-63320000D02*
X150750000Y-63320000D01*
X144720000Y-67500000D02*
X144720000Y-68000000D01*
X145780000Y-68000000D02*
X145780000Y-67500000D01*
X143220000Y-67500000D02*
X143220000Y-68000000D01*
X144280000Y-68000000D02*
X144280000Y-67500000D01*
X142250000Y-71280000D02*
X142750000Y-71280000D01*
X142750000Y-70220000D02*
X142250000Y-70220000D01*
X141720000Y-67500000D02*
X141720000Y-68000000D01*
X142780000Y-68000000D02*
X142780000Y-67500000D01*
D15*
X158750000Y-75250000D02*
X154750000Y-75250000D01*
X154750000Y-70250000D02*
X158750000Y-70250000D01*
X131525000Y-97600000D02*
X132975000Y-97600000D01*
X130800000Y-95400000D02*
X132975000Y-95400000D01*
D14*
X156850000Y-98860000D02*
X158650000Y-98860000D01*
X158650000Y-95640000D02*
X156200000Y-95640000D01*
X144500000Y-96950000D02*
X143000000Y-96950000D01*
X143000000Y-96950000D02*
X143000000Y-95750000D01*
X146620000Y-94750000D02*
X146620000Y-95750000D01*
X143380000Y-96500000D02*
X143380000Y-94130000D01*
D15*
X134491421Y-72300000D02*
G75*
G03X134491421Y-72300000I-141421J0D01*
G01*
X134750000Y-74600000D02*
X136750000Y-74600000D01*
X134750000Y-72400000D02*
X136750000Y-72400000D01*
X151875000Y-77125000D02*
X151350000Y-77125000D01*
X144625000Y-69875000D02*
X145150000Y-69875000D01*
X144625000Y-77125000D02*
X145150000Y-77125000D01*
X151875000Y-69875000D02*
X151875000Y-70400000D01*
X144625000Y-69875000D02*
X144625000Y-70400000D01*
X144625000Y-77125000D02*
X144625000Y-76600000D01*
X151875000Y-77125000D02*
X151875000Y-76600000D01*
D14*
X152980000Y-68000000D02*
X152980000Y-68660000D01*
X152980000Y-66340000D02*
X152980000Y-67000000D01*
X152980000Y-66340000D02*
X150950000Y-66340000D01*
X151570000Y-68660000D02*
X152980000Y-68660000D01*
D15*
X143400000Y-84100000D02*
X143400000Y-83700000D01*
X143400000Y-84100000D02*
X143800000Y-84100000D01*
X146600000Y-84100000D02*
X146600000Y-83700000D01*
X146600000Y-84100000D02*
X146200000Y-84100000D01*
X146600000Y-80900000D02*
X146600000Y-81300000D01*
X146600000Y-80900000D02*
X146200000Y-80900000D01*
X143400000Y-80900000D02*
X143800000Y-80900000D01*
X146375000Y-110925000D02*
X146375000Y-110425000D01*
X149625000Y-107675000D02*
X149625000Y-108175000D01*
X146375000Y-107675000D02*
X146375000Y-108175000D01*
X149625000Y-110925000D02*
X149125000Y-110925000D01*
X149625000Y-107675000D02*
X149125000Y-107675000D01*
X146375000Y-107675000D02*
X146875000Y-107675000D01*
X146375000Y-110925000D02*
X146875000Y-110925000D01*
X155375000Y-110925000D02*
X155375000Y-110425000D01*
X158625000Y-107675000D02*
X158625000Y-108175000D01*
X155375000Y-107675000D02*
X155375000Y-108175000D01*
X158625000Y-110925000D02*
X158125000Y-110925000D01*
X158625000Y-107675000D02*
X158125000Y-107675000D01*
X155375000Y-107675000D02*
X155875000Y-107675000D01*
X155375000Y-110925000D02*
X155875000Y-110925000D01*
X145500000Y-100500000D02*
X146500000Y-100500000D01*
X144000000Y-100000000D02*
X144000000Y-101000000D01*
X143500000Y-100500000D02*
X144500000Y-100500000D01*
X142750000Y-104700000D02*
X142750000Y-101200000D01*
X147250000Y-101200000D02*
X147250000Y-104700000D01*
X142750000Y-104700000D02*
X147250000Y-104700000D01*
X142750000Y-101200000D02*
X147250000Y-101200000D01*
X143200000Y-93750000D02*
X143200000Y-87950000D01*
X143200000Y-93750000D02*
X135450000Y-93750000D01*
X143200000Y-87950000D02*
X135450000Y-87950000D01*
X130450000Y-94500000D02*
X135450000Y-94500000D01*
X135450000Y-78100000D02*
X130450000Y-78100000D01*
X130450000Y-78100000D02*
X130450000Y-94500000D01*
X135450000Y-78100000D02*
X135450000Y-94500000D01*
X139750000Y-79500000D02*
X137500000Y-79500000D01*
X137500000Y-79500000D02*
X137500000Y-85500000D01*
X137500000Y-85500000D02*
X139750000Y-85500000D01*
X146800000Y-93750000D02*
X146800000Y-87950000D01*
X146800000Y-93750000D02*
X154550000Y-93750000D01*
X146800000Y-87950000D02*
X154550000Y-87950000D01*
X159550000Y-94500000D02*
X154550000Y-94500000D01*
X154550000Y-78100000D02*
X159550000Y-78100000D01*
X159550000Y-78100000D02*
X159550000Y-94500000D01*
X154550000Y-78100000D02*
X154550000Y-94500000D01*
X150250000Y-85500000D02*
X152500000Y-85500000D01*
X152500000Y-85500000D02*
X152500000Y-79500000D01*
X152500000Y-79500000D02*
X150250000Y-79500000D01*
X161866667Y-72805714D02*
X161828572Y-72843810D01*
X161714286Y-72881905D01*
X161638096Y-72881905D01*
X161523810Y-72843810D01*
X161447619Y-72767619D01*
X161409524Y-72691429D01*
X161371429Y-72539048D01*
X161371429Y-72424762D01*
X161409524Y-72272381D01*
X161447619Y-72196190D01*
X161523810Y-72120000D01*
X161638096Y-72081905D01*
X161714286Y-72081905D01*
X161828572Y-72120000D01*
X161866667Y-72158095D01*
X162628572Y-72881905D02*
X162171429Y-72881905D01*
X162400000Y-72881905D02*
X162400000Y-72081905D01*
X162323810Y-72196190D01*
X162247619Y-72272381D01*
X162171429Y-72310476D01*
X140866667Y-97285714D02*
X140828572Y-97323810D01*
X140714286Y-97361905D01*
X140638096Y-97361905D01*
X140523810Y-97323810D01*
X140447619Y-97247619D01*
X140409524Y-97171429D01*
X140371429Y-97019048D01*
X140371429Y-96904762D01*
X140409524Y-96752381D01*
X140447619Y-96676190D01*
X140523810Y-96600000D01*
X140638096Y-96561905D01*
X140714286Y-96561905D01*
X140828572Y-96600000D01*
X140866667Y-96638095D01*
X141171429Y-96638095D02*
X141209524Y-96600000D01*
X141285715Y-96561905D01*
X141476191Y-96561905D01*
X141552381Y-96600000D01*
X141590477Y-96638095D01*
X141628572Y-96714286D01*
X141628572Y-96790476D01*
X141590477Y-96904762D01*
X141133334Y-97361905D01*
X141628572Y-97361905D01*
X135116667Y-98535714D02*
X135078572Y-98573810D01*
X134964286Y-98611905D01*
X134888096Y-98611905D01*
X134773810Y-98573810D01*
X134697619Y-98497619D01*
X134659524Y-98421429D01*
X134621429Y-98269048D01*
X134621429Y-98154762D01*
X134659524Y-98002381D01*
X134697619Y-97926190D01*
X134773810Y-97850000D01*
X134888096Y-97811905D01*
X134964286Y-97811905D01*
X135078572Y-97850000D01*
X135116667Y-97888095D01*
X135383334Y-97811905D02*
X135878572Y-97811905D01*
X135611905Y-98116667D01*
X135726191Y-98116667D01*
X135802381Y-98154762D01*
X135840477Y-98192857D01*
X135878572Y-98269048D01*
X135878572Y-98459524D01*
X135840477Y-98535714D01*
X135802381Y-98573810D01*
X135726191Y-98611905D01*
X135497619Y-98611905D01*
X135421429Y-98573810D01*
X135383334Y-98535714D01*
X129116667Y-98535714D02*
X129078572Y-98573810D01*
X128964286Y-98611905D01*
X128888096Y-98611905D01*
X128773810Y-98573810D01*
X128697619Y-98497619D01*
X128659524Y-98421429D01*
X128621429Y-98269048D01*
X128621429Y-98154762D01*
X128659524Y-98002381D01*
X128697619Y-97926190D01*
X128773810Y-97850000D01*
X128888096Y-97811905D01*
X128964286Y-97811905D01*
X129078572Y-97850000D01*
X129116667Y-97888095D01*
X129802381Y-98078571D02*
X129802381Y-98611905D01*
X129611905Y-97773810D02*
X129421429Y-98345238D01*
X129916667Y-98345238D01*
X161791667Y-99663214D02*
X161753572Y-99701310D01*
X161639286Y-99739405D01*
X161563096Y-99739405D01*
X161448810Y-99701310D01*
X161372619Y-99625119D01*
X161334524Y-99548929D01*
X161296429Y-99396548D01*
X161296429Y-99282262D01*
X161334524Y-99129881D01*
X161372619Y-99053690D01*
X161448810Y-98977500D01*
X161563096Y-98939405D01*
X161639286Y-98939405D01*
X161753572Y-98977500D01*
X161791667Y-99015595D01*
X162515477Y-98939405D02*
X162134524Y-98939405D01*
X162096429Y-99320357D01*
X162134524Y-99282262D01*
X162210715Y-99244167D01*
X162401191Y-99244167D01*
X162477381Y-99282262D01*
X162515477Y-99320357D01*
X162553572Y-99396548D01*
X162553572Y-99587024D01*
X162515477Y-99663214D01*
X162477381Y-99701310D01*
X162401191Y-99739405D01*
X162210715Y-99739405D01*
X162134524Y-99701310D01*
X162096429Y-99663214D01*
X131366667Y-71535714D02*
X131328572Y-71573810D01*
X131214286Y-71611905D01*
X131138096Y-71611905D01*
X131023810Y-71573810D01*
X130947619Y-71497619D01*
X130909524Y-71421429D01*
X130871429Y-71269048D01*
X130871429Y-71154762D01*
X130909524Y-71002381D01*
X130947619Y-70926190D01*
X131023810Y-70850000D01*
X131138096Y-70811905D01*
X131214286Y-70811905D01*
X131328572Y-70850000D01*
X131366667Y-70888095D01*
X132052381Y-70811905D02*
X131900000Y-70811905D01*
X131823810Y-70850000D01*
X131785715Y-70888095D01*
X131709524Y-71002381D01*
X131671429Y-71154762D01*
X131671429Y-71459524D01*
X131709524Y-71535714D01*
X131747619Y-71573810D01*
X131823810Y-71611905D01*
X131976191Y-71611905D01*
X132052381Y-71573810D01*
X132090477Y-71535714D01*
X132128572Y-71459524D01*
X132128572Y-71269048D01*
X132090477Y-71192857D01*
X132052381Y-71154762D01*
X131976191Y-71116667D01*
X131823810Y-71116667D01*
X131747619Y-71154762D01*
X131709524Y-71192857D01*
X131671429Y-71269048D01*
X138616667Y-68035714D02*
X138578572Y-68073810D01*
X138464286Y-68111905D01*
X138388096Y-68111905D01*
X138273810Y-68073810D01*
X138197619Y-67997619D01*
X138159524Y-67921429D01*
X138121429Y-67769048D01*
X138121429Y-67654762D01*
X138159524Y-67502381D01*
X138197619Y-67426190D01*
X138273810Y-67350000D01*
X138388096Y-67311905D01*
X138464286Y-67311905D01*
X138578572Y-67350000D01*
X138616667Y-67388095D01*
X138883334Y-67311905D02*
X139416667Y-67311905D01*
X139073810Y-68111905D01*
X142466667Y-80285714D02*
X142428572Y-80323810D01*
X142314286Y-80361905D01*
X142238096Y-80361905D01*
X142123810Y-80323810D01*
X142047619Y-80247619D01*
X142009524Y-80171429D01*
X141971429Y-80019048D01*
X141971429Y-79904762D01*
X142009524Y-79752381D01*
X142047619Y-79676190D01*
X142123810Y-79600000D01*
X142238096Y-79561905D01*
X142314286Y-79561905D01*
X142428572Y-79600000D01*
X142466667Y-79638095D01*
X142923810Y-79904762D02*
X142847619Y-79866667D01*
X142809524Y-79828571D01*
X142771429Y-79752381D01*
X142771429Y-79714286D01*
X142809524Y-79638095D01*
X142847619Y-79600000D01*
X142923810Y-79561905D01*
X143076191Y-79561905D01*
X143152381Y-79600000D01*
X143190477Y-79638095D01*
X143228572Y-79714286D01*
X143228572Y-79752381D01*
X143190477Y-79828571D01*
X143152381Y-79866667D01*
X143076191Y-79904762D01*
X142923810Y-79904762D01*
X142847619Y-79942857D01*
X142809524Y-79980952D01*
X142771429Y-80057143D01*
X142771429Y-80209524D01*
X142809524Y-80285714D01*
X142847619Y-80323810D01*
X142923810Y-80361905D01*
X143076191Y-80361905D01*
X143152381Y-80323810D01*
X143190477Y-80285714D01*
X143228572Y-80209524D01*
X143228572Y-80057143D01*
X143190477Y-79980952D01*
X143152381Y-79942857D01*
X143076191Y-79904762D01*
X153366667Y-79535714D02*
X153328572Y-79573810D01*
X153214286Y-79611905D01*
X153138096Y-79611905D01*
X153023810Y-79573810D01*
X152947619Y-79497619D01*
X152909524Y-79421429D01*
X152871429Y-79269048D01*
X152871429Y-79154762D01*
X152909524Y-79002381D01*
X152947619Y-78926190D01*
X153023810Y-78850000D01*
X153138096Y-78811905D01*
X153214286Y-78811905D01*
X153328572Y-78850000D01*
X153366667Y-78888095D01*
X153747619Y-79611905D02*
X153900000Y-79611905D01*
X153976191Y-79573810D01*
X154014286Y-79535714D01*
X154090477Y-79421429D01*
X154128572Y-79269048D01*
X154128572Y-78964286D01*
X154090477Y-78888095D01*
X154052381Y-78850000D01*
X153976191Y-78811905D01*
X153823810Y-78811905D01*
X153747619Y-78850000D01*
X153709524Y-78888095D01*
X153671429Y-78964286D01*
X153671429Y-79154762D01*
X153709524Y-79230952D01*
X153747619Y-79269048D01*
X153823810Y-79307143D01*
X153976191Y-79307143D01*
X154052381Y-79269048D01*
X154090477Y-79230952D01*
X154128572Y-79154762D01*
X154735714Y-68785714D02*
X154697619Y-68823810D01*
X154583333Y-68861905D01*
X154507143Y-68861905D01*
X154392857Y-68823810D01*
X154316666Y-68747619D01*
X154278571Y-68671429D01*
X154240476Y-68519048D01*
X154240476Y-68404762D01*
X154278571Y-68252381D01*
X154316666Y-68176190D01*
X154392857Y-68100000D01*
X154507143Y-68061905D01*
X154583333Y-68061905D01*
X154697619Y-68100000D01*
X154735714Y-68138095D01*
X155497619Y-68861905D02*
X155040476Y-68861905D01*
X155269047Y-68861905D02*
X155269047Y-68061905D01*
X155192857Y-68176190D01*
X155116666Y-68252381D01*
X155040476Y-68290476D01*
X155992857Y-68061905D02*
X156069048Y-68061905D01*
X156145238Y-68100000D01*
X156183333Y-68138095D01*
X156221429Y-68214286D01*
X156259524Y-68366667D01*
X156259524Y-68557143D01*
X156221429Y-68709524D01*
X156183333Y-68785714D01*
X156145238Y-68823810D01*
X156069048Y-68861905D01*
X155992857Y-68861905D01*
X155916667Y-68823810D01*
X155878571Y-68785714D01*
X155840476Y-68709524D01*
X155802381Y-68557143D01*
X155802381Y-68366667D01*
X155840476Y-68214286D01*
X155878571Y-68138095D01*
X155916667Y-68100000D01*
X155992857Y-68061905D01*
X147035714Y-66014286D02*
X147073810Y-66052381D01*
X147111905Y-66166667D01*
X147111905Y-66242857D01*
X147073810Y-66357143D01*
X146997619Y-66433334D01*
X146921429Y-66471429D01*
X146769048Y-66509524D01*
X146654762Y-66509524D01*
X146502381Y-66471429D01*
X146426190Y-66433334D01*
X146350000Y-66357143D01*
X146311905Y-66242857D01*
X146311905Y-66166667D01*
X146350000Y-66052381D01*
X146388095Y-66014286D01*
X147111905Y-65252381D02*
X147111905Y-65709524D01*
X147111905Y-65480953D02*
X146311905Y-65480953D01*
X146426190Y-65557143D01*
X146502381Y-65633334D01*
X146540476Y-65709524D01*
X147111905Y-64490476D02*
X147111905Y-64947619D01*
X147111905Y-64719048D02*
X146311905Y-64719048D01*
X146426190Y-64795238D01*
X146502381Y-64871429D01*
X146540476Y-64947619D01*
X148535714Y-66014286D02*
X148573810Y-66052381D01*
X148611905Y-66166667D01*
X148611905Y-66242857D01*
X148573810Y-66357143D01*
X148497619Y-66433334D01*
X148421429Y-66471429D01*
X148269048Y-66509524D01*
X148154762Y-66509524D01*
X148002381Y-66471429D01*
X147926190Y-66433334D01*
X147850000Y-66357143D01*
X147811905Y-66242857D01*
X147811905Y-66166667D01*
X147850000Y-66052381D01*
X147888095Y-66014286D01*
X148611905Y-65252381D02*
X148611905Y-65709524D01*
X148611905Y-65480953D02*
X147811905Y-65480953D01*
X147926190Y-65557143D01*
X148002381Y-65633334D01*
X148040476Y-65709524D01*
X147811905Y-64985714D02*
X147811905Y-64490476D01*
X148116667Y-64757143D01*
X148116667Y-64642857D01*
X148154762Y-64566667D01*
X148192857Y-64528571D01*
X148269048Y-64490476D01*
X148459524Y-64490476D01*
X148535714Y-64528571D01*
X148573810Y-64566667D01*
X148611905Y-64642857D01*
X148611905Y-64871429D01*
X148573810Y-64947619D01*
X148535714Y-64985714D01*
X140235714Y-77785714D02*
X140197619Y-77823810D01*
X140083333Y-77861905D01*
X140007143Y-77861905D01*
X139892857Y-77823810D01*
X139816666Y-77747619D01*
X139778571Y-77671429D01*
X139740476Y-77519048D01*
X139740476Y-77404762D01*
X139778571Y-77252381D01*
X139816666Y-77176190D01*
X139892857Y-77100000D01*
X140007143Y-77061905D01*
X140083333Y-77061905D01*
X140197619Y-77100000D01*
X140235714Y-77138095D01*
X140997619Y-77861905D02*
X140540476Y-77861905D01*
X140769047Y-77861905D02*
X140769047Y-77061905D01*
X140692857Y-77176190D01*
X140616666Y-77252381D01*
X140540476Y-77290476D01*
X141683333Y-77328571D02*
X141683333Y-77861905D01*
X141492857Y-77023810D02*
X141302381Y-77595238D01*
X141797619Y-77595238D01*
X144985714Y-87055714D02*
X144947619Y-87093810D01*
X144833333Y-87131905D01*
X144757143Y-87131905D01*
X144642857Y-87093810D01*
X144566666Y-87017619D01*
X144528571Y-86941429D01*
X144490476Y-86789048D01*
X144490476Y-86674762D01*
X144528571Y-86522381D01*
X144566666Y-86446190D01*
X144642857Y-86370000D01*
X144757143Y-86331905D01*
X144833333Y-86331905D01*
X144947619Y-86370000D01*
X144985714Y-86408095D01*
X145747619Y-87131905D02*
X145290476Y-87131905D01*
X145519047Y-87131905D02*
X145519047Y-86331905D01*
X145442857Y-86446190D01*
X145366666Y-86522381D01*
X145290476Y-86560476D01*
X146471429Y-86331905D02*
X146090476Y-86331905D01*
X146052381Y-86712857D01*
X146090476Y-86674762D01*
X146166667Y-86636667D01*
X146357143Y-86636667D01*
X146433333Y-86674762D01*
X146471429Y-86712857D01*
X146509524Y-86789048D01*
X146509524Y-86979524D01*
X146471429Y-87055714D01*
X146433333Y-87093810D01*
X146357143Y-87131905D01*
X146166667Y-87131905D01*
X146090476Y-87093810D01*
X146052381Y-87055714D01*
X147735714Y-81785714D02*
X147697619Y-81823810D01*
X147583333Y-81861905D01*
X147507143Y-81861905D01*
X147392857Y-81823810D01*
X147316666Y-81747619D01*
X147278571Y-81671429D01*
X147240476Y-81519048D01*
X147240476Y-81404762D01*
X147278571Y-81252381D01*
X147316666Y-81176190D01*
X147392857Y-81100000D01*
X147507143Y-81061905D01*
X147583333Y-81061905D01*
X147697619Y-81100000D01*
X147735714Y-81138095D01*
X148497619Y-81861905D02*
X148040476Y-81861905D01*
X148269047Y-81861905D02*
X148269047Y-81061905D01*
X148192857Y-81176190D01*
X148116666Y-81252381D01*
X148040476Y-81290476D01*
X149183333Y-81061905D02*
X149030952Y-81061905D01*
X148954762Y-81100000D01*
X148916667Y-81138095D01*
X148840476Y-81252381D01*
X148802381Y-81404762D01*
X148802381Y-81709524D01*
X148840476Y-81785714D01*
X148878571Y-81823810D01*
X148954762Y-81861905D01*
X149107143Y-81861905D01*
X149183333Y-81823810D01*
X149221429Y-81785714D01*
X149259524Y-81709524D01*
X149259524Y-81519048D01*
X149221429Y-81442857D01*
X149183333Y-81404762D01*
X149107143Y-81366667D01*
X148954762Y-81366667D01*
X148878571Y-81404762D01*
X148840476Y-81442857D01*
X148802381Y-81519048D01*
X145985714Y-112014286D02*
X146023810Y-112052381D01*
X146061905Y-112166667D01*
X146061905Y-112242857D01*
X146023810Y-112357143D01*
X145947619Y-112433334D01*
X145871429Y-112471429D01*
X145719048Y-112509524D01*
X145604762Y-112509524D01*
X145452381Y-112471429D01*
X145376190Y-112433334D01*
X145300000Y-112357143D01*
X145261905Y-112242857D01*
X145261905Y-112166667D01*
X145300000Y-112052381D01*
X145338095Y-112014286D01*
X146061905Y-111252381D02*
X146061905Y-111709524D01*
X146061905Y-111480953D02*
X145261905Y-111480953D01*
X145376190Y-111557143D01*
X145452381Y-111633334D01*
X145490476Y-111709524D01*
X145261905Y-110985714D02*
X145261905Y-110452381D01*
X146061905Y-110795238D01*
X154985714Y-112014286D02*
X155023810Y-112052381D01*
X155061905Y-112166667D01*
X155061905Y-112242857D01*
X155023810Y-112357143D01*
X154947619Y-112433334D01*
X154871429Y-112471429D01*
X154719048Y-112509524D01*
X154604762Y-112509524D01*
X154452381Y-112471429D01*
X154376190Y-112433334D01*
X154300000Y-112357143D01*
X154261905Y-112242857D01*
X154261905Y-112166667D01*
X154300000Y-112052381D01*
X154338095Y-112014286D01*
X155061905Y-111252381D02*
X155061905Y-111709524D01*
X155061905Y-111480953D02*
X154261905Y-111480953D01*
X154376190Y-111557143D01*
X154452381Y-111633334D01*
X154490476Y-111709524D01*
X154604762Y-110795238D02*
X154566667Y-110871429D01*
X154528571Y-110909524D01*
X154452381Y-110947619D01*
X154414286Y-110947619D01*
X154338095Y-110909524D01*
X154300000Y-110871429D01*
X154261905Y-110795238D01*
X154261905Y-110642857D01*
X154300000Y-110566667D01*
X154338095Y-110528571D01*
X154414286Y-110490476D01*
X154452381Y-110490476D01*
X154528571Y-110528571D01*
X154566667Y-110566667D01*
X154604762Y-110642857D01*
X154604762Y-110795238D01*
X154642857Y-110871429D01*
X154680952Y-110909524D01*
X154757143Y-110947619D01*
X154909524Y-110947619D01*
X154985714Y-110909524D01*
X155023810Y-110871429D01*
X155061905Y-110795238D01*
X155061905Y-110642857D01*
X155023810Y-110566667D01*
X154985714Y-110528571D01*
X154909524Y-110490476D01*
X154757143Y-110490476D01*
X154680952Y-110528571D01*
X154642857Y-110566667D01*
X154604762Y-110642857D01*
X153159524Y-95361905D02*
X153159524Y-94561905D01*
X153350000Y-94561905D01*
X153464286Y-94600000D01*
X153540477Y-94676190D01*
X153578572Y-94752381D01*
X153616667Y-94904762D01*
X153616667Y-95019048D01*
X153578572Y-95171429D01*
X153540477Y-95247619D01*
X153464286Y-95323810D01*
X153350000Y-95361905D01*
X153159524Y-95361905D01*
X154378572Y-95361905D02*
X153921429Y-95361905D01*
X154150000Y-95361905D02*
X154150000Y-94561905D01*
X154073810Y-94676190D01*
X153997619Y-94752381D01*
X153921429Y-94790476D01*
X140409524Y-70111905D02*
X140409524Y-69311905D01*
X140600000Y-69311905D01*
X140714286Y-69350000D01*
X140790477Y-69426190D01*
X140828572Y-69502381D01*
X140866667Y-69654762D01*
X140866667Y-69769048D01*
X140828572Y-69921429D01*
X140790477Y-69997619D01*
X140714286Y-70073810D01*
X140600000Y-70111905D01*
X140409524Y-70111905D01*
X141171429Y-69388095D02*
X141209524Y-69350000D01*
X141285715Y-69311905D01*
X141476191Y-69311905D01*
X141552381Y-69350000D01*
X141590477Y-69388095D01*
X141628572Y-69464286D01*
X141628572Y-69540476D01*
X141590477Y-69654762D01*
X141133334Y-70111905D01*
X141628572Y-70111905D01*
X154733334Y-103561905D02*
X154733334Y-104133333D01*
X154695238Y-104247619D01*
X154619048Y-104323810D01*
X154504762Y-104361905D01*
X154428572Y-104361905D01*
X155533334Y-104361905D02*
X155076191Y-104361905D01*
X155304762Y-104361905D02*
X155304762Y-103561905D01*
X155228572Y-103676190D01*
X155152381Y-103752381D01*
X155076191Y-103790476D01*
X139116667Y-76111905D02*
X138735714Y-76111905D01*
X138735714Y-75311905D01*
X139802381Y-76111905D02*
X139345238Y-76111905D01*
X139573809Y-76111905D02*
X139573809Y-75311905D01*
X139497619Y-75426190D01*
X139421428Y-75502381D01*
X139345238Y-75540476D01*
X160194865Y-69994805D02*
X159819700Y-69928653D01*
X159958618Y-69140807D01*
X160457480Y-70041111D02*
X160596399Y-69253264D01*
X160783981Y-69286340D01*
X160889916Y-69343702D01*
X160951719Y-69431965D01*
X160976005Y-69513614D01*
X160987060Y-69670295D01*
X160967215Y-69782844D01*
X160903238Y-69926295D01*
X160852491Y-69994713D01*
X160764227Y-70056516D01*
X160645062Y-70074186D01*
X160457480Y-70041111D01*
X161658008Y-70252796D02*
X161207810Y-70173414D01*
X161432909Y-70213105D02*
X161571827Y-69425259D01*
X161476949Y-69524577D01*
X161388685Y-69586380D01*
X161307038Y-69610666D01*
X145837383Y-58344073D02*
X145646906Y-58014158D01*
X146339726Y-57614158D01*
X145970716Y-58575012D02*
X146663536Y-58175012D01*
X146758774Y-58339969D01*
X146782926Y-58457991D01*
X146755039Y-58562070D01*
X146708103Y-58633156D01*
X146595185Y-58742338D01*
X146496210Y-58799481D01*
X146345197Y-58842680D01*
X146260167Y-58847784D01*
X146156088Y-58819896D01*
X146065954Y-58739969D01*
X145970716Y-58575012D01*
X146978506Y-58872936D02*
X147030545Y-58886880D01*
X147101631Y-58933816D01*
X147196869Y-59098773D01*
X147201973Y-59183803D01*
X147188030Y-59235842D01*
X147141094Y-59306929D01*
X147075112Y-59345024D01*
X146957090Y-59369176D01*
X146332621Y-59201850D01*
X146580240Y-59630739D01*
X143629284Y-59267832D02*
X143438808Y-59597747D01*
X142745988Y-59197747D01*
X143762617Y-59036893D02*
X143069797Y-58636893D01*
X143165035Y-58471936D01*
X143255169Y-58392009D01*
X143359247Y-58364120D01*
X143444278Y-58369225D01*
X143595291Y-58412424D01*
X143694266Y-58469567D01*
X143807184Y-58578749D01*
X143854119Y-58649835D01*
X143882007Y-58753914D01*
X143857855Y-58871936D01*
X143762617Y-59036893D01*
X143431702Y-58010055D02*
X143679321Y-57581166D01*
X143809919Y-57964488D01*
X143867062Y-57865513D01*
X143938148Y-57818578D01*
X143990188Y-57804634D01*
X144075219Y-57809738D01*
X144240176Y-57904976D01*
X144287111Y-57976062D01*
X144301055Y-58028102D01*
X144295951Y-58113132D01*
X144181665Y-58311081D01*
X144110579Y-58358016D01*
X144058539Y-58371960D01*
X128754674Y-70180029D02*
X128379508Y-70246181D01*
X128240590Y-69458335D01*
X129017288Y-70133723D02*
X128878370Y-69345877D01*
X129065952Y-69312801D01*
X129185117Y-69330472D01*
X129273381Y-69392274D01*
X129324127Y-69460692D01*
X129388104Y-69604143D01*
X129407950Y-69716693D01*
X129396894Y-69873374D01*
X129372608Y-69955022D01*
X129310805Y-70043285D01*
X129204871Y-70100647D01*
X129017288Y-70133723D01*
X130050170Y-69410037D02*
X130142783Y-69935268D01*
X129809667Y-69142981D02*
X129721312Y-69738804D01*
X130209026Y-69652807D01*
X132466667Y-76611905D02*
X132085714Y-76611905D01*
X132085714Y-75811905D01*
X132733333Y-76611905D02*
X132733333Y-75811905D01*
X132923809Y-75811905D01*
X133038095Y-75850000D01*
X133114286Y-75926190D01*
X133152381Y-76002381D01*
X133190476Y-76154762D01*
X133190476Y-76269048D01*
X133152381Y-76421429D01*
X133114286Y-76497619D01*
X133038095Y-76573810D01*
X132923809Y-76611905D01*
X132733333Y-76611905D01*
X133914286Y-75811905D02*
X133533333Y-75811905D01*
X133495238Y-76192857D01*
X133533333Y-76154762D01*
X133609524Y-76116667D01*
X133800000Y-76116667D01*
X133876190Y-76154762D01*
X133914286Y-76192857D01*
X133952381Y-76269048D01*
X133952381Y-76459524D01*
X133914286Y-76535714D01*
X133876190Y-76573810D01*
X133800000Y-76611905D01*
X133609524Y-76611905D01*
X133533333Y-76573810D01*
X133495238Y-76535714D01*
X141611905Y-63533333D02*
X141611905Y-63914286D01*
X140811905Y-63914286D01*
X141611905Y-63266667D02*
X140811905Y-63266667D01*
X140811905Y-63076191D01*
X140850000Y-62961905D01*
X140926190Y-62885714D01*
X141002381Y-62847619D01*
X141154762Y-62809524D01*
X141269048Y-62809524D01*
X141421429Y-62847619D01*
X141497619Y-62885714D01*
X141573810Y-62961905D01*
X141611905Y-63076191D01*
X141611905Y-63266667D01*
X140811905Y-62123810D02*
X140811905Y-62276191D01*
X140850000Y-62352381D01*
X140888095Y-62390476D01*
X141002381Y-62466667D01*
X141154762Y-62504762D01*
X141459524Y-62504762D01*
X141535714Y-62466667D01*
X141573810Y-62428572D01*
X141611905Y-62352381D01*
X141611905Y-62200000D01*
X141573810Y-62123810D01*
X141535714Y-62085714D01*
X141459524Y-62047619D01*
X141269048Y-62047619D01*
X141192857Y-62085714D01*
X141154762Y-62123810D01*
X141116667Y-62200000D01*
X141116667Y-62352381D01*
X141154762Y-62428572D01*
X141192857Y-62466667D01*
X141269048Y-62504762D01*
X144111905Y-63533333D02*
X144111905Y-63914286D01*
X143311905Y-63914286D01*
X144111905Y-63266667D02*
X143311905Y-63266667D01*
X143311905Y-63076191D01*
X143350000Y-62961905D01*
X143426190Y-62885714D01*
X143502381Y-62847619D01*
X143654762Y-62809524D01*
X143769048Y-62809524D01*
X143921429Y-62847619D01*
X143997619Y-62885714D01*
X144073810Y-62961905D01*
X144111905Y-63076191D01*
X144111905Y-63266667D01*
X143311905Y-62542857D02*
X143311905Y-62009524D01*
X144111905Y-62352381D01*
X146611905Y-63533333D02*
X146611905Y-63914286D01*
X145811905Y-63914286D01*
X146611905Y-63266667D02*
X145811905Y-63266667D01*
X145811905Y-63076191D01*
X145850000Y-62961905D01*
X145926190Y-62885714D01*
X146002381Y-62847619D01*
X146154762Y-62809524D01*
X146269048Y-62809524D01*
X146421429Y-62847619D01*
X146497619Y-62885714D01*
X146573810Y-62961905D01*
X146611905Y-63076191D01*
X146611905Y-63266667D01*
X146154762Y-62352381D02*
X146116667Y-62428572D01*
X146078571Y-62466667D01*
X146002381Y-62504762D01*
X145964286Y-62504762D01*
X145888095Y-62466667D01*
X145850000Y-62428572D01*
X145811905Y-62352381D01*
X145811905Y-62200000D01*
X145850000Y-62123810D01*
X145888095Y-62085714D01*
X145964286Y-62047619D01*
X146002381Y-62047619D01*
X146078571Y-62085714D01*
X146116667Y-62123810D01*
X146154762Y-62200000D01*
X146154762Y-62352381D01*
X146192857Y-62428572D01*
X146230952Y-62466667D01*
X146307143Y-62504762D01*
X146459524Y-62504762D01*
X146535714Y-62466667D01*
X146573810Y-62428572D01*
X146611905Y-62352381D01*
X146611905Y-62200000D01*
X146573810Y-62123810D01*
X146535714Y-62085714D01*
X146459524Y-62047619D01*
X146307143Y-62047619D01*
X146230952Y-62085714D01*
X146192857Y-62123810D01*
X146154762Y-62200000D01*
X157744805Y-63055135D02*
X157678653Y-63430300D01*
X156890807Y-63291382D01*
X157791111Y-62792520D02*
X157003264Y-62653601D01*
X157036340Y-62466019D01*
X157093702Y-62360084D01*
X157181965Y-62298281D01*
X157263614Y-62273995D01*
X157420295Y-62262940D01*
X157532844Y-62282785D01*
X157676295Y-62346762D01*
X157744713Y-62397509D01*
X157806516Y-62485773D01*
X157824186Y-62604938D01*
X157791111Y-62792520D01*
X157936644Y-61967157D02*
X157963105Y-61817091D01*
X157938819Y-61735443D01*
X157907917Y-61691311D01*
X157808599Y-61596432D01*
X157665148Y-61532455D01*
X157365016Y-61479534D01*
X157283367Y-61503820D01*
X157239236Y-61534722D01*
X157188489Y-61603139D01*
X157162029Y-61753205D01*
X157186314Y-61834854D01*
X157217215Y-61878985D01*
X157285634Y-61929732D01*
X157473216Y-61962808D01*
X157554864Y-61938522D01*
X157598996Y-61907621D01*
X157649743Y-61839203D01*
X157676203Y-61689137D01*
X157651917Y-61607489D01*
X157621015Y-61563356D01*
X157552598Y-61512610D01*
X154139158Y-60020561D02*
X153809243Y-60211038D01*
X153409243Y-59518218D01*
X154370098Y-59887228D02*
X153970098Y-59194408D01*
X154135055Y-59099170D01*
X154253077Y-59075018D01*
X154357155Y-59102905D01*
X154428242Y-59149841D01*
X154537424Y-59262759D01*
X154594567Y-59361734D01*
X154637766Y-59512747D01*
X154642870Y-59597777D01*
X154614982Y-59701856D01*
X154535055Y-59791990D01*
X154370098Y-59887228D01*
X155425825Y-59277704D02*
X155029927Y-59506276D01*
X155227875Y-59391990D02*
X154827875Y-58699170D01*
X154819035Y-58836239D01*
X154791148Y-58940318D01*
X154744213Y-59011404D01*
X155454713Y-58337265D02*
X155520697Y-58299170D01*
X155605727Y-58294066D01*
X155657765Y-58308010D01*
X155728853Y-58354945D01*
X155838035Y-58467863D01*
X155933273Y-58632820D01*
X155976472Y-58783834D01*
X155981575Y-58868864D01*
X155967632Y-58920904D01*
X155920697Y-58991990D01*
X155854713Y-59030085D01*
X155769683Y-59035189D01*
X155717643Y-59021245D01*
X155646557Y-58974310D01*
X155537375Y-58861392D01*
X155442137Y-58696435D01*
X155398938Y-58545421D01*
X155393834Y-58460391D01*
X155407778Y-58408351D01*
X155454713Y-58337265D01*
X134277253Y-59106276D02*
X133947338Y-58915800D01*
X134347338Y-58222980D01*
X134508193Y-59239609D02*
X134908193Y-58546789D01*
X135073150Y-58642027D01*
X135153077Y-58732161D01*
X135180965Y-58836239D01*
X135175861Y-58921270D01*
X135132662Y-59072283D01*
X135075519Y-59171258D01*
X134966337Y-59284176D01*
X134895251Y-59331111D01*
X134791172Y-59358999D01*
X134673150Y-59334847D01*
X134508193Y-59239609D01*
X135563920Y-59849133D02*
X135168022Y-59620562D01*
X135365970Y-59734847D02*
X135765970Y-59042027D01*
X135642845Y-59102906D01*
X135538767Y-59130794D01*
X135453737Y-59125690D01*
X136223749Y-60230086D02*
X135827851Y-60001514D01*
X136025799Y-60115800D02*
X136425799Y-59422980D01*
X136302674Y-59483858D01*
X136198596Y-59511746D01*
X136113566Y-59506642D01*
X131734829Y-60912449D02*
X131668677Y-60537284D01*
X132456524Y-60398365D01*
X131781135Y-61175064D02*
X132568981Y-61036145D01*
X132602057Y-61223728D01*
X132584387Y-61342892D01*
X132522585Y-61431156D01*
X132454166Y-61481903D01*
X132310715Y-61545880D01*
X132198166Y-61565725D01*
X132041484Y-61554670D01*
X131959837Y-61530384D01*
X131871573Y-61468581D01*
X131814211Y-61362646D01*
X131781135Y-61175064D01*
X131992821Y-62375592D02*
X131913439Y-61925394D01*
X131953130Y-62150492D02*
X132740976Y-62011574D01*
X132615197Y-61956387D01*
X132526933Y-61894584D01*
X132476186Y-61826166D01*
X132758556Y-62550036D02*
X132802687Y-62580937D01*
X132853434Y-62649355D01*
X132886510Y-62836937D01*
X132862224Y-62918585D01*
X132831323Y-62962717D01*
X132762904Y-63013464D01*
X132687872Y-63026694D01*
X132568707Y-63009024D01*
X132039127Y-62638208D01*
X132125124Y-63125922D01*
X140352381Y-98611905D02*
X140352381Y-97811905D01*
X140619048Y-98383333D01*
X140885715Y-97811905D01*
X140885715Y-98611905D01*
X141685715Y-98611905D02*
X141228572Y-98611905D01*
X141457143Y-98611905D02*
X141457143Y-97811905D01*
X141380953Y-97926190D01*
X141304762Y-98002381D01*
X141228572Y-98040476D01*
X148352381Y-98611905D02*
X148352381Y-97811905D01*
X148619048Y-98383333D01*
X148885715Y-97811905D01*
X148885715Y-98611905D01*
X149228572Y-97888095D02*
X149266667Y-97850000D01*
X149342858Y-97811905D01*
X149533334Y-97811905D01*
X149609524Y-97850000D01*
X149647620Y-97888095D01*
X149685715Y-97964286D01*
X149685715Y-98040476D01*
X149647620Y-98154762D01*
X149190477Y-98611905D01*
X149685715Y-98611905D01*
X157088421Y-67395421D02*
X157020003Y-67344674D01*
X156958200Y-67256412D01*
X156865496Y-67124016D01*
X156797078Y-67073270D01*
X156722045Y-67060039D01*
X156726486Y-67254237D02*
X156658069Y-67203490D01*
X156596265Y-67115226D01*
X156585210Y-66958545D01*
X156631516Y-66695930D01*
X156695493Y-66552479D01*
X156783757Y-66490677D01*
X156865404Y-66466391D01*
X157015470Y-66492851D01*
X157083889Y-66543598D01*
X157145691Y-66631861D01*
X157156747Y-66788542D01*
X157110440Y-67051158D01*
X157046463Y-67194608D01*
X156958200Y-67256412D01*
X156876552Y-67280697D01*
X156726486Y-67254237D01*
X157814464Y-67446077D02*
X157364266Y-67366695D01*
X157589365Y-67406386D02*
X157728283Y-66618539D01*
X157633405Y-66717858D01*
X157545141Y-66779661D01*
X157463494Y-66803947D01*
X149783466Y-61403065D02*
X149778361Y-61318034D01*
X149806249Y-61213957D01*
X149848080Y-61057839D01*
X149842976Y-60972808D01*
X149804881Y-60906826D01*
X149658972Y-61035055D02*
X149653868Y-60950025D01*
X149681756Y-60845946D01*
X149794674Y-60736764D01*
X150025614Y-60603431D01*
X150176628Y-60560232D01*
X150280706Y-60588120D01*
X150351792Y-60635055D01*
X150427982Y-60767021D01*
X150433087Y-60852052D01*
X150405199Y-60956129D01*
X150292281Y-61065311D01*
X150061340Y-61198644D01*
X149910327Y-61241844D01*
X149806249Y-61213957D01*
X149735162Y-61167021D01*
X149658972Y-61035055D01*
X150609619Y-61234005D02*
X150661658Y-61247948D01*
X150732744Y-61294884D01*
X150827982Y-61459841D01*
X150833086Y-61544871D01*
X150819143Y-61596911D01*
X150772207Y-61667998D01*
X150706225Y-61706093D01*
X150588203Y-61730244D01*
X149963734Y-61562918D01*
X150211353Y-61991807D01*
X140041305Y-61753030D02*
X139970219Y-61799966D01*
X139866141Y-61827853D01*
X139710024Y-61869685D01*
X139638937Y-61916621D01*
X139600842Y-61982603D01*
X139784846Y-62044850D02*
X139713760Y-62091785D01*
X139609681Y-62119673D01*
X139458668Y-62076474D01*
X139227728Y-61943140D01*
X139114809Y-61833958D01*
X139086922Y-61729880D01*
X139092026Y-61644850D01*
X139168217Y-61512884D01*
X139239303Y-61465948D01*
X139343381Y-61438061D01*
X139494394Y-61481260D01*
X139725335Y-61614594D01*
X139838253Y-61723775D01*
X139866141Y-61827853D01*
X139861037Y-61912884D01*
X139784846Y-62044850D01*
X139396788Y-61116987D02*
X139644407Y-60688098D01*
X139775005Y-61071419D01*
X139832148Y-60972445D01*
X139903234Y-60925510D01*
X139955274Y-60911565D01*
X140040305Y-60916669D01*
X140205262Y-61011907D01*
X140252197Y-61082994D01*
X140266141Y-61135034D01*
X140261037Y-61220064D01*
X140146751Y-61418013D01*
X140075665Y-61464948D01*
X140023625Y-61478891D01*
X132761514Y-67421882D02*
X132679865Y-67397596D01*
X132591603Y-67335794D01*
X132459207Y-67243089D01*
X132377559Y-67218804D01*
X132302526Y-67232034D01*
X132373118Y-67413001D02*
X132291471Y-67388715D01*
X132203207Y-67326912D01*
X132139230Y-67183461D01*
X132092923Y-66920845D01*
X132103979Y-66764164D01*
X132165782Y-66675901D01*
X132234200Y-66625155D01*
X132384266Y-66598694D01*
X132465914Y-66622980D01*
X132554177Y-66684782D01*
X132618154Y-66828233D01*
X132664460Y-67090849D01*
X132653405Y-67247530D01*
X132591603Y-67335794D01*
X132523184Y-67386540D01*
X132373118Y-67413001D01*
X133293450Y-66709160D02*
X133386063Y-67234391D01*
X133052947Y-66442105D02*
X132964592Y-67037927D01*
X133452306Y-66951930D01*
X150616667Y-97361905D02*
X150350000Y-96980952D01*
X150159524Y-97361905D02*
X150159524Y-96561905D01*
X150464286Y-96561905D01*
X150540477Y-96600000D01*
X150578572Y-96638095D01*
X150616667Y-96714286D01*
X150616667Y-96828571D01*
X150578572Y-96904762D01*
X150540477Y-96942857D01*
X150464286Y-96980952D01*
X150159524Y-96980952D01*
X151378572Y-97361905D02*
X150921429Y-97361905D01*
X151150000Y-97361905D02*
X151150000Y-96561905D01*
X151073810Y-96676190D01*
X150997619Y-96752381D01*
X150921429Y-96790476D01*
X160866667Y-95361905D02*
X160600000Y-94980952D01*
X160409524Y-95361905D02*
X160409524Y-94561905D01*
X160714286Y-94561905D01*
X160790477Y-94600000D01*
X160828572Y-94638095D01*
X160866667Y-94714286D01*
X160866667Y-94828571D01*
X160828572Y-94904762D01*
X160790477Y-94942857D01*
X160714286Y-94980952D01*
X160409524Y-94980952D01*
X161171429Y-94638095D02*
X161209524Y-94600000D01*
X161285715Y-94561905D01*
X161476191Y-94561905D01*
X161552381Y-94600000D01*
X161590477Y-94638095D01*
X161628572Y-94714286D01*
X161628572Y-94790476D01*
X161590477Y-94904762D01*
X161133334Y-95361905D01*
X161628572Y-95361905D01*
X130866667Y-76361905D02*
X130600000Y-75980952D01*
X130409524Y-76361905D02*
X130409524Y-75561905D01*
X130714286Y-75561905D01*
X130790477Y-75600000D01*
X130828572Y-75638095D01*
X130866667Y-75714286D01*
X130866667Y-75828571D01*
X130828572Y-75904762D01*
X130790477Y-75942857D01*
X130714286Y-75980952D01*
X130409524Y-75980952D01*
X131133334Y-75561905D02*
X131628572Y-75561905D01*
X131361905Y-75866667D01*
X131476191Y-75866667D01*
X131552381Y-75904762D01*
X131590477Y-75942857D01*
X131628572Y-76019048D01*
X131628572Y-76209524D01*
X131590477Y-76285714D01*
X131552381Y-76323810D01*
X131476191Y-76361905D01*
X131247619Y-76361905D01*
X131171429Y-76323810D01*
X131133334Y-76285714D01*
X137616667Y-77111905D02*
X137350000Y-76730952D01*
X137159524Y-77111905D02*
X137159524Y-76311905D01*
X137464286Y-76311905D01*
X137540477Y-76350000D01*
X137578572Y-76388095D01*
X137616667Y-76464286D01*
X137616667Y-76578571D01*
X137578572Y-76654762D01*
X137540477Y-76692857D01*
X137464286Y-76730952D01*
X137159524Y-76730952D01*
X138302381Y-76578571D02*
X138302381Y-77111905D01*
X138111905Y-76273810D02*
X137921429Y-76845238D01*
X138416667Y-76845238D01*
X138861905Y-63883333D02*
X138480952Y-64150000D01*
X138861905Y-64340476D02*
X138061905Y-64340476D01*
X138061905Y-64035714D01*
X138100000Y-63959523D01*
X138138095Y-63921428D01*
X138214286Y-63883333D01*
X138328571Y-63883333D01*
X138404762Y-63921428D01*
X138442857Y-63959523D01*
X138480952Y-64035714D01*
X138480952Y-64340476D01*
X138061905Y-63159523D02*
X138061905Y-63540476D01*
X138442857Y-63578571D01*
X138404762Y-63540476D01*
X138366667Y-63464285D01*
X138366667Y-63273809D01*
X138404762Y-63197619D01*
X138442857Y-63159523D01*
X138519048Y-63121428D01*
X138709524Y-63121428D01*
X138785714Y-63159523D01*
X138823810Y-63197619D01*
X138861905Y-63273809D01*
X138861905Y-63464285D01*
X138823810Y-63540476D01*
X138785714Y-63578571D01*
X127116667Y-74611905D02*
X126850000Y-74230952D01*
X126659524Y-74611905D02*
X126659524Y-73811905D01*
X126964286Y-73811905D01*
X127040477Y-73850000D01*
X127078572Y-73888095D01*
X127116667Y-73964286D01*
X127116667Y-74078571D01*
X127078572Y-74154762D01*
X127040477Y-74192857D01*
X126964286Y-74230952D01*
X126659524Y-74230952D01*
X127802381Y-73811905D02*
X127650000Y-73811905D01*
X127573810Y-73850000D01*
X127535715Y-73888095D01*
X127459524Y-74002381D01*
X127421429Y-74154762D01*
X127421429Y-74459524D01*
X127459524Y-74535714D01*
X127497619Y-74573810D01*
X127573810Y-74611905D01*
X127726191Y-74611905D01*
X127802381Y-74573810D01*
X127840477Y-74535714D01*
X127878572Y-74459524D01*
X127878572Y-74269048D01*
X127840477Y-74192857D01*
X127802381Y-74154762D01*
X127726191Y-74116667D01*
X127573810Y-74116667D01*
X127497619Y-74154762D01*
X127459524Y-74192857D01*
X127421429Y-74269048D01*
X143116667Y-61111905D02*
X142850000Y-60730952D01*
X142659524Y-61111905D02*
X142659524Y-60311905D01*
X142964286Y-60311905D01*
X143040477Y-60350000D01*
X143078572Y-60388095D01*
X143116667Y-60464286D01*
X143116667Y-60578571D01*
X143078572Y-60654762D01*
X143040477Y-60692857D01*
X142964286Y-60730952D01*
X142659524Y-60730952D01*
X143383334Y-60311905D02*
X143916667Y-60311905D01*
X143573810Y-61111905D01*
X150116667Y-65611905D02*
X149850000Y-65230952D01*
X149659524Y-65611905D02*
X149659524Y-64811905D01*
X149964286Y-64811905D01*
X150040477Y-64850000D01*
X150078572Y-64888095D01*
X150116667Y-64964286D01*
X150116667Y-65078571D01*
X150078572Y-65154762D01*
X150040477Y-65192857D01*
X149964286Y-65230952D01*
X149659524Y-65230952D01*
X150573810Y-65154762D02*
X150497619Y-65116667D01*
X150459524Y-65078571D01*
X150421429Y-65002381D01*
X150421429Y-64964286D01*
X150459524Y-64888095D01*
X150497619Y-64850000D01*
X150573810Y-64811905D01*
X150726191Y-64811905D01*
X150802381Y-64850000D01*
X150840477Y-64888095D01*
X150878572Y-64964286D01*
X150878572Y-65002381D01*
X150840477Y-65078571D01*
X150802381Y-65116667D01*
X150726191Y-65154762D01*
X150573810Y-65154762D01*
X150497619Y-65192857D01*
X150459524Y-65230952D01*
X150421429Y-65307143D01*
X150421429Y-65459524D01*
X150459524Y-65535714D01*
X150497619Y-65573810D01*
X150573810Y-65611905D01*
X150726191Y-65611905D01*
X150802381Y-65573810D01*
X150840477Y-65535714D01*
X150878572Y-65459524D01*
X150878572Y-65307143D01*
X150840477Y-65230952D01*
X150802381Y-65192857D01*
X150726191Y-65154762D01*
X145611905Y-65964286D02*
X145230952Y-66230953D01*
X145611905Y-66421429D02*
X144811905Y-66421429D01*
X144811905Y-66116667D01*
X144850000Y-66040476D01*
X144888095Y-66002381D01*
X144964286Y-65964286D01*
X145078571Y-65964286D01*
X145154762Y-66002381D01*
X145192857Y-66040476D01*
X145230952Y-66116667D01*
X145230952Y-66421429D01*
X145611905Y-65202381D02*
X145611905Y-65659524D01*
X145611905Y-65430953D02*
X144811905Y-65430953D01*
X144926190Y-65507143D01*
X145002381Y-65583334D01*
X145040476Y-65659524D01*
X145611905Y-64440476D02*
X145611905Y-64897619D01*
X145611905Y-64669048D02*
X144811905Y-64669048D01*
X144926190Y-64745238D01*
X145002381Y-64821429D01*
X145040476Y-64897619D01*
X144111905Y-66264286D02*
X143730952Y-66530953D01*
X144111905Y-66721429D02*
X143311905Y-66721429D01*
X143311905Y-66416667D01*
X143350000Y-66340476D01*
X143388095Y-66302381D01*
X143464286Y-66264286D01*
X143578571Y-66264286D01*
X143654762Y-66302381D01*
X143692857Y-66340476D01*
X143730952Y-66416667D01*
X143730952Y-66721429D01*
X144111905Y-65502381D02*
X144111905Y-65959524D01*
X144111905Y-65730953D02*
X143311905Y-65730953D01*
X143426190Y-65807143D01*
X143502381Y-65883334D01*
X143540476Y-65959524D01*
X143388095Y-65197619D02*
X143350000Y-65159524D01*
X143311905Y-65083333D01*
X143311905Y-64892857D01*
X143350000Y-64816667D01*
X143388095Y-64778571D01*
X143464286Y-64740476D01*
X143540476Y-64740476D01*
X143654762Y-64778571D01*
X144111905Y-65235714D01*
X144111905Y-64740476D01*
X141935714Y-72361905D02*
X141669047Y-71980952D01*
X141478571Y-72361905D02*
X141478571Y-71561905D01*
X141783333Y-71561905D01*
X141859524Y-71600000D01*
X141897619Y-71638095D01*
X141935714Y-71714286D01*
X141935714Y-71828571D01*
X141897619Y-71904762D01*
X141859524Y-71942857D01*
X141783333Y-71980952D01*
X141478571Y-71980952D01*
X142697619Y-72361905D02*
X142240476Y-72361905D01*
X142469047Y-72361905D02*
X142469047Y-71561905D01*
X142392857Y-71676190D01*
X142316666Y-71752381D01*
X142240476Y-71790476D01*
X143421429Y-71561905D02*
X143040476Y-71561905D01*
X143002381Y-71942857D01*
X143040476Y-71904762D01*
X143116667Y-71866667D01*
X143307143Y-71866667D01*
X143383333Y-71904762D01*
X143421429Y-71942857D01*
X143459524Y-72019048D01*
X143459524Y-72209524D01*
X143421429Y-72285714D01*
X143383333Y-72323810D01*
X143307143Y-72361905D01*
X143116667Y-72361905D01*
X143040476Y-72323810D01*
X143002381Y-72285714D01*
X142611905Y-66264286D02*
X142230952Y-66530953D01*
X142611905Y-66721429D02*
X141811905Y-66721429D01*
X141811905Y-66416667D01*
X141850000Y-66340476D01*
X141888095Y-66302381D01*
X141964286Y-66264286D01*
X142078571Y-66264286D01*
X142154762Y-66302381D01*
X142192857Y-66340476D01*
X142230952Y-66416667D01*
X142230952Y-66721429D01*
X142611905Y-65502381D02*
X142611905Y-65959524D01*
X142611905Y-65730953D02*
X141811905Y-65730953D01*
X141926190Y-65807143D01*
X142002381Y-65883334D01*
X142040476Y-65959524D01*
X141811905Y-64816667D02*
X141811905Y-64969048D01*
X141850000Y-65045238D01*
X141888095Y-65083333D01*
X142002381Y-65159524D01*
X142154762Y-65197619D01*
X142459524Y-65197619D01*
X142535714Y-65159524D01*
X142573810Y-65121429D01*
X142611905Y-65045238D01*
X142611905Y-64892857D01*
X142573810Y-64816667D01*
X142535714Y-64778571D01*
X142459524Y-64740476D01*
X142269048Y-64740476D01*
X142192857Y-64778571D01*
X142154762Y-64816667D01*
X142116667Y-64892857D01*
X142116667Y-65045238D01*
X142154762Y-65121429D01*
X142192857Y-65159524D01*
X142269048Y-65197619D01*
X156140476Y-75561905D02*
X156140476Y-76209524D01*
X156178571Y-76285714D01*
X156216667Y-76323810D01*
X156292857Y-76361905D01*
X156445238Y-76361905D01*
X156521429Y-76323810D01*
X156559524Y-76285714D01*
X156597619Y-76209524D01*
X156597619Y-75561905D01*
X157397619Y-76361905D02*
X156940476Y-76361905D01*
X157169047Y-76361905D02*
X157169047Y-75561905D01*
X157092857Y-75676190D01*
X157016666Y-75752381D01*
X156940476Y-75790476D01*
X131640476Y-98061905D02*
X131640476Y-98709524D01*
X131678571Y-98785714D01*
X131716667Y-98823810D01*
X131792857Y-98861905D01*
X131945238Y-98861905D01*
X132021429Y-98823810D01*
X132059524Y-98785714D01*
X132097619Y-98709524D01*
X132097619Y-98061905D01*
X132440476Y-98138095D02*
X132478571Y-98100000D01*
X132554762Y-98061905D01*
X132745238Y-98061905D01*
X132821428Y-98100000D01*
X132859524Y-98138095D01*
X132897619Y-98214286D01*
X132897619Y-98290476D01*
X132859524Y-98404762D01*
X132402381Y-98861905D01*
X132897619Y-98861905D01*
X158838976Y-99002905D02*
X158838976Y-99650524D01*
X158877071Y-99726714D01*
X158915167Y-99764810D01*
X158991357Y-99802905D01*
X159143738Y-99802905D01*
X159219929Y-99764810D01*
X159258024Y-99726714D01*
X159296119Y-99650524D01*
X159296119Y-99002905D01*
X159600881Y-99002905D02*
X160096119Y-99002905D01*
X159829452Y-99307667D01*
X159943738Y-99307667D01*
X160019928Y-99345762D01*
X160058024Y-99383857D01*
X160096119Y-99460048D01*
X160096119Y-99650524D01*
X160058024Y-99726714D01*
X160019928Y-99764810D01*
X159943738Y-99802905D01*
X159715166Y-99802905D01*
X159638976Y-99764810D01*
X159600881Y-99726714D01*
X146964476Y-94861905D02*
X146964476Y-95509524D01*
X147002571Y-95585714D01*
X147040667Y-95623810D01*
X147116857Y-95661905D01*
X147269238Y-95661905D01*
X147345429Y-95623810D01*
X147383524Y-95585714D01*
X147421619Y-95509524D01*
X147421619Y-94861905D01*
X148145428Y-95128571D02*
X148145428Y-95661905D01*
X147954952Y-94823810D02*
X147764476Y-95395238D01*
X148259714Y-95395238D01*
X135140476Y-71311905D02*
X135140476Y-71959524D01*
X135178571Y-72035714D01*
X135216667Y-72073810D01*
X135292857Y-72111905D01*
X135445238Y-72111905D01*
X135521429Y-72073810D01*
X135559524Y-72035714D01*
X135597619Y-71959524D01*
X135597619Y-71311905D01*
X136359524Y-71311905D02*
X135978571Y-71311905D01*
X135940476Y-71692857D01*
X135978571Y-71654762D01*
X136054762Y-71616667D01*
X136245238Y-71616667D01*
X136321428Y-71654762D01*
X136359524Y-71692857D01*
X136397619Y-71769048D01*
X136397619Y-71959524D01*
X136359524Y-72035714D01*
X136321428Y-72073810D01*
X136245238Y-72111905D01*
X136054762Y-72111905D01*
X135978571Y-72073810D01*
X135940476Y-72035714D01*
X147640476Y-77811905D02*
X147640476Y-78459524D01*
X147678571Y-78535714D01*
X147716667Y-78573810D01*
X147792857Y-78611905D01*
X147945238Y-78611905D01*
X148021429Y-78573810D01*
X148059524Y-78535714D01*
X148097619Y-78459524D01*
X148097619Y-77811905D01*
X148821428Y-77811905D02*
X148669047Y-77811905D01*
X148592857Y-77850000D01*
X148554762Y-77888095D01*
X148478571Y-78002381D01*
X148440476Y-78154762D01*
X148440476Y-78459524D01*
X148478571Y-78535714D01*
X148516666Y-78573810D01*
X148592857Y-78611905D01*
X148745238Y-78611905D01*
X148821428Y-78573810D01*
X148859524Y-78535714D01*
X148897619Y-78459524D01*
X148897619Y-78269048D01*
X148859524Y-78192857D01*
X148821428Y-78154762D01*
X148745238Y-78116667D01*
X148592857Y-78116667D01*
X148516666Y-78154762D01*
X148478571Y-78192857D01*
X148440476Y-78269048D01*
X153390476Y-66061905D02*
X153390476Y-66709524D01*
X153428571Y-66785714D01*
X153466667Y-66823810D01*
X153542857Y-66861905D01*
X153695238Y-66861905D01*
X153771429Y-66823810D01*
X153809524Y-66785714D01*
X153847619Y-66709524D01*
X153847619Y-66061905D01*
X154152381Y-66061905D02*
X154685714Y-66061905D01*
X154342857Y-66861905D01*
X141390476Y-82061905D02*
X141390476Y-82709524D01*
X141428571Y-82785714D01*
X141466667Y-82823810D01*
X141542857Y-82861905D01*
X141695238Y-82861905D01*
X141771429Y-82823810D01*
X141809524Y-82785714D01*
X141847619Y-82709524D01*
X141847619Y-82061905D01*
X142342857Y-82404762D02*
X142266666Y-82366667D01*
X142228571Y-82328571D01*
X142190476Y-82252381D01*
X142190476Y-82214286D01*
X142228571Y-82138095D01*
X142266666Y-82100000D01*
X142342857Y-82061905D01*
X142495238Y-82061905D01*
X142571428Y-82100000D01*
X142609524Y-82138095D01*
X142647619Y-82214286D01*
X142647619Y-82252381D01*
X142609524Y-82328571D01*
X142571428Y-82366667D01*
X142495238Y-82404762D01*
X142342857Y-82404762D01*
X142266666Y-82442857D01*
X142228571Y-82480952D01*
X142190476Y-82557143D01*
X142190476Y-82709524D01*
X142228571Y-82785714D01*
X142266666Y-82823810D01*
X142342857Y-82861905D01*
X142495238Y-82861905D01*
X142571428Y-82823810D01*
X142609524Y-82785714D01*
X142647619Y-82709524D01*
X142647619Y-82557143D01*
X142609524Y-82480952D01*
X142571428Y-82442857D01*
X142495238Y-82404762D01*
X149861905Y-110809524D02*
X150509524Y-110809524D01*
X150585714Y-110771429D01*
X150623810Y-110733333D01*
X150661905Y-110657143D01*
X150661905Y-110504762D01*
X150623810Y-110428571D01*
X150585714Y-110390476D01*
X150509524Y-110352381D01*
X149861905Y-110352381D01*
X150661905Y-109933334D02*
X150661905Y-109780953D01*
X150623810Y-109704762D01*
X150585714Y-109666667D01*
X150471429Y-109590476D01*
X150319048Y-109552381D01*
X150014286Y-109552381D01*
X149938095Y-109590476D01*
X149900000Y-109628572D01*
X149861905Y-109704762D01*
X149861905Y-109857143D01*
X149900000Y-109933334D01*
X149938095Y-109971429D01*
X150014286Y-110009524D01*
X150204762Y-110009524D01*
X150280952Y-109971429D01*
X150319048Y-109933334D01*
X150357143Y-109857143D01*
X150357143Y-109704762D01*
X150319048Y-109628572D01*
X150280952Y-109590476D01*
X150204762Y-109552381D01*
X158961905Y-111190476D02*
X159609524Y-111190476D01*
X159685714Y-111152381D01*
X159723810Y-111114285D01*
X159761905Y-111038095D01*
X159761905Y-110885714D01*
X159723810Y-110809523D01*
X159685714Y-110771428D01*
X159609524Y-110733333D01*
X158961905Y-110733333D01*
X159761905Y-109933333D02*
X159761905Y-110390476D01*
X159761905Y-110161905D02*
X158961905Y-110161905D01*
X159076190Y-110238095D01*
X159152381Y-110314286D01*
X159190476Y-110390476D01*
X158961905Y-109438095D02*
X158961905Y-109361904D01*
X159000000Y-109285714D01*
X159038095Y-109247619D01*
X159114286Y-109209523D01*
X159266667Y-109171428D01*
X159457143Y-109171428D01*
X159609524Y-109209523D01*
X159685714Y-109247619D01*
X159723810Y-109285714D01*
X159761905Y-109361904D01*
X159761905Y-109438095D01*
X159723810Y-109514285D01*
X159685714Y-109552381D01*
X159609524Y-109590476D01*
X159457143Y-109628571D01*
X159266667Y-109628571D01*
X159114286Y-109590476D01*
X159038095Y-109552381D01*
X159000000Y-109514285D01*
X158961905Y-109438095D01*
X147871429Y-103942857D02*
X147985715Y-103980952D01*
X148023810Y-104019048D01*
X148061905Y-104095238D01*
X148061905Y-104209524D01*
X148023810Y-104285714D01*
X147985715Y-104323810D01*
X147909524Y-104361905D01*
X147604762Y-104361905D01*
X147604762Y-103561905D01*
X147871429Y-103561905D01*
X147947619Y-103600000D01*
X147985715Y-103638095D01*
X148023810Y-103714286D01*
X148023810Y-103790476D01*
X147985715Y-103866667D01*
X147947619Y-103904762D01*
X147871429Y-103942857D01*
X147604762Y-103942857D01*
X148290476Y-103561905D02*
X148747619Y-103561905D01*
X148519048Y-104361905D02*
X148519048Y-103561905D01*
X149433334Y-104361905D02*
X148976191Y-104361905D01*
X149204762Y-104361905D02*
X149204762Y-103561905D01*
X149128572Y-103676190D01*
X149052381Y-103752381D01*
X148976191Y-103790476D01*
X137666667Y-86861905D02*
X137666667Y-86061905D01*
X137971429Y-86061905D01*
X138047620Y-86100000D01*
X138085715Y-86138095D01*
X138123810Y-86214286D01*
X138123810Y-86328571D01*
X138085715Y-86404762D01*
X138047620Y-86442857D01*
X137971429Y-86480952D01*
X137666667Y-86480952D01*
X138428572Y-86633333D02*
X138809524Y-86633333D01*
X138352381Y-86861905D02*
X138619048Y-86061905D01*
X138885715Y-86861905D01*
X139152381Y-86861905D02*
X139152381Y-86061905D01*
X139342857Y-86061905D01*
X139457143Y-86100000D01*
X139533334Y-86176190D01*
X139571429Y-86252381D01*
X139609524Y-86404762D01*
X139609524Y-86519048D01*
X139571429Y-86671429D01*
X139533334Y-86747619D01*
X139457143Y-86823810D01*
X139342857Y-86861905D01*
X139152381Y-86861905D01*
X139876191Y-86061905D02*
X140371429Y-86061905D01*
X140104762Y-86366667D01*
X140219048Y-86366667D01*
X140295238Y-86404762D01*
X140333334Y-86442857D01*
X140371429Y-86519048D01*
X140371429Y-86709524D01*
X140333334Y-86785714D01*
X140295238Y-86823810D01*
X140219048Y-86861905D01*
X139990476Y-86861905D01*
X139914286Y-86823810D01*
X139876191Y-86785714D01*
X149666667Y-86861905D02*
X149666667Y-86061905D01*
X149971429Y-86061905D01*
X150047620Y-86100000D01*
X150085715Y-86138095D01*
X150123810Y-86214286D01*
X150123810Y-86328571D01*
X150085715Y-86404762D01*
X150047620Y-86442857D01*
X149971429Y-86480952D01*
X149666667Y-86480952D01*
X150428572Y-86633333D02*
X150809524Y-86633333D01*
X150352381Y-86861905D02*
X150619048Y-86061905D01*
X150885715Y-86861905D01*
X151152381Y-86861905D02*
X151152381Y-86061905D01*
X151342857Y-86061905D01*
X151457143Y-86100000D01*
X151533334Y-86176190D01*
X151571429Y-86252381D01*
X151609524Y-86404762D01*
X151609524Y-86519048D01*
X151571429Y-86671429D01*
X151533334Y-86747619D01*
X151457143Y-86823810D01*
X151342857Y-86861905D01*
X151152381Y-86861905D01*
X152371429Y-86861905D02*
X151914286Y-86861905D01*
X152142857Y-86861905D02*
X152142857Y-86061905D01*
X152066667Y-86176190D01*
X151990476Y-86252381D01*
X151914286Y-86290476D01*
X135933333Y-98573810D02*
X136047619Y-98611905D01*
X136238095Y-98611905D01*
X136314285Y-98573810D01*
X136352381Y-98535714D01*
X136390476Y-98459524D01*
X136390476Y-98383333D01*
X136352381Y-98307143D01*
X136314285Y-98269048D01*
X136238095Y-98230952D01*
X136085714Y-98192857D01*
X136009523Y-98154762D01*
X135971428Y-98116667D01*
X135933333Y-98040476D01*
X135933333Y-97964286D01*
X135971428Y-97888095D01*
X136009523Y-97850000D01*
X136085714Y-97811905D01*
X136276190Y-97811905D01*
X136390476Y-97850000D01*
X136657143Y-97811905D02*
X136847619Y-98611905D01*
X137000000Y-98040476D01*
X137152381Y-98611905D01*
X137342857Y-97811905D01*
X138066667Y-98611905D02*
X137609524Y-98611905D01*
X137838095Y-98611905D02*
X137838095Y-97811905D01*
X137761905Y-97926190D01*
X137685714Y-98002381D01*
X137609524Y-98040476D01*
M02*
