G04 #@! TF.FileFunction,Soldermask,Top*
%FSLAX46Y46*%
G04 Gerber Fmt 4.6, Leading zero omitted, Abs format (unit mm)*
G04 Created by KiCad (PCBNEW 4.0.7) date 10/02/18 15:19:20*
%MOMM*%
%LPD*%
G01*
G04 APERTURE LIST*
%ADD10C,0.100000*%
%ADD11R,1.000000X0.900000*%
%ADD12R,1.400000X1.650000*%
%ADD13R,0.900000X1.000000*%
%ADD14R,1.650000X1.400000*%
%ADD15R,1.200000X1.200000*%
%ADD16R,1.300000X1.600000*%
%ADD17O,1.200000X1.600000*%
%ADD18R,3.100000X1.400000*%
%ADD19O,1.300000X1.700000*%
%ADD20R,1.400000X2.400000*%
%ADD21R,0.800000X1.000000*%
%ADD22R,1.300000X0.900000*%
%ADD23R,0.900000X1.300000*%
%ADD24R,1.000000X0.800000*%
%ADD25R,2.400000X2.400000*%
%ADD26R,1.050000X0.750000*%
%ADD27R,1.400000X1.200000*%
%ADD28R,1.460000X1.050000*%
%ADD29R,0.650000X0.900000*%
%ADD30R,3.050000X1.400000*%
%ADD31R,1.000000X0.650000*%
%ADD32R,1.100000X1.700000*%
%ADD33R,0.650000X1.100000*%
%ADD34R,1.100000X0.650000*%
%ADD35R,1.687500X1.687500*%
%ADD36R,1.100000X0.850000*%
%ADD37R,0.950000X0.600000*%
%ADD38R,0.600000X0.950000*%
%ADD39R,1.275000X1.200000*%
%ADD40O,1.150000X0.700000*%
%ADD41O,0.700000X1.150000*%
%ADD42R,1.300000X1.300000*%
%ADD43C,1.400000*%
%ADD44R,2.400000X1.400000*%
%ADD45C,2.400000*%
%ADD46R,1.100000X1.900000*%
%ADD47C,1.300000*%
G04 APERTURE END LIST*
D10*
D11*
X162550000Y-71250000D03*
X161450000Y-71250000D03*
D12*
X142000000Y-95250000D03*
X140000000Y-95250000D03*
D13*
X135250000Y-97050000D03*
X135250000Y-95950000D03*
X129250000Y-97050000D03*
X129250000Y-95950000D03*
D11*
X161550000Y-98250000D03*
X160450000Y-98250000D03*
D13*
X133000000Y-70700000D03*
X133000000Y-71800000D03*
D11*
X136200000Y-67750000D03*
X137300000Y-67750000D03*
D13*
X144750000Y-79300000D03*
X144750000Y-78200000D03*
D11*
X152550000Y-78250000D03*
X151450000Y-78250000D03*
D13*
X153000000Y-70550000D03*
X153000000Y-69450000D03*
X146750000Y-67200000D03*
X146750000Y-68300000D03*
X148250000Y-67200000D03*
X148250000Y-68300000D03*
D14*
X143000000Y-78500000D03*
X143000000Y-76500000D03*
D11*
X146050000Y-85500000D03*
X144950000Y-85500000D03*
D13*
X147750000Y-83550000D03*
X147750000Y-82450000D03*
D11*
X147450000Y-112000000D03*
X148550000Y-112000000D03*
X156450000Y-112000000D03*
X157550000Y-112000000D03*
D15*
X152950000Y-96250000D03*
X154550000Y-96250000D03*
D16*
X136100000Y-69750000D03*
X139400000Y-69750000D03*
D17*
X158810000Y-102500000D03*
X157540000Y-102500000D03*
X156270000Y-102500000D03*
X155000000Y-102500000D03*
X153730000Y-102500000D03*
X152460000Y-102500000D03*
X151190000Y-102500000D03*
D18*
X139250000Y-74350000D03*
X139250000Y-72150000D03*
D10*
G36*
X158219465Y-68720516D02*
X158462572Y-67341785D01*
X160826111Y-67758540D01*
X160583004Y-69137271D01*
X158219465Y-68720516D01*
X158219465Y-68720516D01*
G37*
G36*
X161173889Y-69241460D02*
X161416996Y-67862729D01*
X163780535Y-68279484D01*
X163537428Y-69658215D01*
X161173889Y-69241460D01*
X161173889Y-69241460D01*
G37*
G36*
X145543782Y-56011732D02*
X146756218Y-55311732D01*
X147956218Y-57390192D01*
X146743782Y-58090192D01*
X145543782Y-56011732D01*
X145543782Y-56011732D01*
G37*
G36*
X147043782Y-58609808D02*
X148256218Y-57909808D01*
X149456218Y-59988268D01*
X148243782Y-60688268D01*
X147043782Y-58609808D01*
X147043782Y-58609808D01*
G37*
G36*
X141756218Y-60688268D02*
X140543782Y-59988268D01*
X141743782Y-57909808D01*
X142956218Y-58609808D01*
X141756218Y-60688268D01*
X141756218Y-60688268D01*
G37*
G36*
X143256218Y-58090192D02*
X142043782Y-57390192D01*
X143243782Y-55311732D01*
X144456218Y-56011732D01*
X143256218Y-58090192D01*
X143256218Y-58090192D01*
G37*
G36*
X126462572Y-69658215D02*
X126219465Y-68279484D01*
X128583004Y-67862729D01*
X128826111Y-69241460D01*
X126462572Y-69658215D01*
X126462572Y-69658215D01*
G37*
G36*
X129416996Y-69137271D02*
X129173889Y-67758540D01*
X131537428Y-67341785D01*
X131780535Y-68720516D01*
X129416996Y-69137271D01*
X129416996Y-69137271D01*
G37*
D15*
X133000000Y-73200000D03*
X133000000Y-74800000D03*
X142500000Y-62200000D03*
X142500000Y-63800000D03*
X145000000Y-62200000D03*
X145000000Y-63800000D03*
X147500000Y-62200000D03*
X147500000Y-63800000D03*
D10*
G36*
X156597777Y-63732920D02*
X155416007Y-63524542D01*
X155624385Y-62342772D01*
X156806155Y-62551150D01*
X156597777Y-63732920D01*
X156597777Y-63732920D01*
G37*
G36*
X156875615Y-62157228D02*
X155693845Y-61948850D01*
X155902223Y-60767080D01*
X157083993Y-60975458D01*
X156875615Y-62157228D01*
X156875615Y-62157228D01*
G37*
G36*
X154087565Y-61719615D02*
X153487565Y-60680385D01*
X154526795Y-60080385D01*
X155126795Y-61119615D01*
X154087565Y-61719615D01*
X154087565Y-61719615D01*
G37*
G36*
X155473205Y-60919615D02*
X154873205Y-59880385D01*
X155912435Y-59280385D01*
X156512435Y-60319615D01*
X155473205Y-60919615D01*
X155473205Y-60919615D01*
G37*
G36*
X136512435Y-60680385D02*
X135912435Y-61719615D01*
X134873205Y-61119615D01*
X135473205Y-60080385D01*
X136512435Y-60680385D01*
X136512435Y-60680385D01*
G37*
G36*
X135126795Y-59880385D02*
X134526795Y-60919615D01*
X133487565Y-60319615D01*
X134087565Y-59280385D01*
X135126795Y-59880385D01*
X135126795Y-59880385D01*
G37*
G36*
X134583993Y-63524542D02*
X133402223Y-63732920D01*
X133193845Y-62551150D01*
X134375615Y-62342772D01*
X134583993Y-63524542D01*
X134583993Y-63524542D01*
G37*
G36*
X134306155Y-61948850D02*
X133124385Y-62157228D01*
X132916007Y-60975458D01*
X134097777Y-60767080D01*
X134306155Y-61948850D01*
X134306155Y-61948850D01*
G37*
D19*
X142750000Y-98250000D03*
X144250000Y-98250000D03*
X145750000Y-98250000D03*
X147250000Y-98250000D03*
D20*
X150250000Y-114000000D03*
X148750000Y-114000000D03*
X147250000Y-114000000D03*
X145750000Y-114000000D03*
X159250000Y-114000000D03*
X157750000Y-114000000D03*
X156250000Y-114000000D03*
X154750000Y-114000000D03*
D10*
G36*
X155159774Y-66102782D02*
X155507071Y-64133167D01*
X156639600Y-64332862D01*
X156292303Y-66302477D01*
X155159774Y-66102782D01*
X155159774Y-66102782D01*
G37*
G36*
X158360400Y-66667138D02*
X158707697Y-64697523D01*
X159840226Y-64897218D01*
X159492929Y-66866833D01*
X158360400Y-66667138D01*
X158360400Y-66667138D01*
G37*
G36*
X149533975Y-59094744D02*
X151266025Y-58094744D01*
X151841025Y-59090674D01*
X150108975Y-60090674D01*
X149533975Y-59094744D01*
X149533975Y-59094744D01*
G37*
G36*
X151158975Y-61909326D02*
X152891025Y-60909326D01*
X153466025Y-61905256D01*
X151733975Y-62905256D01*
X151158975Y-61909326D01*
X151158975Y-61909326D01*
G37*
G36*
X138266025Y-62905256D02*
X136533975Y-61905256D01*
X137108975Y-60909326D01*
X138841025Y-61909326D01*
X138266025Y-62905256D01*
X138266025Y-62905256D01*
G37*
G36*
X139891025Y-60090674D02*
X138158975Y-59090674D01*
X138733975Y-58094744D01*
X140466025Y-59094744D01*
X139891025Y-60090674D01*
X139891025Y-60090674D01*
G37*
G36*
X130507071Y-66866833D02*
X130159774Y-64897218D01*
X131292303Y-64697523D01*
X131639600Y-66667138D01*
X130507071Y-66866833D01*
X130507071Y-66866833D01*
G37*
G36*
X133707697Y-66302477D02*
X133360400Y-64332862D01*
X134492929Y-64133167D01*
X134840226Y-66102782D01*
X133707697Y-66302477D01*
X133707697Y-66302477D01*
G37*
D21*
X154200000Y-98250000D03*
X153300000Y-98250000D03*
X161450000Y-96250000D03*
X160550000Y-96250000D03*
D22*
X131000000Y-73250000D03*
X131000000Y-74750000D03*
D23*
X134750000Y-76750000D03*
X136250000Y-76750000D03*
D22*
X139750000Y-63000000D03*
X139750000Y-64500000D03*
X127500000Y-71250000D03*
X127500000Y-72750000D03*
X145000000Y-60750000D03*
X145000000Y-59250000D03*
D23*
X149500000Y-64000000D03*
X151000000Y-64000000D03*
D24*
X145250000Y-68200000D03*
X145250000Y-67300000D03*
X143750000Y-68200000D03*
X143750000Y-67300000D03*
D21*
X142950000Y-70750000D03*
X142050000Y-70750000D03*
D24*
X142250000Y-68200000D03*
X142250000Y-67300000D03*
X154050000Y-70845000D03*
X154050000Y-72115000D03*
X154050000Y-73385000D03*
X154050000Y-74655000D03*
X159450000Y-74655000D03*
X159450000Y-73385000D03*
X159450000Y-72115000D03*
X159450000Y-70845000D03*
D25*
X156750000Y-72750000D03*
D26*
X131200000Y-95850000D03*
X131200000Y-96500000D03*
X131200000Y-97150000D03*
X133300000Y-97150000D03*
X133300000Y-96500000D03*
X133300000Y-95850000D03*
D27*
X132250000Y-96900000D03*
X132250000Y-96100000D03*
D28*
X156650000Y-96300000D03*
X156650000Y-97250000D03*
X156650000Y-98200000D03*
X158850000Y-98200000D03*
X158850000Y-96300000D03*
D29*
X143750000Y-96200000D03*
X144250000Y-96200000D03*
X144750000Y-96200000D03*
X145250000Y-96200000D03*
X145750000Y-96200000D03*
X146250000Y-96200000D03*
X146250000Y-94300000D03*
X145750000Y-94300000D03*
X145250000Y-94300000D03*
X144750000Y-94300000D03*
X144250000Y-94300000D03*
X143750000Y-94300000D03*
D30*
X145000000Y-95250000D03*
D31*
X134800000Y-72750000D03*
X134800000Y-73250000D03*
X134800000Y-73750000D03*
X134800000Y-74250000D03*
X136700000Y-74250000D03*
X136700000Y-73750000D03*
X136700000Y-73250000D03*
X136700000Y-72750000D03*
D32*
X135750000Y-73500000D03*
D33*
X151000000Y-70100000D03*
X150500000Y-70100000D03*
X150000000Y-70100000D03*
X149500000Y-70100000D03*
X149000000Y-70100000D03*
X148500000Y-70100000D03*
X148000000Y-70100000D03*
X147500000Y-70100000D03*
X147000000Y-70100000D03*
X146500000Y-70100000D03*
X146000000Y-70100000D03*
X145500000Y-70100000D03*
D34*
X144850000Y-70750000D03*
X144850000Y-71250000D03*
X144850000Y-71750000D03*
X144850000Y-72250000D03*
X144850000Y-72750000D03*
X144850000Y-73250000D03*
X144850000Y-73750000D03*
X144850000Y-74250000D03*
X144850000Y-74750000D03*
X144850000Y-75250000D03*
X144850000Y-75750000D03*
X144850000Y-76250000D03*
D33*
X145500000Y-76900000D03*
X146000000Y-76900000D03*
X146500000Y-76900000D03*
X147000000Y-76900000D03*
X147500000Y-76900000D03*
X148000000Y-76900000D03*
X148500000Y-76900000D03*
X149000000Y-76900000D03*
X149500000Y-76900000D03*
X150000000Y-76900000D03*
X150500000Y-76900000D03*
X151000000Y-76900000D03*
D34*
X151650000Y-76250000D03*
X151650000Y-75750000D03*
X151650000Y-75250000D03*
X151650000Y-74750000D03*
X151650000Y-74250000D03*
X151650000Y-73750000D03*
X151650000Y-73250000D03*
X151650000Y-72750000D03*
X151650000Y-72250000D03*
X151650000Y-71750000D03*
X151650000Y-71250000D03*
X151650000Y-70750000D03*
D35*
X146318750Y-75431250D03*
X147606250Y-75431250D03*
X148893750Y-75431250D03*
X150181250Y-75431250D03*
X146318750Y-74143750D03*
X147606250Y-74143750D03*
X148893750Y-74143750D03*
X150181250Y-74143750D03*
X146318750Y-72856250D03*
X147606250Y-72856250D03*
X148893750Y-72856250D03*
X150181250Y-72856250D03*
X146318750Y-71568750D03*
X147606250Y-71568750D03*
X148893750Y-71568750D03*
X150181250Y-71568750D03*
D36*
X151250000Y-66850000D03*
X151250000Y-68150000D03*
X153250000Y-67500000D03*
D37*
X143500000Y-81500000D03*
X143500000Y-81900000D03*
X143500000Y-82300000D03*
X143500000Y-82700000D03*
X143500000Y-83100000D03*
X143500000Y-83500000D03*
D38*
X144000000Y-84000000D03*
X144400000Y-84000000D03*
X144800000Y-84000000D03*
X145200000Y-84000000D03*
X145600000Y-84000000D03*
X146000000Y-84000000D03*
D37*
X146500000Y-83500000D03*
X146500000Y-83100000D03*
X146500000Y-82700000D03*
X146500000Y-82300000D03*
X146500000Y-81900000D03*
X146500000Y-81500000D03*
D38*
X146000000Y-81000000D03*
X145600000Y-81000000D03*
X145200000Y-81000000D03*
X144800000Y-81000000D03*
X144400000Y-81000000D03*
X144000000Y-81000000D03*
D39*
X145435000Y-82900000D03*
X145435000Y-82100000D03*
X144565000Y-82900000D03*
X144565000Y-82100000D03*
D40*
X149475000Y-110050000D03*
X149475000Y-109550000D03*
X149475000Y-109050000D03*
X149475000Y-108550000D03*
D41*
X148750000Y-107825000D03*
X148250000Y-107825000D03*
X147750000Y-107825000D03*
X147250000Y-107825000D03*
D40*
X146525000Y-108550000D03*
X146525000Y-109050000D03*
X146525000Y-109550000D03*
X146525000Y-110050000D03*
D41*
X147250000Y-110775000D03*
X147750000Y-110775000D03*
X148250000Y-110775000D03*
X148750000Y-110775000D03*
D42*
X147550000Y-108850000D03*
X147550000Y-109750000D03*
X148450000Y-108850000D03*
X148450000Y-109750000D03*
D40*
X158475000Y-110050000D03*
X158475000Y-109550000D03*
X158475000Y-109050000D03*
X158475000Y-108550000D03*
D41*
X157750000Y-107825000D03*
X157250000Y-107825000D03*
X156750000Y-107825000D03*
X156250000Y-107825000D03*
D40*
X155525000Y-108550000D03*
X155525000Y-109050000D03*
X155525000Y-109550000D03*
X155525000Y-110050000D03*
D41*
X156250000Y-110775000D03*
X156750000Y-110775000D03*
X157250000Y-110775000D03*
X157750000Y-110775000D03*
D42*
X156550000Y-108850000D03*
X156550000Y-109750000D03*
X157450000Y-108850000D03*
X157450000Y-109750000D03*
D43*
X144250000Y-102500000D03*
X145750000Y-102500000D03*
D44*
X138750000Y-80250000D03*
X138750000Y-81750000D03*
X138750000Y-83250000D03*
X138750000Y-84750000D03*
D45*
X132950000Y-82500000D03*
X132950000Y-89500000D03*
D44*
X151250000Y-84750000D03*
X151250000Y-83250000D03*
X151250000Y-81750000D03*
X151250000Y-80250000D03*
D45*
X157050000Y-82500000D03*
X157050000Y-89500000D03*
D46*
X134750000Y-100000000D03*
X137750000Y-100000000D03*
X139250000Y-100000000D03*
D47*
X135500000Y-101750000D03*
X138500000Y-101750000D03*
D27*
X140650000Y-100700000D03*
X140650000Y-102800000D03*
X133350000Y-100700000D03*
X133350000Y-102800000D03*
M02*
