M48
;DRILL file {KiCad 4.0.7} date 10/02/18 15:19:24
;FORMAT={-:-/ absolute / metric / decimal}
FMAT,2
METRIC,TZ
T1C0.400
T2C0.600
T3C0.650
T4C0.700
%
G90
G05
M71
T1
X128.75Y-72.75
X129.5Y-74.25
X130.25Y-97.25
X130.5Y-63.75
X130.75Y-72.25
X131.Y-77.
X131.Y-98.25
X132.Y-72.43
X132.25Y-96.1
X132.25Y-96.9
X133.Y-69.75
X134.Y-73.75
X134.25Y-97.75
X135.Y-63.75
X135.22Y-68.051
X135.461Y-74.955
X135.574Y-77.949
X135.648Y-64.476
X135.75Y-62.25
X135.75Y-73.5
X136.725Y-75.57
X136.75Y-72.205
X138.049Y-68.453
X138.287Y-75.939
X138.75Y-94.5
X138.75Y-95.25
X138.75Y-96.
X140.388Y-60.462
X140.5Y-84.75
X140.75Y-58.25
X141.07Y-99.205
X141.25Y-70.75
X141.695Y-69.888
X142.Y-78.5
X142.109Y-69.05
X142.75Y-80.75
X143.Y-73.
X143.732Y-80.59
X143.819Y-85.264
X144.Y-75.75
X144.Y-79.5
X144.315Y-95.25
X144.525Y-69.364
X144.565Y-82.1
X144.565Y-82.9
X144.885Y-77.635
X145.435Y-82.1
X145.435Y-82.9
X145.596Y-68.685
X145.685Y-95.25
X145.75Y-110.
X145.75Y-112.
X145.775Y-66.75
X145.857Y-80.107
X146.Y-67.75
X146.034Y-93.295
X146.319Y-71.569
X146.319Y-72.856
X146.319Y-74.144
X146.319Y-75.431
X146.5Y-79.5
X146.5Y-107.75
X146.525Y-85.5
X146.75Y-66.
X146.8Y-111.86
X147.Y-96.25
X147.045Y-78.25
X147.125Y-89.95
X147.125Y-90.75
X147.306Y-69.208
X147.5Y-79.25
X147.55Y-108.85
X147.55Y-109.75
X147.606Y-71.569
X147.606Y-72.856
X147.606Y-74.144
X147.606Y-75.431
X147.725Y-92.455
X148.25Y-69.088
X148.257Y-79.254
X148.45Y-108.85
X148.45Y-109.75
X148.595Y-83.42
X148.894Y-71.569
X148.894Y-72.856
X148.894Y-74.144
X148.894Y-75.431
X148.975Y-79.038
X149.439Y-67.125
X149.5Y-111.5
X149.51Y-80.51
X149.642Y-78.695
X149.686Y-68.175
X149.888Y-77.986
X150.181Y-71.569
X150.181Y-72.856
X150.181Y-74.144
X150.181Y-75.431
X150.45Y-68.175
X150.45Y-66.917
X150.5Y-93.5
X150.5Y-108.5
X150.5Y-112.25
X150.629Y-77.871
X150.705Y-92.5
X151.25Y-60.75
X151.677Y-77.334
X151.876Y-97.647
X152.Y-96.
X152.131Y-69.569
X152.198Y-76.79
X152.31Y-98.283
X152.591Y-74.531
X152.745Y-77.622
X152.77Y-73.803
X152.778Y-63.054
X152.791Y-73.053
X152.963Y-71.201
X153.173Y-80.475
X153.25Y-72.25
X153.27Y-76.762
X153.385Y-75.626
X153.606Y-58.928
X153.651Y-81.078
X153.925Y-69.202
X154.5Y-67.5
X154.725Y-98.966
X154.74Y-112.26
X154.75Y-63.
X154.75Y-110.
X155.135Y-75.615
X155.25Y-97.5
X155.5Y-107.95
X155.5Y-111.5
X156.55Y-108.85
X156.55Y-109.75
X156.75Y-72.75
X157.45Y-108.85
X157.45Y-109.75
X157.45Y-109.75
X158.5Y-111.725
X158.725Y-108.413
X159.423Y-64.3
X159.75Y-112.25
X160.25Y-64.25
X162.25Y-69.75
X162.25Y-96.25
X162.75Y-98.25
X163.5Y-71.25
T2
X144.25Y-102.5
X145.75Y-102.5
T3
X151.19Y-102.5
X152.46Y-102.5
X153.73Y-102.5
X155.Y-102.5
X156.27Y-102.5
X157.54Y-102.5
X158.81Y-102.5
T4
X142.75Y-98.25
X144.25Y-98.25
X145.75Y-98.25
X147.25Y-98.25
T0
M30
