G04 #@! TF.FileFunction,Copper,L2,Bot,Signal*
%FSLAX46Y46*%
G04 Gerber Fmt 4.6, Leading zero omitted, Abs format (unit mm)*
G04 Created by KiCad (PCBNEW 4.0.7) date 10/02/18 15:19:20*
%MOMM*%
%LPD*%
G01*
G04 APERTURE LIST*
%ADD10C,0.100000*%
%ADD11C,0.200000*%
%ADD12O,0.800000X1.200000*%
%ADD13O,0.900000X1.300000*%
%ADD14C,1.000000*%
%ADD15R,0.500000X0.900000*%
%ADD16C,0.600000*%
%ADD17C,0.150000*%
%ADD18C,0.250000*%
%ADD19C,0.300000*%
%ADD20C,0.500000*%
G04 APERTURE END LIST*
D10*
D11*
X127464286Y-96988095D02*
X126797619Y-96988095D01*
X127845238Y-97226191D02*
X127130952Y-97464286D01*
X127130952Y-96845238D01*
X127797619Y-95988095D02*
X127797619Y-96464286D01*
X127321429Y-96511905D01*
X127369048Y-96464286D01*
X127416667Y-96369048D01*
X127416667Y-96130952D01*
X127369048Y-96035714D01*
X127321429Y-95988095D01*
X127226190Y-95940476D01*
X126988095Y-95940476D01*
X126892857Y-95988095D01*
X126845238Y-96035714D01*
X126797619Y-96130952D01*
X126797619Y-96369048D01*
X126845238Y-96464286D01*
X126892857Y-96511905D01*
X127797619Y-95607143D02*
X127797619Y-94940476D01*
X126797619Y-95369048D01*
X127797619Y-94369048D02*
X127797619Y-94273809D01*
X127750000Y-94178571D01*
X127702381Y-94130952D01*
X127607143Y-94083333D01*
X127416667Y-94035714D01*
X127178571Y-94035714D01*
X126988095Y-94083333D01*
X126892857Y-94130952D01*
X126845238Y-94178571D01*
X126797619Y-94273809D01*
X126797619Y-94369048D01*
X126845238Y-94464286D01*
X126892857Y-94511905D01*
X126988095Y-94559524D01*
X127178571Y-94607143D01*
X127416667Y-94607143D01*
X127607143Y-94559524D01*
X127702381Y-94511905D01*
X127750000Y-94464286D01*
X127797619Y-94369048D01*
D12*
X158810000Y-102500000D03*
X157540000Y-102500000D03*
X156270000Y-102500000D03*
X155000000Y-102500000D03*
X153730000Y-102500000D03*
X152460000Y-102500000D03*
X151190000Y-102500000D03*
D13*
X142750000Y-98250000D03*
X144250000Y-98250000D03*
X145750000Y-98250000D03*
X147250000Y-98250000D03*
D14*
X144250000Y-102500000D03*
X145750000Y-102500000D03*
D15*
X157250000Y-63000000D03*
X158750000Y-63000000D03*
X150250000Y-58000000D03*
X151750000Y-58000000D03*
X139750000Y-58000000D03*
X138250000Y-58000000D03*
X131250000Y-63000000D03*
X132750000Y-63000000D03*
D16*
X138049000Y-68453000D03*
X145774989Y-66750000D03*
X150628761Y-77871239D03*
X131000000Y-77000000D03*
X133000000Y-69750000D03*
X147000000Y-96250000D03*
X145685000Y-95250000D03*
X144315000Y-95250000D03*
X146524946Y-85500000D03*
X135460755Y-74954990D03*
X152962852Y-71201165D03*
X153250000Y-72250000D03*
X148594628Y-83419696D03*
X144000000Y-75750000D03*
X147305562Y-69208444D03*
X150181250Y-71568750D03*
X150181250Y-72856250D03*
X150181250Y-74143750D03*
X150181250Y-75431250D03*
X148893750Y-75431250D03*
X148893750Y-74143750D03*
X148893750Y-72856250D03*
X148893750Y-71568750D03*
X147606250Y-71568750D03*
X147606250Y-72856250D03*
X147606250Y-74143750D03*
X147606250Y-75431250D03*
X146318750Y-75431250D03*
X146318750Y-74143750D03*
X146318750Y-72856250D03*
X146318750Y-71568750D03*
X149510381Y-80510381D03*
X144000000Y-79500000D03*
X145857080Y-80107080D03*
X138750000Y-96000000D03*
X138750000Y-94500000D03*
X138750000Y-95250000D03*
X136750000Y-72204990D03*
X135574014Y-77949159D03*
X152744957Y-77622114D03*
X155135381Y-75614619D03*
X162750000Y-98250000D03*
X162250000Y-96250000D03*
X155250000Y-97500000D03*
X130250000Y-97250000D03*
X131000000Y-98250000D03*
X132250000Y-96100000D03*
X132250000Y-96900000D03*
X134250000Y-97750000D03*
X142000000Y-78500000D03*
X140500000Y-84750000D03*
X163500000Y-71250000D03*
X156750000Y-72750000D03*
X141250000Y-70750000D03*
X135750000Y-73500000D03*
X129500000Y-74250000D03*
X128750000Y-72750000D03*
X154500000Y-67500000D03*
X145435000Y-82100000D03*
X145435000Y-82900000D03*
X144565000Y-82100000D03*
X144565000Y-82900000D03*
X146750000Y-66000000D03*
X146000000Y-67750000D03*
X144885381Y-77635381D03*
X142750000Y-80750000D03*
X160250000Y-64250000D03*
X151250000Y-60750000D03*
X140750000Y-58250000D03*
X130500000Y-63750000D03*
X138287475Y-75939312D03*
X132000000Y-72430001D03*
X135220111Y-68050651D03*
X162250000Y-69750000D03*
X148250000Y-69088000D03*
X152000000Y-96000000D03*
X146800012Y-111860374D03*
X150500000Y-112250000D03*
X145750000Y-112000000D03*
X149500000Y-111500000D03*
X148450000Y-108850000D03*
X147550000Y-108850000D03*
X147550000Y-109750000D03*
X148450000Y-109750000D03*
X150500000Y-108500000D03*
X146500000Y-107750000D03*
X145750000Y-110000000D03*
X155500000Y-111500000D03*
X159750000Y-112250000D03*
X158500000Y-111724990D03*
X154740260Y-112259740D03*
X158724990Y-108412986D03*
X155500000Y-107950000D03*
X157450000Y-109750000D03*
X157450000Y-108850000D03*
X157450000Y-109750000D03*
X156550000Y-109750000D03*
X156550000Y-108850000D03*
X154750000Y-110000000D03*
X149887587Y-77986040D03*
X152309989Y-98283320D03*
X151676650Y-77334173D03*
X151876301Y-97647055D03*
X148256519Y-79254061D03*
X147124968Y-89950001D03*
X147124968Y-90750000D03*
X147500000Y-79250000D03*
X136724990Y-75570438D03*
X130750000Y-72250000D03*
X152131104Y-69568801D03*
X134000000Y-73750000D03*
X149438722Y-67124968D03*
X149685617Y-68174979D03*
X150449988Y-68174979D03*
X150449995Y-66917191D03*
X154750000Y-63000000D03*
X153606500Y-58928000D03*
X135750000Y-62250000D03*
X135000000Y-63750000D03*
X152769848Y-73803025D03*
X153651019Y-81078219D03*
X152790669Y-73053302D03*
X153172783Y-80474722D03*
X140388288Y-60462204D03*
X141695388Y-69887870D03*
X142109009Y-69049970D03*
X135648417Y-64476403D03*
X145596429Y-68684978D03*
X159422948Y-64299775D03*
X144525010Y-69364339D03*
X152777700Y-63054261D03*
X154724990Y-98966271D03*
X141070079Y-99204931D03*
X152591232Y-74531457D03*
X153384979Y-75625898D03*
X153924981Y-69202139D03*
X143000000Y-73000000D03*
X152197501Y-76789842D03*
X150500000Y-93500000D03*
X148974702Y-79037891D03*
X146034363Y-93295010D03*
X153269967Y-76762491D03*
X150704990Y-92500000D03*
X149641501Y-78694531D03*
X147724990Y-92454990D03*
X143819364Y-85264206D03*
X146500000Y-79500000D03*
X143731515Y-80589969D03*
X147045010Y-78250000D03*
D17*
X147000000Y-111000000D02*
X147250000Y-111000000D01*
X151474939Y-70093811D02*
X150000000Y-71568750D01*
X152449939Y-70093811D02*
X151474939Y-70093811D01*
X151714459Y-69208444D02*
X151879103Y-69043800D01*
X152656105Y-69316800D02*
X152656106Y-69887644D01*
X152383105Y-69043800D02*
X152656105Y-69316800D01*
X151879103Y-69043800D02*
X152383105Y-69043800D01*
X148862158Y-69208444D02*
X151714459Y-69208444D01*
X148487601Y-69583001D02*
X148862158Y-69208444D01*
X147680119Y-69583001D02*
X148487601Y-69583001D01*
X152656106Y-69887644D02*
X152449939Y-70093811D01*
X147305562Y-69208444D02*
X147680119Y-69583001D01*
X138295010Y-67795010D02*
X138295010Y-68206990D01*
X138295010Y-68206990D02*
X138049000Y-68453000D01*
X129250000Y-71500000D02*
X133000000Y-71500000D01*
X133000000Y-71500000D02*
X136045010Y-71500000D01*
X133000000Y-69750000D02*
X133000000Y-71500000D01*
X128750000Y-72750000D02*
X128750000Y-72000000D01*
X128750000Y-72000000D02*
X129250000Y-71500000D01*
X136045010Y-71500000D02*
X136450001Y-71904991D01*
X136450001Y-71904991D02*
X136750000Y-72204990D01*
X145474990Y-67049999D02*
X145774989Y-66750000D01*
X141774989Y-70750000D02*
X145474990Y-67049999D01*
X141250000Y-70750000D02*
X141774989Y-70750000D01*
X152744957Y-77622114D02*
X152744957Y-76560296D01*
X151615911Y-75431250D02*
X150975000Y-75431250D01*
X150181250Y-77423728D02*
X150328762Y-77571240D01*
X150181250Y-75431250D02*
X150181250Y-77423728D01*
X152744957Y-76560296D02*
X151615911Y-75431250D01*
X150328762Y-77571240D02*
X150628761Y-77871239D01*
X150975000Y-75431250D02*
X150181250Y-75431250D01*
X148250000Y-94250000D02*
X139750000Y-94250000D01*
X139750000Y-94250000D02*
X138750000Y-95250000D01*
X148250000Y-84188588D02*
X148250000Y-94250000D01*
X146224947Y-85799999D02*
X146524946Y-85500000D01*
X142500000Y-86750000D02*
X145274946Y-86750000D01*
X148594628Y-83419696D02*
X148594628Y-83843960D01*
X146524946Y-85075736D02*
X146524946Y-85500000D01*
X145857080Y-80107080D02*
X146524946Y-80774946D01*
X145274946Y-86750000D02*
X146224947Y-85799999D01*
X146524946Y-80774946D02*
X146524946Y-85075736D01*
X148594628Y-83843960D02*
X148250000Y-84188588D01*
X155250000Y-99750000D02*
X155250000Y-97500000D01*
X154500000Y-100500000D02*
X155250000Y-99750000D01*
X152440000Y-100500000D02*
X154500000Y-100500000D01*
X151190000Y-102500000D02*
X151190000Y-101750000D01*
X151190000Y-101750000D02*
X152440000Y-100500000D01*
X144250000Y-102500000D02*
X144250000Y-101792894D01*
X144250000Y-101792894D02*
X144267895Y-101774999D01*
X144267895Y-101774999D02*
X149914999Y-101774999D01*
X149914999Y-101774999D02*
X150640000Y-102500000D01*
X150640000Y-102500000D02*
X151190000Y-102500000D01*
X138750000Y-96000000D02*
X138750000Y-90500000D01*
X138750000Y-90500000D02*
X142500000Y-86750000D01*
X143122672Y-102000001D02*
X143750001Y-102000001D01*
X140250000Y-98500000D02*
X140250000Y-99127329D01*
X140250000Y-99127329D02*
X143122672Y-102000001D01*
X143750001Y-102000001D02*
X144250000Y-102500000D01*
X138750000Y-97000000D02*
X140250000Y-98500000D01*
X138750000Y-96000000D02*
X138750000Y-97000000D01*
X134250000Y-97750000D02*
X136000000Y-96000000D01*
X136000000Y-96000000D02*
X138750000Y-96000000D01*
X132250000Y-96100000D02*
X132600000Y-96100000D01*
X132600000Y-96100000D02*
X133950001Y-97450001D01*
X133950001Y-97450001D02*
X134250000Y-97750000D01*
X132250000Y-96900000D02*
X132250000Y-96100000D01*
X130250000Y-97250000D02*
X131900000Y-97250000D01*
X131900000Y-97250000D02*
X132250000Y-96900000D01*
X142000000Y-78500000D02*
X136124855Y-78500000D01*
X136124855Y-78500000D02*
X135574014Y-77949159D01*
X144000000Y-75750000D02*
X146000000Y-75750000D01*
X146000000Y-75750000D02*
X146318750Y-75431250D01*
X135750000Y-73500000D02*
X141750000Y-73500000D01*
X141750000Y-73500000D02*
X144000000Y-75750000D01*
X137250000Y-75000000D02*
X137250000Y-76273173D01*
X137250000Y-76273173D02*
X135574014Y-77949159D01*
X137204990Y-74954990D02*
X137250000Y-75000000D01*
X135460755Y-74954990D02*
X137204990Y-74954990D01*
X129500000Y-74250000D02*
X129799999Y-73950001D01*
X131574856Y-73950001D02*
X135274015Y-77649160D01*
X135274015Y-77649160D02*
X135574014Y-77949159D01*
X129799999Y-73950001D02*
X131574856Y-73950001D01*
X128750000Y-72750000D02*
X128750000Y-73500000D01*
X128750000Y-73500000D02*
X129500000Y-74250000D01*
X141250000Y-70750000D02*
X138204990Y-70750000D01*
X138204990Y-70750000D02*
X136750000Y-72204990D01*
X138295010Y-67795010D02*
X141250000Y-70750000D01*
X150181250Y-71568750D02*
X150000000Y-71568750D01*
X150000000Y-71568750D02*
X148893750Y-71568750D01*
X147305562Y-69208444D02*
X147305562Y-68481124D01*
X149536686Y-66250000D02*
X153250000Y-66250000D01*
X147305562Y-68481124D02*
X149536686Y-66250000D01*
X154200001Y-67200001D02*
X154500000Y-67500000D01*
X153250000Y-66250000D02*
X154200001Y-67200001D01*
X156750000Y-72750000D02*
X156750000Y-71600000D01*
X156750000Y-71600000D02*
X154749999Y-69599999D01*
X154749999Y-69599999D02*
X154749998Y-68602354D01*
X154749998Y-68602354D02*
X154500000Y-68352356D01*
X154500000Y-68352356D02*
X154500000Y-67500000D01*
X156750000Y-72750000D02*
X162000000Y-72750000D01*
X162000000Y-72750000D02*
X163500000Y-71250000D01*
X149510381Y-80510381D02*
X149510381Y-82503943D01*
X149510381Y-82503943D02*
X148594628Y-83419696D01*
X145435000Y-82900000D02*
X145435000Y-80529160D01*
X145435000Y-80529160D02*
X145857080Y-80107080D01*
X147606250Y-71568750D02*
X146318750Y-71568750D01*
X148893750Y-71568750D02*
X147606250Y-71568750D01*
X150181250Y-72856250D02*
X150181250Y-71568750D01*
X150181250Y-72856250D02*
X148893750Y-72856250D01*
X147606250Y-72856250D02*
X148893750Y-72856250D01*
X146318750Y-72856250D02*
X147606250Y-72856250D01*
X146318750Y-74143750D02*
X147606250Y-74143750D01*
X148893750Y-74143750D02*
X147606250Y-74143750D01*
X150181250Y-74143750D02*
X148893750Y-74143750D01*
X150181250Y-75431250D02*
X150181250Y-74143750D01*
X150181250Y-75431250D02*
X148893750Y-75431250D01*
X147606250Y-75431250D02*
X148893750Y-75431250D01*
X146318750Y-75431250D02*
X147606250Y-75431250D01*
X143250000Y-78500000D02*
X146318750Y-75431250D01*
X142000000Y-78500000D02*
X143250000Y-78500000D01*
X140500000Y-84750000D02*
X142000000Y-83250000D01*
X142000000Y-83250000D02*
X142000000Y-78500000D01*
X142500000Y-86750000D02*
X140500000Y-84750000D01*
X146299999Y-66450001D02*
X146750000Y-66000000D01*
X146000000Y-67750000D02*
X146299999Y-67450001D01*
X146299999Y-67450001D02*
X146299999Y-66450001D01*
X142750000Y-79770762D02*
X144585382Y-77935380D01*
X142750000Y-80750000D02*
X142750000Y-79770762D01*
X144585382Y-77935380D02*
X144885381Y-77635381D01*
X157250000Y-63000000D02*
X157650000Y-63000000D01*
X157650000Y-63000000D02*
X158345001Y-63695001D01*
X158345001Y-63695001D02*
X159695001Y-63695001D01*
X159695001Y-63695001D02*
X160250000Y-64250000D01*
X150250000Y-58000000D02*
X150250000Y-59750000D01*
X150250000Y-59750000D02*
X151250000Y-60750000D01*
X139750000Y-58000000D02*
X140500000Y-58000000D01*
X140500000Y-58000000D02*
X140750000Y-58250000D01*
X131250000Y-63000000D02*
X130500000Y-63750000D01*
D18*
X137604979Y-74359989D02*
X138587474Y-75342484D01*
X132000000Y-72854265D02*
X133505724Y-74359989D01*
X132000000Y-72430001D02*
X132000000Y-72854265D01*
X133505724Y-74359989D02*
X137604979Y-74359989D01*
X138587474Y-75342484D02*
X138587474Y-75639313D01*
X138587474Y-75639313D02*
X138287475Y-75939312D01*
D19*
X151750000Y-56750000D02*
X138223998Y-56750000D01*
X134920112Y-67750652D02*
X135220111Y-68050651D01*
X131870002Y-64700542D02*
X134920112Y-67750652D01*
X131870002Y-60879998D02*
X131870002Y-64700542D01*
X138223998Y-56750000D02*
X137000000Y-57973998D01*
X153250000Y-58250000D02*
X151750000Y-56750000D01*
X155276002Y-58250000D02*
X153250000Y-58250000D01*
X162250000Y-69750000D02*
X162250000Y-65223998D01*
X137000000Y-57973998D02*
X134776002Y-57973998D01*
X162250000Y-65223998D02*
X155276002Y-58250000D01*
X134776002Y-57973998D02*
X131870002Y-60879998D01*
D17*
X148250000Y-69088000D02*
X148549999Y-68788001D01*
X148549999Y-68788001D02*
X151046937Y-68788001D01*
X151046937Y-68788001D02*
X151204217Y-68630721D01*
X154449989Y-93550011D02*
X154449989Y-68726623D01*
X154449989Y-68726623D02*
X154354087Y-68630721D01*
X152000000Y-96000000D02*
X154449989Y-93550011D01*
X154354087Y-68630721D02*
X151204217Y-68630721D01*
X147189638Y-112250000D02*
X147100011Y-112160373D01*
X150500000Y-112250000D02*
X147189638Y-112250000D01*
X147100011Y-112160373D02*
X146800012Y-111860374D01*
X145750000Y-112000000D02*
X145750000Y-110000000D01*
X149500000Y-111500000D02*
X149500000Y-110200000D01*
X149500000Y-110200000D02*
X149050000Y-109750000D01*
X149050000Y-109750000D02*
X148450000Y-109750000D01*
X148450000Y-108850000D02*
X150150000Y-108850000D01*
X150150000Y-108850000D02*
X150500000Y-108500000D01*
X147550000Y-108850000D02*
X147550000Y-108250000D01*
X147550000Y-108250000D02*
X147050000Y-107750000D01*
X147050000Y-107750000D02*
X146924264Y-107750000D01*
X146924264Y-107750000D02*
X146500000Y-107750000D01*
X148450000Y-108850000D02*
X147550000Y-108850000D01*
X148450000Y-109750000D02*
X148450000Y-108850000D01*
X147550000Y-109750000D02*
X148450000Y-109750000D01*
X145750000Y-110000000D02*
X147300000Y-110000000D01*
X147300000Y-110000000D02*
X147550000Y-109750000D01*
X156250000Y-112250000D02*
X155500000Y-111500000D01*
X159750000Y-112250000D02*
X156250000Y-112250000D01*
X154750000Y-110000000D02*
X154750000Y-112250000D01*
X154750000Y-112250000D02*
X154740260Y-112259740D01*
X158799999Y-111424991D02*
X158500000Y-111724990D01*
X159078762Y-108671238D02*
X159078762Y-111146228D01*
X159078762Y-111146228D02*
X158799999Y-111424991D01*
X159037015Y-108712985D02*
X159024989Y-108712985D01*
X159078762Y-108671238D02*
X159037015Y-108712985D01*
X159024989Y-108712985D02*
X158724990Y-108412986D01*
X157450000Y-108850000D02*
X158900000Y-108850000D01*
X158900000Y-108850000D02*
X159078762Y-108671238D01*
X156550000Y-108850000D02*
X156550000Y-108250000D01*
X156550000Y-108250000D02*
X156250000Y-107950000D01*
X156250000Y-107950000D02*
X155924264Y-107950000D01*
X155924264Y-107950000D02*
X155500000Y-107950000D01*
X154750000Y-110000000D02*
X156300000Y-110000000D01*
X156300000Y-110000000D02*
X156550000Y-109750000D01*
X157450000Y-108850000D02*
X156550000Y-108850000D01*
X157450000Y-109750000D02*
X157450000Y-108850000D01*
X156550000Y-109750000D02*
X157450000Y-109750000D01*
X150187586Y-91305676D02*
X150187586Y-78286039D01*
X149519967Y-96519967D02*
X149519967Y-94154312D01*
X149519967Y-94154312D02*
X149550011Y-94124268D01*
X149550011Y-94124268D02*
X149550011Y-91943251D01*
X152309989Y-98283320D02*
X151283320Y-98283320D01*
X151283320Y-98283320D02*
X149519967Y-96519967D01*
X149550011Y-91943251D02*
X150187586Y-91305676D01*
X150187586Y-78286039D02*
X149887587Y-77986040D01*
X156270000Y-102300000D02*
X156270000Y-102500000D01*
X151039967Y-78395120D02*
X151676650Y-77758437D01*
X149839978Y-95500000D02*
X149850022Y-95489956D01*
X149850022Y-95489956D02*
X149850022Y-92095803D01*
X151676650Y-77758437D02*
X151676650Y-77334173D01*
X151039967Y-90905858D02*
X151039967Y-78395120D01*
X149850022Y-92095803D02*
X151039967Y-90905858D01*
X149839978Y-95610732D02*
X151576302Y-97347056D01*
X151576302Y-97347056D02*
X151876301Y-97647055D01*
X149839978Y-95500000D02*
X149839978Y-95610732D01*
X149839978Y-95500000D02*
X149839978Y-95589978D01*
X147349967Y-89725002D02*
X147349967Y-80160613D01*
X147349967Y-80160613D02*
X147956520Y-79554060D01*
X147124968Y-89950001D02*
X147349967Y-89725002D01*
X147956520Y-79554060D02*
X148256519Y-79254061D01*
X146599966Y-89697999D02*
X146599966Y-90224998D01*
X146824969Y-90450001D02*
X147124968Y-90750000D01*
X147500000Y-79250000D02*
X147049956Y-79700044D01*
X147049956Y-89248009D02*
X146599966Y-89697999D01*
X146599966Y-90224998D02*
X146824969Y-90450001D01*
X147049956Y-79700044D02*
X147049956Y-89248009D01*
X136300726Y-75570438D02*
X136724990Y-75570438D01*
X133830286Y-75570438D02*
X136300726Y-75570438D01*
X130689849Y-72430001D02*
X133830286Y-75570438D01*
X151275072Y-69869399D02*
X151575670Y-69568801D01*
X141500000Y-72750000D02*
X143449989Y-70800011D01*
X135000000Y-72750000D02*
X141500000Y-72750000D01*
X147062797Y-69869399D02*
X151275072Y-69869399D01*
X151706840Y-69568801D02*
X152131104Y-69568801D01*
X146743397Y-69549999D02*
X147062797Y-69869399D01*
X143449989Y-70800011D02*
X144124268Y-70800011D01*
X144124268Y-70800011D02*
X145374280Y-69549999D01*
X145374280Y-69549999D02*
X146743397Y-69549999D01*
X151575670Y-69568801D02*
X151706840Y-69568801D01*
X134000000Y-73750000D02*
X135000000Y-72750000D01*
X149685617Y-68174979D02*
X149685617Y-67371863D01*
X149663721Y-67349967D02*
X149438722Y-67124968D01*
X149685617Y-67371863D02*
X149663721Y-67349967D01*
X150449995Y-68174972D02*
X150449988Y-68174979D01*
X150449995Y-66917191D02*
X150449995Y-68174972D01*
X158750000Y-63000000D02*
X158350000Y-63000000D01*
X158350000Y-63000000D02*
X157654999Y-62304999D01*
X157654999Y-62304999D02*
X155445001Y-62304999D01*
X155445001Y-62304999D02*
X154750000Y-63000000D01*
X153606500Y-58928000D02*
X153306501Y-58628001D01*
X153306501Y-58628001D02*
X152778001Y-58628001D01*
X152778001Y-58628001D02*
X152150000Y-58000000D01*
X152150000Y-58000000D02*
X151750000Y-58000000D01*
X138250000Y-58000000D02*
X138250000Y-59750000D01*
X138250000Y-59750000D02*
X135750000Y-62250000D01*
X132750000Y-63000000D02*
X134250000Y-63000000D01*
X134250000Y-63000000D02*
X135000000Y-63750000D01*
X153069847Y-74103024D02*
X152769848Y-73803025D01*
X154094980Y-75128157D02*
X153069847Y-74103024D01*
X153651019Y-81078219D02*
X154094980Y-80634258D01*
X154094980Y-80634258D02*
X154094980Y-75128157D01*
X153794969Y-79852536D02*
X153794969Y-76510489D01*
X153172783Y-80474722D02*
X153794969Y-79852536D01*
X153489479Y-76204999D02*
X153157476Y-76204999D01*
X153794969Y-76510489D02*
X153489479Y-76204999D01*
X152000000Y-75047523D02*
X152000000Y-73419707D01*
X153157476Y-76204999D02*
X152000000Y-75047523D01*
X152000000Y-73419707D02*
X152366405Y-73053302D01*
X152366405Y-73053302D02*
X152790669Y-73053302D01*
X140388288Y-60462204D02*
X140388288Y-60886468D01*
X140388288Y-60886468D02*
X142949989Y-63448169D01*
X142949989Y-63448169D02*
X142949989Y-68951469D01*
X142949989Y-68951469D02*
X142313587Y-69587871D01*
X142313587Y-69587871D02*
X141995387Y-69587871D01*
X141995387Y-69587871D02*
X141695388Y-69887870D01*
X137535442Y-64476403D02*
X141809010Y-68749971D01*
X141809010Y-68749971D02*
X142109009Y-69049970D01*
X135648417Y-64476403D02*
X137535442Y-64476403D01*
X146525001Y-68180670D02*
X146020693Y-68684978D01*
X151734096Y-62547311D02*
X146525001Y-67756406D01*
X152577605Y-62547311D02*
X151734096Y-62547311D01*
X152711294Y-62413622D02*
X152577605Y-62547311D01*
X153163622Y-62413622D02*
X152711294Y-62413622D01*
X155049775Y-64299775D02*
X153163622Y-62413622D01*
X146020693Y-68684978D02*
X145596429Y-68684978D01*
X159422948Y-64299775D02*
X155049775Y-64299775D01*
X146525001Y-67756406D02*
X146525001Y-68180670D01*
X152777700Y-63054261D02*
X152243177Y-63054261D01*
X146070225Y-69227213D02*
X144662136Y-69227213D01*
X152243177Y-63054261D02*
X146070225Y-69227213D01*
X144662136Y-69227213D02*
X144525010Y-69364339D01*
D20*
X141070079Y-99204931D02*
X141370078Y-99504930D01*
X154186331Y-99504930D02*
X154424991Y-99266270D01*
X154424991Y-99266270D02*
X154724990Y-98966271D01*
X141370078Y-99504930D02*
X154186331Y-99504930D01*
D17*
X152591232Y-74832151D02*
X152591232Y-74531457D01*
X153384979Y-75625898D02*
X152591232Y-74832151D01*
X153501375Y-70050009D02*
X153924981Y-69626403D01*
X153077111Y-70050009D02*
X153501375Y-70050009D01*
X153924981Y-69626403D02*
X153924981Y-69202139D01*
X150726251Y-72400869D02*
X153077111Y-70050009D01*
X150726251Y-73117851D02*
X150726251Y-72400869D01*
X150442851Y-73401251D02*
X150726251Y-73117851D01*
X143401251Y-73401251D02*
X150442851Y-73401251D01*
X143000000Y-73000000D02*
X143401251Y-73401251D01*
X152201651Y-77218256D02*
X152197501Y-77214106D01*
X150159989Y-93159989D02*
X150159989Y-92238399D01*
X152201651Y-77586174D02*
X152201651Y-77218256D01*
X152197501Y-82397373D02*
X152197501Y-77590324D01*
X151359978Y-83234896D02*
X152197501Y-82397373D01*
X151359978Y-91038410D02*
X151359978Y-83234896D01*
X150159989Y-92238399D02*
X151359978Y-91038410D01*
X150500000Y-93500000D02*
X150159989Y-93159989D01*
X152197501Y-77590324D02*
X152201651Y-77586174D01*
X152197501Y-77214106D02*
X152197501Y-76789842D01*
X147649978Y-83090857D02*
X148320009Y-82420826D01*
X148320009Y-80149265D02*
X148974702Y-79494572D01*
X148974702Y-79462155D02*
X148974702Y-79037891D01*
X147649978Y-91679395D02*
X147649978Y-83090857D01*
X146034363Y-93295010D02*
X147649978Y-91679395D01*
X148974702Y-79494572D02*
X148974702Y-79462155D01*
X148320009Y-82420826D02*
X148320009Y-80149265D01*
X150704990Y-92500000D02*
X152627782Y-90577208D01*
X152627782Y-90577208D02*
X152627782Y-78764530D01*
X152627782Y-78764530D02*
X153269967Y-78122345D01*
X153269967Y-78122345D02*
X153269967Y-77186755D01*
X153269967Y-77186755D02*
X153269967Y-76762491D01*
X148799999Y-82393399D02*
X148799999Y-80393399D01*
X147724990Y-92030726D02*
X147949989Y-91805727D01*
X149641501Y-79118795D02*
X149641501Y-78694531D01*
X149641501Y-79551897D02*
X149641501Y-79118795D01*
X148799999Y-80393399D02*
X149641501Y-79551897D01*
X147949989Y-83243409D02*
X148799999Y-82393399D01*
X147949989Y-91805727D02*
X147949989Y-83243409D01*
X147724990Y-92454990D02*
X147724990Y-92030726D01*
X146500000Y-79500000D02*
X145628088Y-79500000D01*
X145628088Y-79500000D02*
X143819364Y-81308724D01*
X143819364Y-84839942D02*
X143819364Y-85264206D01*
X143819364Y-81308724D02*
X143819364Y-84839942D01*
X147045010Y-78250000D02*
X146071484Y-78250000D01*
X146071484Y-78250000D02*
X144031514Y-80289970D01*
X144031514Y-80289970D02*
X143731515Y-80589969D01*
D11*
G36*
X151607727Y-57244123D02*
X151500000Y-57244123D01*
X151388827Y-57265042D01*
X151286721Y-57330745D01*
X151218222Y-57430997D01*
X151194123Y-57550000D01*
X151194123Y-58450000D01*
X151215042Y-58561173D01*
X151280745Y-58663279D01*
X151380997Y-58731778D01*
X151500000Y-58755877D01*
X152000000Y-58755877D01*
X152111173Y-58734958D01*
X152213279Y-58669255D01*
X152243985Y-58624315D01*
X152512836Y-58893166D01*
X152634495Y-58974456D01*
X152778001Y-59003001D01*
X153006434Y-59003001D01*
X153006396Y-59046824D01*
X153097548Y-59267429D01*
X153266183Y-59436359D01*
X153486629Y-59527896D01*
X153725324Y-59528104D01*
X153945929Y-59436952D01*
X154114859Y-59268317D01*
X154206396Y-59047871D01*
X154206604Y-58809176D01*
X154161493Y-58700000D01*
X155089606Y-58700000D01*
X158633729Y-62244123D01*
X158500000Y-62244123D01*
X158388827Y-62265042D01*
X158286721Y-62330745D01*
X158256015Y-62375685D01*
X157920164Y-62039834D01*
X157798506Y-61958544D01*
X157654999Y-61929999D01*
X155445001Y-61929999D01*
X155301494Y-61958544D01*
X155179836Y-62039834D01*
X154819610Y-62400060D01*
X154631176Y-62399896D01*
X154410571Y-62491048D01*
X154241641Y-62659683D01*
X154153142Y-62872812D01*
X153428787Y-62148457D01*
X153307129Y-62067167D01*
X153163622Y-62038622D01*
X152711294Y-62038622D01*
X152567788Y-62067167D01*
X152446129Y-62148457D01*
X152422275Y-62172311D01*
X151734096Y-62172311D01*
X151590590Y-62200856D01*
X151468931Y-62282146D01*
X146674999Y-67076078D01*
X146674999Y-66605331D01*
X146680390Y-66599940D01*
X146868824Y-66600104D01*
X147089429Y-66508952D01*
X147258359Y-66340317D01*
X147349896Y-66119871D01*
X147350104Y-65881176D01*
X147258952Y-65660571D01*
X147090317Y-65491641D01*
X146869871Y-65400104D01*
X146631176Y-65399896D01*
X146410571Y-65491048D01*
X146241641Y-65659683D01*
X146150104Y-65880129D01*
X146149939Y-66069731D01*
X146034834Y-66184836D01*
X145953544Y-66306494D01*
X145953544Y-66306495D01*
X145924999Y-66450001D01*
X145924999Y-67149934D01*
X145881176Y-67149896D01*
X145660571Y-67241048D01*
X145491641Y-67409683D01*
X145400104Y-67630129D01*
X145399896Y-67868824D01*
X145489170Y-68084884D01*
X145477605Y-68084874D01*
X145257000Y-68176026D01*
X145088070Y-68344661D01*
X144996533Y-68565107D01*
X144996325Y-68803802D01*
X145016328Y-68852213D01*
X144856255Y-68852213D01*
X144644881Y-68764443D01*
X144406186Y-68764235D01*
X144185581Y-68855387D01*
X144016651Y-69024022D01*
X143925114Y-69244468D01*
X143924906Y-69483163D01*
X144016058Y-69703768D01*
X144184693Y-69872698D01*
X144405139Y-69964235D01*
X144429693Y-69964256D01*
X143968938Y-70425011D01*
X143449989Y-70425011D01*
X143306482Y-70453556D01*
X143184824Y-70534846D01*
X141344670Y-72375000D01*
X135000000Y-72375000D01*
X134856494Y-72403545D01*
X134734835Y-72484835D01*
X134069610Y-73150060D01*
X133881176Y-73149896D01*
X133660571Y-73241048D01*
X133491641Y-73409683D01*
X133400104Y-73630129D01*
X133400084Y-73653308D01*
X132510922Y-72764146D01*
X132599896Y-72549872D01*
X132600104Y-72311177D01*
X132508952Y-72090572D01*
X132340317Y-71921642D01*
X132119871Y-71830105D01*
X131881176Y-71829897D01*
X131660571Y-71921049D01*
X131491641Y-72089684D01*
X131400104Y-72310130D01*
X131399896Y-72548825D01*
X131442773Y-72652595D01*
X131294194Y-72504016D01*
X131349896Y-72369871D01*
X131350104Y-72131176D01*
X131258952Y-71910571D01*
X131090317Y-71741641D01*
X130869871Y-71650104D01*
X130631176Y-71649896D01*
X130410571Y-71741048D01*
X130241641Y-71909683D01*
X130150104Y-72130129D01*
X130149896Y-72368824D01*
X130241048Y-72589429D01*
X130409683Y-72758359D01*
X130543402Y-72813884D01*
X133565121Y-75835603D01*
X133686780Y-75916893D01*
X133830286Y-75945438D01*
X136251547Y-75945438D01*
X136384673Y-76078797D01*
X136605119Y-76170334D01*
X136843814Y-76170542D01*
X137064419Y-76079390D01*
X137233349Y-75910755D01*
X137324886Y-75690309D01*
X137325094Y-75451614D01*
X137233942Y-75231009D01*
X137065307Y-75062079D01*
X136844861Y-74970542D01*
X136606166Y-74970334D01*
X136385561Y-75061486D01*
X136251375Y-75195438D01*
X133985616Y-75195438D01*
X133575167Y-74784989D01*
X137428939Y-74784989D01*
X138037392Y-75393443D01*
X137948046Y-75430360D01*
X137779116Y-75598995D01*
X137687579Y-75819441D01*
X137687371Y-76058136D01*
X137778523Y-76278741D01*
X137947158Y-76447671D01*
X138167604Y-76539208D01*
X138406299Y-76539416D01*
X138626904Y-76448264D01*
X138795834Y-76279629D01*
X138887371Y-76059183D01*
X138887475Y-75940353D01*
X138887995Y-75939833D01*
X138980123Y-75801954D01*
X139012474Y-75639313D01*
X139012474Y-75342484D01*
X138980123Y-75179844D01*
X138980123Y-75179843D01*
X138887995Y-75041964D01*
X137905499Y-74059469D01*
X137767620Y-73967340D01*
X137728290Y-73959517D01*
X137604979Y-73934989D01*
X134572857Y-73934989D01*
X134599896Y-73869871D01*
X134600061Y-73680269D01*
X135155330Y-73125000D01*
X141500000Y-73125000D01*
X141643507Y-73096455D01*
X141765165Y-73015165D01*
X143605319Y-71175011D01*
X144124268Y-71175011D01*
X144267775Y-71146466D01*
X144389433Y-71065176D01*
X145529610Y-69924999D01*
X146588067Y-69924999D01*
X146797632Y-70134564D01*
X146919291Y-70215854D01*
X147062797Y-70244399D01*
X151275072Y-70244399D01*
X151418579Y-70215854D01*
X151540237Y-70134564D01*
X151694298Y-69980503D01*
X151790787Y-70077160D01*
X152011233Y-70168697D01*
X152249928Y-70168905D01*
X152470533Y-70077753D01*
X152639463Y-69909118D01*
X152731000Y-69688672D01*
X152731208Y-69449977D01*
X152640056Y-69229372D01*
X152471421Y-69060442D01*
X152339638Y-69005721D01*
X153356870Y-69005721D01*
X153325085Y-69082268D01*
X153324877Y-69320963D01*
X153416029Y-69541568D01*
X153447730Y-69573324D01*
X153346045Y-69675009D01*
X153077111Y-69675009D01*
X152933604Y-69703554D01*
X152811946Y-69784844D01*
X150461086Y-72135704D01*
X150379796Y-72257362D01*
X150369300Y-72310130D01*
X150351251Y-72400869D01*
X150351251Y-72962521D01*
X150287521Y-73026251D01*
X143599978Y-73026251D01*
X143600104Y-72881176D01*
X143508952Y-72660571D01*
X143340317Y-72491641D01*
X143119871Y-72400104D01*
X142881176Y-72399896D01*
X142660571Y-72491048D01*
X142491641Y-72659683D01*
X142400104Y-72880129D01*
X142399896Y-73118824D01*
X142491048Y-73339429D01*
X142659683Y-73508359D01*
X142880129Y-73599896D01*
X143069731Y-73600061D01*
X143136086Y-73666416D01*
X143257745Y-73747706D01*
X143401251Y-73776251D01*
X150442851Y-73776251D01*
X150586358Y-73747706D01*
X150708016Y-73666416D01*
X150991416Y-73383016D01*
X151072706Y-73261358D01*
X151101251Y-73117851D01*
X151101251Y-72556199D01*
X153232441Y-70425009D01*
X153501375Y-70425009D01*
X153644882Y-70396464D01*
X153766540Y-70315174D01*
X154074989Y-70006725D01*
X154074989Y-74577836D01*
X153369788Y-73872635D01*
X153369952Y-73684201D01*
X153278800Y-73463596D01*
X153253908Y-73438660D01*
X153299028Y-73393619D01*
X153390565Y-73173173D01*
X153390773Y-72934478D01*
X153299621Y-72713873D01*
X153130986Y-72544943D01*
X152910540Y-72453406D01*
X152671845Y-72453198D01*
X152451240Y-72544350D01*
X152304773Y-72690561D01*
X152222898Y-72706847D01*
X152101240Y-72788137D01*
X151734835Y-73154542D01*
X151653545Y-73276200D01*
X151632298Y-73383016D01*
X151625000Y-73419707D01*
X151625000Y-75047523D01*
X151653545Y-75191030D01*
X151734835Y-75312688D01*
X152803001Y-76380854D01*
X152761608Y-76422174D01*
X152728114Y-76502837D01*
X152706453Y-76450413D01*
X152537818Y-76281483D01*
X152317372Y-76189946D01*
X152078677Y-76189738D01*
X151858072Y-76280890D01*
X151689142Y-76449525D01*
X151597605Y-76669971D01*
X151597549Y-76734104D01*
X151557826Y-76734069D01*
X151337221Y-76825221D01*
X151168291Y-76993856D01*
X151076754Y-77214302D01*
X151076546Y-77452997D01*
X151167698Y-77673602D01*
X151199399Y-77705358D01*
X150774802Y-78129955D01*
X150693512Y-78251613D01*
X150678821Y-78325469D01*
X150664967Y-78395120D01*
X150664967Y-90750528D01*
X150562586Y-90852909D01*
X150562586Y-78286039D01*
X150534041Y-78142533D01*
X150487512Y-78072897D01*
X150487691Y-77867216D01*
X150396539Y-77646611D01*
X150227904Y-77477681D01*
X150007458Y-77386144D01*
X149768763Y-77385936D01*
X149548158Y-77477088D01*
X149379228Y-77645723D01*
X149287691Y-77866169D01*
X149287483Y-78104864D01*
X149318098Y-78178957D01*
X149302072Y-78185579D01*
X149133142Y-78354214D01*
X149097797Y-78439334D01*
X149094573Y-78437995D01*
X148855878Y-78437787D01*
X148635273Y-78528939D01*
X148470628Y-78693296D01*
X148376390Y-78654165D01*
X148137695Y-78653957D01*
X147917090Y-78745109D01*
X147880370Y-78781764D01*
X147840317Y-78741641D01*
X147619871Y-78650104D01*
X147493588Y-78649994D01*
X147553369Y-78590317D01*
X147644906Y-78369871D01*
X147645114Y-78131176D01*
X147553962Y-77910571D01*
X147385327Y-77741641D01*
X147164881Y-77650104D01*
X146926186Y-77649896D01*
X146705581Y-77741048D01*
X146571395Y-77875000D01*
X146071484Y-77875000D01*
X145927977Y-77903545D01*
X145806319Y-77984835D01*
X143801125Y-79990029D01*
X143612691Y-79989865D01*
X143392086Y-80081017D01*
X143223156Y-80249652D01*
X143186482Y-80337974D01*
X143125000Y-80276385D01*
X143125000Y-79926092D01*
X144815771Y-78235321D01*
X145004205Y-78235485D01*
X145224810Y-78144333D01*
X145393740Y-77975698D01*
X145485277Y-77755252D01*
X145485485Y-77516557D01*
X145394333Y-77295952D01*
X145225698Y-77127022D01*
X145005252Y-77035485D01*
X144766557Y-77035277D01*
X144545952Y-77126429D01*
X144377022Y-77295064D01*
X144285485Y-77515510D01*
X144285320Y-77705112D01*
X142484835Y-79505597D01*
X142403545Y-79627255D01*
X142403545Y-79627256D01*
X142375000Y-79770762D01*
X142375000Y-80276557D01*
X142241641Y-80409683D01*
X142150104Y-80630129D01*
X142149896Y-80868824D01*
X142241048Y-81089429D01*
X142409683Y-81258359D01*
X142630129Y-81349896D01*
X142868824Y-81350104D01*
X143089429Y-81258952D01*
X143258359Y-81090317D01*
X143295033Y-81001995D01*
X143391198Y-81098328D01*
X143490149Y-81139416D01*
X143472909Y-81165217D01*
X143461669Y-81221726D01*
X143444364Y-81308724D01*
X143444364Y-84790763D01*
X143311005Y-84923889D01*
X143219468Y-85144335D01*
X143219260Y-85383030D01*
X143310412Y-85603635D01*
X143479047Y-85772565D01*
X143699493Y-85864102D01*
X143938188Y-85864310D01*
X144158793Y-85773158D01*
X144327723Y-85604523D01*
X144419260Y-85384077D01*
X144419468Y-85145382D01*
X144328316Y-84924777D01*
X144194364Y-84790591D01*
X144194364Y-81464054D01*
X145783418Y-79875000D01*
X146026557Y-79875000D01*
X146159683Y-80008359D01*
X146380129Y-80099896D01*
X146618824Y-80100104D01*
X146674956Y-80076911D01*
X146674956Y-89092679D01*
X146334801Y-89432834D01*
X146253511Y-89554492D01*
X146253511Y-89554493D01*
X146224966Y-89697999D01*
X146224966Y-90224998D01*
X146253511Y-90368505D01*
X146334801Y-90490163D01*
X146525028Y-90680390D01*
X146524864Y-90868824D01*
X146616016Y-91089429D01*
X146784651Y-91258359D01*
X147005097Y-91349896D01*
X147243792Y-91350104D01*
X147274978Y-91337218D01*
X147274978Y-91524065D01*
X146103973Y-92695070D01*
X145915539Y-92694906D01*
X145694934Y-92786058D01*
X145526004Y-92954693D01*
X145434467Y-93175139D01*
X145434259Y-93413834D01*
X145525411Y-93634439D01*
X145694046Y-93803369D01*
X145914492Y-93894906D01*
X146153187Y-93895114D01*
X146373792Y-93803962D01*
X146542722Y-93635327D01*
X146634259Y-93414881D01*
X146634424Y-93225279D01*
X147171960Y-92687743D01*
X147216038Y-92794419D01*
X147384673Y-92963349D01*
X147605119Y-93054886D01*
X147843814Y-93055094D01*
X148064419Y-92963942D01*
X148233349Y-92795307D01*
X148324886Y-92574861D01*
X148325094Y-92336166D01*
X148233942Y-92115561D01*
X148202241Y-92083805D01*
X148215154Y-92070892D01*
X148296444Y-91949233D01*
X148324989Y-91805727D01*
X148324989Y-83398739D01*
X149065164Y-82658564D01*
X149146454Y-82536905D01*
X149174999Y-82393399D01*
X149174999Y-80548729D01*
X149812586Y-79911142D01*
X149812586Y-91150346D01*
X149284846Y-91678086D01*
X149203556Y-91799744D01*
X149183635Y-91899896D01*
X149175011Y-91943251D01*
X149175011Y-94008562D01*
X149173512Y-94010805D01*
X149173512Y-94010806D01*
X149144967Y-94154312D01*
X149144967Y-96519967D01*
X149173512Y-96663474D01*
X149254802Y-96785132D01*
X151018155Y-98548485D01*
X151139814Y-98629775D01*
X151283320Y-98658320D01*
X151836546Y-98658320D01*
X151969672Y-98791679D01*
X152190118Y-98883216D01*
X152428813Y-98883424D01*
X152649418Y-98792272D01*
X152818348Y-98623637D01*
X152909885Y-98403191D01*
X152910093Y-98164496D01*
X152818941Y-97943891D01*
X152650306Y-97774961D01*
X152476253Y-97702688D01*
X152476405Y-97528231D01*
X152385253Y-97307626D01*
X152216618Y-97138696D01*
X151996172Y-97047159D01*
X151806570Y-97046994D01*
X150225022Y-95465446D01*
X150225022Y-94035490D01*
X150380129Y-94099896D01*
X150618824Y-94100104D01*
X150839429Y-94008952D01*
X151008359Y-93840317D01*
X151099896Y-93619871D01*
X151100104Y-93381176D01*
X151008952Y-93160571D01*
X150912153Y-93063603D01*
X151044419Y-93008952D01*
X151213349Y-92840317D01*
X151304886Y-92619871D01*
X151305051Y-92430269D01*
X152892947Y-90842373D01*
X152974237Y-90720714D01*
X153002782Y-90577208D01*
X153002782Y-81053802D01*
X153051022Y-81073833D01*
X153050915Y-81197043D01*
X153142067Y-81417648D01*
X153310702Y-81586578D01*
X153531148Y-81678115D01*
X153769843Y-81678323D01*
X153990448Y-81587171D01*
X154074989Y-81502778D01*
X154074989Y-93394681D01*
X152069610Y-95400060D01*
X151881176Y-95399896D01*
X151660571Y-95491048D01*
X151491641Y-95659683D01*
X151400104Y-95880129D01*
X151399896Y-96118824D01*
X151491048Y-96339429D01*
X151659683Y-96508359D01*
X151880129Y-96599896D01*
X152118824Y-96600104D01*
X152339429Y-96508952D01*
X152508359Y-96340317D01*
X152599896Y-96119871D01*
X152600061Y-95930269D01*
X154715154Y-93815176D01*
X154796444Y-93693517D01*
X154824989Y-93550011D01*
X154824989Y-89757452D01*
X155749774Y-89757452D01*
X155947271Y-90235429D01*
X156312647Y-90601444D01*
X156790279Y-90799774D01*
X157307452Y-90800226D01*
X157785429Y-90602729D01*
X158151444Y-90237353D01*
X158349774Y-89759721D01*
X158350226Y-89242548D01*
X158152729Y-88764571D01*
X157787353Y-88398556D01*
X157309721Y-88200226D01*
X156792548Y-88199774D01*
X156314571Y-88397271D01*
X155948556Y-88762647D01*
X155750226Y-89240279D01*
X155749774Y-89757452D01*
X154824989Y-89757452D01*
X154824989Y-82757452D01*
X155749774Y-82757452D01*
X155947271Y-83235429D01*
X156312647Y-83601444D01*
X156790279Y-83799774D01*
X157307452Y-83800226D01*
X157785429Y-83602729D01*
X158151444Y-83237353D01*
X158349774Y-82759721D01*
X158350226Y-82242548D01*
X158152729Y-81764571D01*
X157787353Y-81398556D01*
X157309721Y-81200226D01*
X156792548Y-81199774D01*
X156314571Y-81397271D01*
X155948556Y-81762647D01*
X155750226Y-82240279D01*
X155749774Y-82757452D01*
X154824989Y-82757452D01*
X154824989Y-68726623D01*
X154800800Y-68605014D01*
X154796444Y-68583116D01*
X154715154Y-68461458D01*
X154619252Y-68365556D01*
X154497594Y-68284266D01*
X154354087Y-68255721D01*
X151204217Y-68255721D01*
X151060711Y-68284266D01*
X151049887Y-68291498D01*
X151050092Y-68056155D01*
X150958940Y-67835550D01*
X150824995Y-67701371D01*
X150824995Y-67390634D01*
X150958354Y-67257508D01*
X151049891Y-67037062D01*
X151050099Y-66798367D01*
X150958947Y-66577762D01*
X150790312Y-66408832D01*
X150569866Y-66317295D01*
X150331171Y-66317087D01*
X150110566Y-66408239D01*
X149941636Y-66576874D01*
X149882218Y-66719969D01*
X149779039Y-66616609D01*
X149558593Y-66525072D01*
X149319898Y-66524864D01*
X149290938Y-66536830D01*
X152351341Y-63476427D01*
X152437383Y-63562620D01*
X152657829Y-63654157D01*
X152896524Y-63654365D01*
X153117129Y-63563213D01*
X153286059Y-63394578D01*
X153377596Y-63174132D01*
X153377610Y-63157940D01*
X154784610Y-64564940D01*
X154906268Y-64646230D01*
X155049775Y-64674775D01*
X158949505Y-64674775D01*
X159082631Y-64808134D01*
X159303077Y-64899671D01*
X159541772Y-64899879D01*
X159762377Y-64808727D01*
X159861343Y-64709934D01*
X159909683Y-64758359D01*
X160130129Y-64849896D01*
X160368824Y-64850104D01*
X160589429Y-64758952D01*
X160758359Y-64590317D01*
X160823367Y-64433761D01*
X161598176Y-65208570D01*
X161800000Y-65510621D01*
X161800000Y-69351426D01*
X161741641Y-69409683D01*
X161650104Y-69630129D01*
X161649896Y-69868824D01*
X161741048Y-70089429D01*
X161909683Y-70258359D01*
X162130129Y-70349896D01*
X162368824Y-70350104D01*
X162589429Y-70258952D01*
X162758359Y-70090317D01*
X162849896Y-69869871D01*
X162850104Y-69631176D01*
X162758952Y-69410571D01*
X162700000Y-69351516D01*
X162700000Y-66857566D01*
X163124349Y-67492650D01*
X164543061Y-74625000D01*
X160000000Y-74625000D01*
X159856494Y-74653545D01*
X159734835Y-74734835D01*
X159653545Y-74856494D01*
X159625000Y-75000000D01*
X159625000Y-90000000D01*
X159653545Y-90143506D01*
X159734835Y-90265165D01*
X159856494Y-90346455D01*
X160000000Y-90375000D01*
X164625000Y-90375000D01*
X164625000Y-99844670D01*
X159734835Y-104734835D01*
X159653545Y-104856493D01*
X159644891Y-104900000D01*
X154355109Y-104900000D01*
X154346455Y-104856494D01*
X154265165Y-104734835D01*
X154143506Y-104653545D01*
X154000000Y-104625000D01*
X151000000Y-104625000D01*
X150856494Y-104653545D01*
X150734835Y-104734835D01*
X150653545Y-104856494D01*
X150644891Y-104900000D01*
X145355109Y-104900000D01*
X145346455Y-104856494D01*
X145265165Y-104734835D01*
X145143506Y-104653545D01*
X145000000Y-104625000D01*
X141375000Y-104625000D01*
X141375000Y-103500000D01*
X141346455Y-103356494D01*
X141265165Y-103234835D01*
X141143506Y-103153545D01*
X141000000Y-103125000D01*
X133000000Y-103125000D01*
X132856494Y-103153545D01*
X132734835Y-103234835D01*
X132653545Y-103356494D01*
X132625000Y-103500000D01*
X132625000Y-104625000D01*
X130155330Y-104625000D01*
X128557588Y-103027258D01*
X143729813Y-103027258D01*
X143774613Y-103162820D01*
X144064450Y-103294289D01*
X144382535Y-103304834D01*
X144680443Y-103192851D01*
X144725387Y-103162820D01*
X144770187Y-103027258D01*
X144250000Y-102507071D01*
X143729813Y-103027258D01*
X128557588Y-103027258D01*
X128162865Y-102632535D01*
X143445166Y-102632535D01*
X143557149Y-102930443D01*
X143587180Y-102975387D01*
X143722742Y-103020187D01*
X144242929Y-102500000D01*
X144257071Y-102500000D01*
X144777258Y-103020187D01*
X144912820Y-102975387D01*
X145000738Y-102781563D01*
X145071397Y-102952572D01*
X145296245Y-103177812D01*
X145590172Y-103299861D01*
X145908432Y-103300139D01*
X146202572Y-103178603D01*
X146427812Y-102953755D01*
X146549861Y-102659828D01*
X146549996Y-102505000D01*
X150490000Y-102505000D01*
X150490000Y-102705000D01*
X150545198Y-102972498D01*
X150698561Y-103198510D01*
X150926741Y-103348629D01*
X151075560Y-103390582D01*
X151185000Y-103324980D01*
X151185000Y-102505000D01*
X150490000Y-102505000D01*
X146549996Y-102505000D01*
X146550139Y-102341568D01*
X146530898Y-102295000D01*
X150490000Y-102295000D01*
X150490000Y-102495000D01*
X151185000Y-102495000D01*
X151185000Y-101675020D01*
X151195000Y-101675020D01*
X151195000Y-102495000D01*
X151215000Y-102495000D01*
X151215000Y-102505000D01*
X151195000Y-102505000D01*
X151195000Y-103324980D01*
X151304440Y-103390582D01*
X151453259Y-103348629D01*
X151681439Y-103198510D01*
X151819579Y-102994932D01*
X151965025Y-103212607D01*
X152192122Y-103364348D01*
X152460000Y-103417632D01*
X152727878Y-103364348D01*
X152954975Y-103212607D01*
X153095000Y-103003044D01*
X153235025Y-103212607D01*
X153462122Y-103364348D01*
X153730000Y-103417632D01*
X153997878Y-103364348D01*
X154224975Y-103212607D01*
X154365000Y-103003044D01*
X154505025Y-103212607D01*
X154732122Y-103364348D01*
X155000000Y-103417632D01*
X155267878Y-103364348D01*
X155494975Y-103212607D01*
X155635000Y-103003044D01*
X155775025Y-103212607D01*
X156002122Y-103364348D01*
X156270000Y-103417632D01*
X156537878Y-103364348D01*
X156764975Y-103212607D01*
X156905000Y-103003044D01*
X157045025Y-103212607D01*
X157272122Y-103364348D01*
X157540000Y-103417632D01*
X157807878Y-103364348D01*
X158034975Y-103212607D01*
X158175000Y-103003044D01*
X158315025Y-103212607D01*
X158542122Y-103364348D01*
X158810000Y-103417632D01*
X159077878Y-103364348D01*
X159304975Y-103212607D01*
X159456716Y-102985510D01*
X159510000Y-102717632D01*
X159510000Y-102282368D01*
X159456716Y-102014490D01*
X159304975Y-101787393D01*
X159077878Y-101635652D01*
X158810000Y-101582368D01*
X158542122Y-101635652D01*
X158315025Y-101787393D01*
X158175000Y-101996956D01*
X158034975Y-101787393D01*
X157807878Y-101635652D01*
X157540000Y-101582368D01*
X157272122Y-101635652D01*
X157045025Y-101787393D01*
X156905000Y-101996956D01*
X156764975Y-101787393D01*
X156537878Y-101635652D01*
X156270000Y-101582368D01*
X156002122Y-101635652D01*
X155775025Y-101787393D01*
X155635000Y-101996956D01*
X155494975Y-101787393D01*
X155267878Y-101635652D01*
X155000000Y-101582368D01*
X154732122Y-101635652D01*
X154505025Y-101787393D01*
X154365000Y-101996956D01*
X154224975Y-101787393D01*
X153997878Y-101635652D01*
X153730000Y-101582368D01*
X153462122Y-101635652D01*
X153235025Y-101787393D01*
X153095000Y-101996956D01*
X152954975Y-101787393D01*
X152727878Y-101635652D01*
X152460000Y-101582368D01*
X152192122Y-101635652D01*
X151965025Y-101787393D01*
X151819579Y-102005068D01*
X151681439Y-101801490D01*
X151453259Y-101651371D01*
X151304440Y-101609418D01*
X151195000Y-101675020D01*
X151185000Y-101675020D01*
X151075560Y-101609418D01*
X150926741Y-101651371D01*
X150698561Y-101801490D01*
X150545198Y-102027502D01*
X150490000Y-102295000D01*
X146530898Y-102295000D01*
X146428603Y-102047428D01*
X146203755Y-101822188D01*
X145909828Y-101700139D01*
X145591568Y-101699861D01*
X145297428Y-101821397D01*
X145072188Y-102046245D01*
X144999705Y-102220805D01*
X144942851Y-102069557D01*
X144912820Y-102024613D01*
X144777258Y-101979813D01*
X144257071Y-102500000D01*
X144242929Y-102500000D01*
X143722742Y-101979813D01*
X143587180Y-102024613D01*
X143455711Y-102314450D01*
X143445166Y-102632535D01*
X128162865Y-102632535D01*
X127428860Y-101898530D01*
X134749870Y-101898530D01*
X134863811Y-102174286D01*
X135074605Y-102385448D01*
X135350161Y-102499869D01*
X135648530Y-102500130D01*
X135924286Y-102386189D01*
X136135448Y-102175395D01*
X136249869Y-101899839D01*
X136249870Y-101898530D01*
X137749870Y-101898530D01*
X137863811Y-102174286D01*
X138074605Y-102385448D01*
X138350161Y-102499869D01*
X138648530Y-102500130D01*
X138924286Y-102386189D01*
X139135448Y-102175395D01*
X139219596Y-101972742D01*
X143729813Y-101972742D01*
X144250000Y-102492929D01*
X144770187Y-101972742D01*
X144725387Y-101837180D01*
X144435550Y-101705711D01*
X144117465Y-101695166D01*
X143819557Y-101807149D01*
X143774613Y-101837180D01*
X143729813Y-101972742D01*
X139219596Y-101972742D01*
X139249869Y-101899839D01*
X139250130Y-101601470D01*
X139136189Y-101325714D01*
X138925395Y-101114552D01*
X138649839Y-101000131D01*
X138351470Y-100999870D01*
X138075714Y-101113811D01*
X137864552Y-101324605D01*
X137750131Y-101600161D01*
X137749870Y-101898530D01*
X136249870Y-101898530D01*
X136250130Y-101601470D01*
X136136189Y-101325714D01*
X135925395Y-101114552D01*
X135649839Y-101000131D01*
X135351470Y-100999870D01*
X135075714Y-101113811D01*
X134864552Y-101324605D01*
X134750131Y-101600161D01*
X134749870Y-101898530D01*
X127428860Y-101898530D01*
X125375000Y-99844670D01*
X125375000Y-99323755D01*
X140469975Y-99323755D01*
X140561127Y-99544360D01*
X140729762Y-99713290D01*
X140850937Y-99763606D01*
X140981167Y-99893836D01*
X140981169Y-99893839D01*
X141140050Y-100000000D01*
X141159602Y-100013064D01*
X141370078Y-100054931D01*
X141370083Y-100054930D01*
X154186331Y-100054930D01*
X154396807Y-100013064D01*
X154575240Y-99893839D01*
X154944170Y-99524909D01*
X155064419Y-99475223D01*
X155233349Y-99306588D01*
X155324886Y-99086142D01*
X155325094Y-98847447D01*
X155233942Y-98626842D01*
X155065307Y-98457912D01*
X154844861Y-98366375D01*
X154606166Y-98366167D01*
X154385561Y-98457319D01*
X154216631Y-98625954D01*
X154166315Y-98747128D01*
X153958513Y-98954930D01*
X147809738Y-98954930D01*
X147942910Y-98755625D01*
X148000000Y-98468612D01*
X148000000Y-98031388D01*
X147942910Y-97744375D01*
X147780330Y-97501058D01*
X147537013Y-97338478D01*
X147250000Y-97281388D01*
X146962987Y-97338478D01*
X146719670Y-97501058D01*
X146557090Y-97744375D01*
X146500000Y-98031388D01*
X146442910Y-97744375D01*
X146280330Y-97501058D01*
X146037013Y-97338478D01*
X145750000Y-97281388D01*
X145462987Y-97338478D01*
X145219670Y-97501058D01*
X145057090Y-97744375D01*
X145000000Y-98031388D01*
X144942910Y-97744375D01*
X144780330Y-97501058D01*
X144537013Y-97338478D01*
X144250000Y-97281388D01*
X143962987Y-97338478D01*
X143719670Y-97501058D01*
X143557090Y-97744375D01*
X143500000Y-98031388D01*
X143442910Y-97744375D01*
X143280330Y-97501058D01*
X143037013Y-97338478D01*
X142750000Y-97281388D01*
X142462987Y-97338478D01*
X142219670Y-97501058D01*
X142057090Y-97744375D01*
X142000000Y-98031388D01*
X142000000Y-98468612D01*
X142057090Y-98755625D01*
X142190262Y-98954930D01*
X141615982Y-98954930D01*
X141579031Y-98865502D01*
X141410396Y-98696572D01*
X141189950Y-98605035D01*
X140951255Y-98604827D01*
X140730650Y-98695979D01*
X140561720Y-98864614D01*
X140470183Y-99085060D01*
X140469975Y-99323755D01*
X125375000Y-99323755D01*
X125375000Y-93545238D01*
X126050000Y-93545238D01*
X126050000Y-97954762D01*
X128350000Y-97954762D01*
X128350000Y-93545238D01*
X126050000Y-93545238D01*
X125375000Y-93545238D01*
X125375000Y-90375000D01*
X130000000Y-90375000D01*
X130143506Y-90346455D01*
X130265165Y-90265165D01*
X130346455Y-90143506D01*
X130375000Y-90000000D01*
X130375000Y-89757452D01*
X131649774Y-89757452D01*
X131847271Y-90235429D01*
X132212647Y-90601444D01*
X132690279Y-90799774D01*
X133207452Y-90800226D01*
X133685429Y-90602729D01*
X134051444Y-90237353D01*
X134249774Y-89759721D01*
X134250226Y-89242548D01*
X134052729Y-88764571D01*
X133687353Y-88398556D01*
X133209721Y-88200226D01*
X132692548Y-88199774D01*
X132214571Y-88397271D01*
X131848556Y-88762647D01*
X131650226Y-89240279D01*
X131649774Y-89757452D01*
X130375000Y-89757452D01*
X130375000Y-82757452D01*
X131649774Y-82757452D01*
X131847271Y-83235429D01*
X132212647Y-83601444D01*
X132690279Y-83799774D01*
X133207452Y-83800226D01*
X133685429Y-83602729D01*
X134051444Y-83237353D01*
X134249774Y-82759721D01*
X134250226Y-82242548D01*
X134052729Y-81764571D01*
X133687353Y-81398556D01*
X133209721Y-81200226D01*
X132692548Y-81199774D01*
X132214571Y-81397271D01*
X131848556Y-81762647D01*
X131650226Y-82240279D01*
X131649774Y-82757452D01*
X130375000Y-82757452D01*
X130375000Y-75000000D01*
X130346455Y-74856494D01*
X130265165Y-74734835D01*
X130143506Y-74653545D01*
X130000000Y-74625000D01*
X125456938Y-74625000D01*
X126875651Y-67492650D01*
X131128224Y-61128224D01*
X131420002Y-60933264D01*
X131420002Y-62244123D01*
X131000000Y-62244123D01*
X130888827Y-62265042D01*
X130786721Y-62330745D01*
X130718222Y-62430997D01*
X130694123Y-62550000D01*
X130694123Y-63025547D01*
X130569610Y-63150060D01*
X130381176Y-63149896D01*
X130160571Y-63241048D01*
X129991641Y-63409683D01*
X129900104Y-63630129D01*
X129899896Y-63868824D01*
X129991048Y-64089429D01*
X130159683Y-64258359D01*
X130380129Y-64349896D01*
X130618824Y-64350104D01*
X130839429Y-64258952D01*
X131008359Y-64090317D01*
X131099896Y-63869871D01*
X131099995Y-63755877D01*
X131420002Y-63755877D01*
X131420002Y-64700542D01*
X131454256Y-64872750D01*
X131529497Y-64985355D01*
X131551804Y-65018740D01*
X134620079Y-68087015D01*
X134620007Y-68169475D01*
X134711159Y-68390080D01*
X134879794Y-68559010D01*
X135100240Y-68650547D01*
X135338935Y-68650755D01*
X135559540Y-68559603D01*
X135728470Y-68390968D01*
X135820007Y-68170522D01*
X135820215Y-67931827D01*
X135729063Y-67711222D01*
X135560428Y-67542292D01*
X135339982Y-67450755D01*
X135256538Y-67450682D01*
X132320002Y-64514146D01*
X132320002Y-63690102D01*
X132380997Y-63731778D01*
X132500000Y-63755877D01*
X133000000Y-63755877D01*
X133111173Y-63734958D01*
X133213279Y-63669255D01*
X133281778Y-63569003D01*
X133305877Y-63450000D01*
X133305877Y-63375000D01*
X134094670Y-63375000D01*
X134400060Y-63680390D01*
X134399896Y-63868824D01*
X134491048Y-64089429D01*
X134659683Y-64258359D01*
X134880129Y-64349896D01*
X135051215Y-64350045D01*
X135048521Y-64356532D01*
X135048313Y-64595227D01*
X135139465Y-64815832D01*
X135308100Y-64984762D01*
X135528546Y-65076299D01*
X135767241Y-65076507D01*
X135987846Y-64985355D01*
X136122032Y-64851403D01*
X137380112Y-64851403D01*
X141509069Y-68980360D01*
X141508905Y-69168794D01*
X141560761Y-69294296D01*
X141355959Y-69378918D01*
X141187029Y-69547553D01*
X141095492Y-69767999D01*
X141095284Y-70006694D01*
X141186436Y-70227299D01*
X141355071Y-70396229D01*
X141575517Y-70487766D01*
X141814212Y-70487974D01*
X142034817Y-70396822D01*
X142203747Y-70228187D01*
X142295284Y-70007741D01*
X142295323Y-69962871D01*
X142313587Y-69962871D01*
X142457094Y-69934326D01*
X142578752Y-69853036D01*
X143215154Y-69216634D01*
X143296444Y-69094976D01*
X143324989Y-68951469D01*
X143324989Y-63448169D01*
X143314329Y-63394578D01*
X143296444Y-63304662D01*
X143215154Y-63183004D01*
X140865632Y-60833482D01*
X140896647Y-60802521D01*
X140988184Y-60582075D01*
X140988392Y-60343380D01*
X140897240Y-60122775D01*
X140728605Y-59953845D01*
X140508159Y-59862308D01*
X140269464Y-59862100D01*
X140048859Y-59953252D01*
X139879929Y-60121887D01*
X139788392Y-60342333D01*
X139788184Y-60581028D01*
X139879336Y-60801633D01*
X140025547Y-60948100D01*
X140041833Y-61029975D01*
X140123123Y-61151633D01*
X142574989Y-63603499D01*
X142574989Y-68667494D01*
X142449326Y-68541611D01*
X142228880Y-68450074D01*
X142039278Y-68449909D01*
X137800607Y-64211238D01*
X137678949Y-64129948D01*
X137535442Y-64101403D01*
X136121860Y-64101403D01*
X135988734Y-63968044D01*
X135768288Y-63876507D01*
X135597202Y-63876358D01*
X135599896Y-63869871D01*
X135600104Y-63631176D01*
X135508952Y-63410571D01*
X135340317Y-63241641D01*
X135119871Y-63150104D01*
X134930269Y-63149939D01*
X134515165Y-62734835D01*
X134393507Y-62653545D01*
X134250000Y-62625000D01*
X133305877Y-62625000D01*
X133305877Y-62550000D01*
X133284958Y-62438827D01*
X133219255Y-62336721D01*
X133119003Y-62268222D01*
X133000000Y-62244123D01*
X132500000Y-62244123D01*
X132388827Y-62265042D01*
X132320002Y-62309329D01*
X132320002Y-61066394D01*
X134533514Y-58852882D01*
X135175384Y-58423998D01*
X137000000Y-58423998D01*
X137172208Y-58389744D01*
X137318198Y-58292196D01*
X137694123Y-57916271D01*
X137694123Y-58450000D01*
X137715042Y-58561173D01*
X137780745Y-58663279D01*
X137875000Y-58727680D01*
X137875000Y-59594670D01*
X135819610Y-61650060D01*
X135631176Y-61649896D01*
X135410571Y-61741048D01*
X135241641Y-61909683D01*
X135150104Y-62130129D01*
X135149896Y-62368824D01*
X135241048Y-62589429D01*
X135409683Y-62758359D01*
X135630129Y-62849896D01*
X135868824Y-62850104D01*
X136089429Y-62758952D01*
X136258359Y-62590317D01*
X136349896Y-62369871D01*
X136350061Y-62180269D01*
X138515165Y-60015165D01*
X138596455Y-59893507D01*
X138625000Y-59750000D01*
X138625000Y-58726061D01*
X138713279Y-58669255D01*
X138781778Y-58569003D01*
X138805877Y-58450000D01*
X138805877Y-57550000D01*
X139194123Y-57550000D01*
X139194123Y-58450000D01*
X139215042Y-58561173D01*
X139280745Y-58663279D01*
X139380997Y-58731778D01*
X139500000Y-58755877D01*
X140000000Y-58755877D01*
X140111173Y-58734958D01*
X140213279Y-58669255D01*
X140256942Y-58605351D01*
X140409683Y-58758359D01*
X140630129Y-58849896D01*
X140868824Y-58850104D01*
X141089429Y-58758952D01*
X141258359Y-58590317D01*
X141349896Y-58369871D01*
X141350104Y-58131176D01*
X141258952Y-57910571D01*
X141090317Y-57741641D01*
X140869871Y-57650104D01*
X140631176Y-57649896D01*
X140629222Y-57650704D01*
X140500000Y-57625000D01*
X140305877Y-57625000D01*
X140305877Y-57550000D01*
X149694123Y-57550000D01*
X149694123Y-58450000D01*
X149715042Y-58561173D01*
X149780745Y-58663279D01*
X149875000Y-58727680D01*
X149875000Y-59750000D01*
X149903545Y-59893507D01*
X149984835Y-60015165D01*
X150650060Y-60680390D01*
X150649896Y-60868824D01*
X150741048Y-61089429D01*
X150909683Y-61258359D01*
X151130129Y-61349896D01*
X151368824Y-61350104D01*
X151589429Y-61258952D01*
X151758359Y-61090317D01*
X151849896Y-60869871D01*
X151850104Y-60631176D01*
X151758952Y-60410571D01*
X151590317Y-60241641D01*
X151369871Y-60150104D01*
X151180269Y-60149939D01*
X150625000Y-59594670D01*
X150625000Y-58726061D01*
X150713279Y-58669255D01*
X150781778Y-58569003D01*
X150805877Y-58450000D01*
X150805877Y-57550000D01*
X150784958Y-57438827D01*
X150719255Y-57336721D01*
X150619003Y-57268222D01*
X150500000Y-57244123D01*
X150000000Y-57244123D01*
X149888827Y-57265042D01*
X149786721Y-57330745D01*
X149718222Y-57430997D01*
X149694123Y-57550000D01*
X140305877Y-57550000D01*
X140284958Y-57438827D01*
X140219255Y-57336721D01*
X140119003Y-57268222D01*
X140000000Y-57244123D01*
X139500000Y-57244123D01*
X139388827Y-57265042D01*
X139286721Y-57330745D01*
X139218222Y-57430997D01*
X139194123Y-57550000D01*
X138805877Y-57550000D01*
X138784958Y-57438827D01*
X138719255Y-57336721D01*
X138619003Y-57268222D01*
X138500000Y-57244123D01*
X138366271Y-57244123D01*
X138410394Y-57200000D01*
X151563604Y-57200000D01*
X151607727Y-57244123D01*
X151607727Y-57244123D01*
G37*
X151607727Y-57244123D02*
X151500000Y-57244123D01*
X151388827Y-57265042D01*
X151286721Y-57330745D01*
X151218222Y-57430997D01*
X151194123Y-57550000D01*
X151194123Y-58450000D01*
X151215042Y-58561173D01*
X151280745Y-58663279D01*
X151380997Y-58731778D01*
X151500000Y-58755877D01*
X152000000Y-58755877D01*
X152111173Y-58734958D01*
X152213279Y-58669255D01*
X152243985Y-58624315D01*
X152512836Y-58893166D01*
X152634495Y-58974456D01*
X152778001Y-59003001D01*
X153006434Y-59003001D01*
X153006396Y-59046824D01*
X153097548Y-59267429D01*
X153266183Y-59436359D01*
X153486629Y-59527896D01*
X153725324Y-59528104D01*
X153945929Y-59436952D01*
X154114859Y-59268317D01*
X154206396Y-59047871D01*
X154206604Y-58809176D01*
X154161493Y-58700000D01*
X155089606Y-58700000D01*
X158633729Y-62244123D01*
X158500000Y-62244123D01*
X158388827Y-62265042D01*
X158286721Y-62330745D01*
X158256015Y-62375685D01*
X157920164Y-62039834D01*
X157798506Y-61958544D01*
X157654999Y-61929999D01*
X155445001Y-61929999D01*
X155301494Y-61958544D01*
X155179836Y-62039834D01*
X154819610Y-62400060D01*
X154631176Y-62399896D01*
X154410571Y-62491048D01*
X154241641Y-62659683D01*
X154153142Y-62872812D01*
X153428787Y-62148457D01*
X153307129Y-62067167D01*
X153163622Y-62038622D01*
X152711294Y-62038622D01*
X152567788Y-62067167D01*
X152446129Y-62148457D01*
X152422275Y-62172311D01*
X151734096Y-62172311D01*
X151590590Y-62200856D01*
X151468931Y-62282146D01*
X146674999Y-67076078D01*
X146674999Y-66605331D01*
X146680390Y-66599940D01*
X146868824Y-66600104D01*
X147089429Y-66508952D01*
X147258359Y-66340317D01*
X147349896Y-66119871D01*
X147350104Y-65881176D01*
X147258952Y-65660571D01*
X147090317Y-65491641D01*
X146869871Y-65400104D01*
X146631176Y-65399896D01*
X146410571Y-65491048D01*
X146241641Y-65659683D01*
X146150104Y-65880129D01*
X146149939Y-66069731D01*
X146034834Y-66184836D01*
X145953544Y-66306494D01*
X145953544Y-66306495D01*
X145924999Y-66450001D01*
X145924999Y-67149934D01*
X145881176Y-67149896D01*
X145660571Y-67241048D01*
X145491641Y-67409683D01*
X145400104Y-67630129D01*
X145399896Y-67868824D01*
X145489170Y-68084884D01*
X145477605Y-68084874D01*
X145257000Y-68176026D01*
X145088070Y-68344661D01*
X144996533Y-68565107D01*
X144996325Y-68803802D01*
X145016328Y-68852213D01*
X144856255Y-68852213D01*
X144644881Y-68764443D01*
X144406186Y-68764235D01*
X144185581Y-68855387D01*
X144016651Y-69024022D01*
X143925114Y-69244468D01*
X143924906Y-69483163D01*
X144016058Y-69703768D01*
X144184693Y-69872698D01*
X144405139Y-69964235D01*
X144429693Y-69964256D01*
X143968938Y-70425011D01*
X143449989Y-70425011D01*
X143306482Y-70453556D01*
X143184824Y-70534846D01*
X141344670Y-72375000D01*
X135000000Y-72375000D01*
X134856494Y-72403545D01*
X134734835Y-72484835D01*
X134069610Y-73150060D01*
X133881176Y-73149896D01*
X133660571Y-73241048D01*
X133491641Y-73409683D01*
X133400104Y-73630129D01*
X133400084Y-73653308D01*
X132510922Y-72764146D01*
X132599896Y-72549872D01*
X132600104Y-72311177D01*
X132508952Y-72090572D01*
X132340317Y-71921642D01*
X132119871Y-71830105D01*
X131881176Y-71829897D01*
X131660571Y-71921049D01*
X131491641Y-72089684D01*
X131400104Y-72310130D01*
X131399896Y-72548825D01*
X131442773Y-72652595D01*
X131294194Y-72504016D01*
X131349896Y-72369871D01*
X131350104Y-72131176D01*
X131258952Y-71910571D01*
X131090317Y-71741641D01*
X130869871Y-71650104D01*
X130631176Y-71649896D01*
X130410571Y-71741048D01*
X130241641Y-71909683D01*
X130150104Y-72130129D01*
X130149896Y-72368824D01*
X130241048Y-72589429D01*
X130409683Y-72758359D01*
X130543402Y-72813884D01*
X133565121Y-75835603D01*
X133686780Y-75916893D01*
X133830286Y-75945438D01*
X136251547Y-75945438D01*
X136384673Y-76078797D01*
X136605119Y-76170334D01*
X136843814Y-76170542D01*
X137064419Y-76079390D01*
X137233349Y-75910755D01*
X137324886Y-75690309D01*
X137325094Y-75451614D01*
X137233942Y-75231009D01*
X137065307Y-75062079D01*
X136844861Y-74970542D01*
X136606166Y-74970334D01*
X136385561Y-75061486D01*
X136251375Y-75195438D01*
X133985616Y-75195438D01*
X133575167Y-74784989D01*
X137428939Y-74784989D01*
X138037392Y-75393443D01*
X137948046Y-75430360D01*
X137779116Y-75598995D01*
X137687579Y-75819441D01*
X137687371Y-76058136D01*
X137778523Y-76278741D01*
X137947158Y-76447671D01*
X138167604Y-76539208D01*
X138406299Y-76539416D01*
X138626904Y-76448264D01*
X138795834Y-76279629D01*
X138887371Y-76059183D01*
X138887475Y-75940353D01*
X138887995Y-75939833D01*
X138980123Y-75801954D01*
X139012474Y-75639313D01*
X139012474Y-75342484D01*
X138980123Y-75179844D01*
X138980123Y-75179843D01*
X138887995Y-75041964D01*
X137905499Y-74059469D01*
X137767620Y-73967340D01*
X137728290Y-73959517D01*
X137604979Y-73934989D01*
X134572857Y-73934989D01*
X134599896Y-73869871D01*
X134600061Y-73680269D01*
X135155330Y-73125000D01*
X141500000Y-73125000D01*
X141643507Y-73096455D01*
X141765165Y-73015165D01*
X143605319Y-71175011D01*
X144124268Y-71175011D01*
X144267775Y-71146466D01*
X144389433Y-71065176D01*
X145529610Y-69924999D01*
X146588067Y-69924999D01*
X146797632Y-70134564D01*
X146919291Y-70215854D01*
X147062797Y-70244399D01*
X151275072Y-70244399D01*
X151418579Y-70215854D01*
X151540237Y-70134564D01*
X151694298Y-69980503D01*
X151790787Y-70077160D01*
X152011233Y-70168697D01*
X152249928Y-70168905D01*
X152470533Y-70077753D01*
X152639463Y-69909118D01*
X152731000Y-69688672D01*
X152731208Y-69449977D01*
X152640056Y-69229372D01*
X152471421Y-69060442D01*
X152339638Y-69005721D01*
X153356870Y-69005721D01*
X153325085Y-69082268D01*
X153324877Y-69320963D01*
X153416029Y-69541568D01*
X153447730Y-69573324D01*
X153346045Y-69675009D01*
X153077111Y-69675009D01*
X152933604Y-69703554D01*
X152811946Y-69784844D01*
X150461086Y-72135704D01*
X150379796Y-72257362D01*
X150369300Y-72310130D01*
X150351251Y-72400869D01*
X150351251Y-72962521D01*
X150287521Y-73026251D01*
X143599978Y-73026251D01*
X143600104Y-72881176D01*
X143508952Y-72660571D01*
X143340317Y-72491641D01*
X143119871Y-72400104D01*
X142881176Y-72399896D01*
X142660571Y-72491048D01*
X142491641Y-72659683D01*
X142400104Y-72880129D01*
X142399896Y-73118824D01*
X142491048Y-73339429D01*
X142659683Y-73508359D01*
X142880129Y-73599896D01*
X143069731Y-73600061D01*
X143136086Y-73666416D01*
X143257745Y-73747706D01*
X143401251Y-73776251D01*
X150442851Y-73776251D01*
X150586358Y-73747706D01*
X150708016Y-73666416D01*
X150991416Y-73383016D01*
X151072706Y-73261358D01*
X151101251Y-73117851D01*
X151101251Y-72556199D01*
X153232441Y-70425009D01*
X153501375Y-70425009D01*
X153644882Y-70396464D01*
X153766540Y-70315174D01*
X154074989Y-70006725D01*
X154074989Y-74577836D01*
X153369788Y-73872635D01*
X153369952Y-73684201D01*
X153278800Y-73463596D01*
X153253908Y-73438660D01*
X153299028Y-73393619D01*
X153390565Y-73173173D01*
X153390773Y-72934478D01*
X153299621Y-72713873D01*
X153130986Y-72544943D01*
X152910540Y-72453406D01*
X152671845Y-72453198D01*
X152451240Y-72544350D01*
X152304773Y-72690561D01*
X152222898Y-72706847D01*
X152101240Y-72788137D01*
X151734835Y-73154542D01*
X151653545Y-73276200D01*
X151632298Y-73383016D01*
X151625000Y-73419707D01*
X151625000Y-75047523D01*
X151653545Y-75191030D01*
X151734835Y-75312688D01*
X152803001Y-76380854D01*
X152761608Y-76422174D01*
X152728114Y-76502837D01*
X152706453Y-76450413D01*
X152537818Y-76281483D01*
X152317372Y-76189946D01*
X152078677Y-76189738D01*
X151858072Y-76280890D01*
X151689142Y-76449525D01*
X151597605Y-76669971D01*
X151597549Y-76734104D01*
X151557826Y-76734069D01*
X151337221Y-76825221D01*
X151168291Y-76993856D01*
X151076754Y-77214302D01*
X151076546Y-77452997D01*
X151167698Y-77673602D01*
X151199399Y-77705358D01*
X150774802Y-78129955D01*
X150693512Y-78251613D01*
X150678821Y-78325469D01*
X150664967Y-78395120D01*
X150664967Y-90750528D01*
X150562586Y-90852909D01*
X150562586Y-78286039D01*
X150534041Y-78142533D01*
X150487512Y-78072897D01*
X150487691Y-77867216D01*
X150396539Y-77646611D01*
X150227904Y-77477681D01*
X150007458Y-77386144D01*
X149768763Y-77385936D01*
X149548158Y-77477088D01*
X149379228Y-77645723D01*
X149287691Y-77866169D01*
X149287483Y-78104864D01*
X149318098Y-78178957D01*
X149302072Y-78185579D01*
X149133142Y-78354214D01*
X149097797Y-78439334D01*
X149094573Y-78437995D01*
X148855878Y-78437787D01*
X148635273Y-78528939D01*
X148470628Y-78693296D01*
X148376390Y-78654165D01*
X148137695Y-78653957D01*
X147917090Y-78745109D01*
X147880370Y-78781764D01*
X147840317Y-78741641D01*
X147619871Y-78650104D01*
X147493588Y-78649994D01*
X147553369Y-78590317D01*
X147644906Y-78369871D01*
X147645114Y-78131176D01*
X147553962Y-77910571D01*
X147385327Y-77741641D01*
X147164881Y-77650104D01*
X146926186Y-77649896D01*
X146705581Y-77741048D01*
X146571395Y-77875000D01*
X146071484Y-77875000D01*
X145927977Y-77903545D01*
X145806319Y-77984835D01*
X143801125Y-79990029D01*
X143612691Y-79989865D01*
X143392086Y-80081017D01*
X143223156Y-80249652D01*
X143186482Y-80337974D01*
X143125000Y-80276385D01*
X143125000Y-79926092D01*
X144815771Y-78235321D01*
X145004205Y-78235485D01*
X145224810Y-78144333D01*
X145393740Y-77975698D01*
X145485277Y-77755252D01*
X145485485Y-77516557D01*
X145394333Y-77295952D01*
X145225698Y-77127022D01*
X145005252Y-77035485D01*
X144766557Y-77035277D01*
X144545952Y-77126429D01*
X144377022Y-77295064D01*
X144285485Y-77515510D01*
X144285320Y-77705112D01*
X142484835Y-79505597D01*
X142403545Y-79627255D01*
X142403545Y-79627256D01*
X142375000Y-79770762D01*
X142375000Y-80276557D01*
X142241641Y-80409683D01*
X142150104Y-80630129D01*
X142149896Y-80868824D01*
X142241048Y-81089429D01*
X142409683Y-81258359D01*
X142630129Y-81349896D01*
X142868824Y-81350104D01*
X143089429Y-81258952D01*
X143258359Y-81090317D01*
X143295033Y-81001995D01*
X143391198Y-81098328D01*
X143490149Y-81139416D01*
X143472909Y-81165217D01*
X143461669Y-81221726D01*
X143444364Y-81308724D01*
X143444364Y-84790763D01*
X143311005Y-84923889D01*
X143219468Y-85144335D01*
X143219260Y-85383030D01*
X143310412Y-85603635D01*
X143479047Y-85772565D01*
X143699493Y-85864102D01*
X143938188Y-85864310D01*
X144158793Y-85773158D01*
X144327723Y-85604523D01*
X144419260Y-85384077D01*
X144419468Y-85145382D01*
X144328316Y-84924777D01*
X144194364Y-84790591D01*
X144194364Y-81464054D01*
X145783418Y-79875000D01*
X146026557Y-79875000D01*
X146159683Y-80008359D01*
X146380129Y-80099896D01*
X146618824Y-80100104D01*
X146674956Y-80076911D01*
X146674956Y-89092679D01*
X146334801Y-89432834D01*
X146253511Y-89554492D01*
X146253511Y-89554493D01*
X146224966Y-89697999D01*
X146224966Y-90224998D01*
X146253511Y-90368505D01*
X146334801Y-90490163D01*
X146525028Y-90680390D01*
X146524864Y-90868824D01*
X146616016Y-91089429D01*
X146784651Y-91258359D01*
X147005097Y-91349896D01*
X147243792Y-91350104D01*
X147274978Y-91337218D01*
X147274978Y-91524065D01*
X146103973Y-92695070D01*
X145915539Y-92694906D01*
X145694934Y-92786058D01*
X145526004Y-92954693D01*
X145434467Y-93175139D01*
X145434259Y-93413834D01*
X145525411Y-93634439D01*
X145694046Y-93803369D01*
X145914492Y-93894906D01*
X146153187Y-93895114D01*
X146373792Y-93803962D01*
X146542722Y-93635327D01*
X146634259Y-93414881D01*
X146634424Y-93225279D01*
X147171960Y-92687743D01*
X147216038Y-92794419D01*
X147384673Y-92963349D01*
X147605119Y-93054886D01*
X147843814Y-93055094D01*
X148064419Y-92963942D01*
X148233349Y-92795307D01*
X148324886Y-92574861D01*
X148325094Y-92336166D01*
X148233942Y-92115561D01*
X148202241Y-92083805D01*
X148215154Y-92070892D01*
X148296444Y-91949233D01*
X148324989Y-91805727D01*
X148324989Y-83398739D01*
X149065164Y-82658564D01*
X149146454Y-82536905D01*
X149174999Y-82393399D01*
X149174999Y-80548729D01*
X149812586Y-79911142D01*
X149812586Y-91150346D01*
X149284846Y-91678086D01*
X149203556Y-91799744D01*
X149183635Y-91899896D01*
X149175011Y-91943251D01*
X149175011Y-94008562D01*
X149173512Y-94010805D01*
X149173512Y-94010806D01*
X149144967Y-94154312D01*
X149144967Y-96519967D01*
X149173512Y-96663474D01*
X149254802Y-96785132D01*
X151018155Y-98548485D01*
X151139814Y-98629775D01*
X151283320Y-98658320D01*
X151836546Y-98658320D01*
X151969672Y-98791679D01*
X152190118Y-98883216D01*
X152428813Y-98883424D01*
X152649418Y-98792272D01*
X152818348Y-98623637D01*
X152909885Y-98403191D01*
X152910093Y-98164496D01*
X152818941Y-97943891D01*
X152650306Y-97774961D01*
X152476253Y-97702688D01*
X152476405Y-97528231D01*
X152385253Y-97307626D01*
X152216618Y-97138696D01*
X151996172Y-97047159D01*
X151806570Y-97046994D01*
X150225022Y-95465446D01*
X150225022Y-94035490D01*
X150380129Y-94099896D01*
X150618824Y-94100104D01*
X150839429Y-94008952D01*
X151008359Y-93840317D01*
X151099896Y-93619871D01*
X151100104Y-93381176D01*
X151008952Y-93160571D01*
X150912153Y-93063603D01*
X151044419Y-93008952D01*
X151213349Y-92840317D01*
X151304886Y-92619871D01*
X151305051Y-92430269D01*
X152892947Y-90842373D01*
X152974237Y-90720714D01*
X153002782Y-90577208D01*
X153002782Y-81053802D01*
X153051022Y-81073833D01*
X153050915Y-81197043D01*
X153142067Y-81417648D01*
X153310702Y-81586578D01*
X153531148Y-81678115D01*
X153769843Y-81678323D01*
X153990448Y-81587171D01*
X154074989Y-81502778D01*
X154074989Y-93394681D01*
X152069610Y-95400060D01*
X151881176Y-95399896D01*
X151660571Y-95491048D01*
X151491641Y-95659683D01*
X151400104Y-95880129D01*
X151399896Y-96118824D01*
X151491048Y-96339429D01*
X151659683Y-96508359D01*
X151880129Y-96599896D01*
X152118824Y-96600104D01*
X152339429Y-96508952D01*
X152508359Y-96340317D01*
X152599896Y-96119871D01*
X152600061Y-95930269D01*
X154715154Y-93815176D01*
X154796444Y-93693517D01*
X154824989Y-93550011D01*
X154824989Y-89757452D01*
X155749774Y-89757452D01*
X155947271Y-90235429D01*
X156312647Y-90601444D01*
X156790279Y-90799774D01*
X157307452Y-90800226D01*
X157785429Y-90602729D01*
X158151444Y-90237353D01*
X158349774Y-89759721D01*
X158350226Y-89242548D01*
X158152729Y-88764571D01*
X157787353Y-88398556D01*
X157309721Y-88200226D01*
X156792548Y-88199774D01*
X156314571Y-88397271D01*
X155948556Y-88762647D01*
X155750226Y-89240279D01*
X155749774Y-89757452D01*
X154824989Y-89757452D01*
X154824989Y-82757452D01*
X155749774Y-82757452D01*
X155947271Y-83235429D01*
X156312647Y-83601444D01*
X156790279Y-83799774D01*
X157307452Y-83800226D01*
X157785429Y-83602729D01*
X158151444Y-83237353D01*
X158349774Y-82759721D01*
X158350226Y-82242548D01*
X158152729Y-81764571D01*
X157787353Y-81398556D01*
X157309721Y-81200226D01*
X156792548Y-81199774D01*
X156314571Y-81397271D01*
X155948556Y-81762647D01*
X155750226Y-82240279D01*
X155749774Y-82757452D01*
X154824989Y-82757452D01*
X154824989Y-68726623D01*
X154800800Y-68605014D01*
X154796444Y-68583116D01*
X154715154Y-68461458D01*
X154619252Y-68365556D01*
X154497594Y-68284266D01*
X154354087Y-68255721D01*
X151204217Y-68255721D01*
X151060711Y-68284266D01*
X151049887Y-68291498D01*
X151050092Y-68056155D01*
X150958940Y-67835550D01*
X150824995Y-67701371D01*
X150824995Y-67390634D01*
X150958354Y-67257508D01*
X151049891Y-67037062D01*
X151050099Y-66798367D01*
X150958947Y-66577762D01*
X150790312Y-66408832D01*
X150569866Y-66317295D01*
X150331171Y-66317087D01*
X150110566Y-66408239D01*
X149941636Y-66576874D01*
X149882218Y-66719969D01*
X149779039Y-66616609D01*
X149558593Y-66525072D01*
X149319898Y-66524864D01*
X149290938Y-66536830D01*
X152351341Y-63476427D01*
X152437383Y-63562620D01*
X152657829Y-63654157D01*
X152896524Y-63654365D01*
X153117129Y-63563213D01*
X153286059Y-63394578D01*
X153377596Y-63174132D01*
X153377610Y-63157940D01*
X154784610Y-64564940D01*
X154906268Y-64646230D01*
X155049775Y-64674775D01*
X158949505Y-64674775D01*
X159082631Y-64808134D01*
X159303077Y-64899671D01*
X159541772Y-64899879D01*
X159762377Y-64808727D01*
X159861343Y-64709934D01*
X159909683Y-64758359D01*
X160130129Y-64849896D01*
X160368824Y-64850104D01*
X160589429Y-64758952D01*
X160758359Y-64590317D01*
X160823367Y-64433761D01*
X161598176Y-65208570D01*
X161800000Y-65510621D01*
X161800000Y-69351426D01*
X161741641Y-69409683D01*
X161650104Y-69630129D01*
X161649896Y-69868824D01*
X161741048Y-70089429D01*
X161909683Y-70258359D01*
X162130129Y-70349896D01*
X162368824Y-70350104D01*
X162589429Y-70258952D01*
X162758359Y-70090317D01*
X162849896Y-69869871D01*
X162850104Y-69631176D01*
X162758952Y-69410571D01*
X162700000Y-69351516D01*
X162700000Y-66857566D01*
X163124349Y-67492650D01*
X164543061Y-74625000D01*
X160000000Y-74625000D01*
X159856494Y-74653545D01*
X159734835Y-74734835D01*
X159653545Y-74856494D01*
X159625000Y-75000000D01*
X159625000Y-90000000D01*
X159653545Y-90143506D01*
X159734835Y-90265165D01*
X159856494Y-90346455D01*
X160000000Y-90375000D01*
X164625000Y-90375000D01*
X164625000Y-99844670D01*
X159734835Y-104734835D01*
X159653545Y-104856493D01*
X159644891Y-104900000D01*
X154355109Y-104900000D01*
X154346455Y-104856494D01*
X154265165Y-104734835D01*
X154143506Y-104653545D01*
X154000000Y-104625000D01*
X151000000Y-104625000D01*
X150856494Y-104653545D01*
X150734835Y-104734835D01*
X150653545Y-104856494D01*
X150644891Y-104900000D01*
X145355109Y-104900000D01*
X145346455Y-104856494D01*
X145265165Y-104734835D01*
X145143506Y-104653545D01*
X145000000Y-104625000D01*
X141375000Y-104625000D01*
X141375000Y-103500000D01*
X141346455Y-103356494D01*
X141265165Y-103234835D01*
X141143506Y-103153545D01*
X141000000Y-103125000D01*
X133000000Y-103125000D01*
X132856494Y-103153545D01*
X132734835Y-103234835D01*
X132653545Y-103356494D01*
X132625000Y-103500000D01*
X132625000Y-104625000D01*
X130155330Y-104625000D01*
X128557588Y-103027258D01*
X143729813Y-103027258D01*
X143774613Y-103162820D01*
X144064450Y-103294289D01*
X144382535Y-103304834D01*
X144680443Y-103192851D01*
X144725387Y-103162820D01*
X144770187Y-103027258D01*
X144250000Y-102507071D01*
X143729813Y-103027258D01*
X128557588Y-103027258D01*
X128162865Y-102632535D01*
X143445166Y-102632535D01*
X143557149Y-102930443D01*
X143587180Y-102975387D01*
X143722742Y-103020187D01*
X144242929Y-102500000D01*
X144257071Y-102500000D01*
X144777258Y-103020187D01*
X144912820Y-102975387D01*
X145000738Y-102781563D01*
X145071397Y-102952572D01*
X145296245Y-103177812D01*
X145590172Y-103299861D01*
X145908432Y-103300139D01*
X146202572Y-103178603D01*
X146427812Y-102953755D01*
X146549861Y-102659828D01*
X146549996Y-102505000D01*
X150490000Y-102505000D01*
X150490000Y-102705000D01*
X150545198Y-102972498D01*
X150698561Y-103198510D01*
X150926741Y-103348629D01*
X151075560Y-103390582D01*
X151185000Y-103324980D01*
X151185000Y-102505000D01*
X150490000Y-102505000D01*
X146549996Y-102505000D01*
X146550139Y-102341568D01*
X146530898Y-102295000D01*
X150490000Y-102295000D01*
X150490000Y-102495000D01*
X151185000Y-102495000D01*
X151185000Y-101675020D01*
X151195000Y-101675020D01*
X151195000Y-102495000D01*
X151215000Y-102495000D01*
X151215000Y-102505000D01*
X151195000Y-102505000D01*
X151195000Y-103324980D01*
X151304440Y-103390582D01*
X151453259Y-103348629D01*
X151681439Y-103198510D01*
X151819579Y-102994932D01*
X151965025Y-103212607D01*
X152192122Y-103364348D01*
X152460000Y-103417632D01*
X152727878Y-103364348D01*
X152954975Y-103212607D01*
X153095000Y-103003044D01*
X153235025Y-103212607D01*
X153462122Y-103364348D01*
X153730000Y-103417632D01*
X153997878Y-103364348D01*
X154224975Y-103212607D01*
X154365000Y-103003044D01*
X154505025Y-103212607D01*
X154732122Y-103364348D01*
X155000000Y-103417632D01*
X155267878Y-103364348D01*
X155494975Y-103212607D01*
X155635000Y-103003044D01*
X155775025Y-103212607D01*
X156002122Y-103364348D01*
X156270000Y-103417632D01*
X156537878Y-103364348D01*
X156764975Y-103212607D01*
X156905000Y-103003044D01*
X157045025Y-103212607D01*
X157272122Y-103364348D01*
X157540000Y-103417632D01*
X157807878Y-103364348D01*
X158034975Y-103212607D01*
X158175000Y-103003044D01*
X158315025Y-103212607D01*
X158542122Y-103364348D01*
X158810000Y-103417632D01*
X159077878Y-103364348D01*
X159304975Y-103212607D01*
X159456716Y-102985510D01*
X159510000Y-102717632D01*
X159510000Y-102282368D01*
X159456716Y-102014490D01*
X159304975Y-101787393D01*
X159077878Y-101635652D01*
X158810000Y-101582368D01*
X158542122Y-101635652D01*
X158315025Y-101787393D01*
X158175000Y-101996956D01*
X158034975Y-101787393D01*
X157807878Y-101635652D01*
X157540000Y-101582368D01*
X157272122Y-101635652D01*
X157045025Y-101787393D01*
X156905000Y-101996956D01*
X156764975Y-101787393D01*
X156537878Y-101635652D01*
X156270000Y-101582368D01*
X156002122Y-101635652D01*
X155775025Y-101787393D01*
X155635000Y-101996956D01*
X155494975Y-101787393D01*
X155267878Y-101635652D01*
X155000000Y-101582368D01*
X154732122Y-101635652D01*
X154505025Y-101787393D01*
X154365000Y-101996956D01*
X154224975Y-101787393D01*
X153997878Y-101635652D01*
X153730000Y-101582368D01*
X153462122Y-101635652D01*
X153235025Y-101787393D01*
X153095000Y-101996956D01*
X152954975Y-101787393D01*
X152727878Y-101635652D01*
X152460000Y-101582368D01*
X152192122Y-101635652D01*
X151965025Y-101787393D01*
X151819579Y-102005068D01*
X151681439Y-101801490D01*
X151453259Y-101651371D01*
X151304440Y-101609418D01*
X151195000Y-101675020D01*
X151185000Y-101675020D01*
X151075560Y-101609418D01*
X150926741Y-101651371D01*
X150698561Y-101801490D01*
X150545198Y-102027502D01*
X150490000Y-102295000D01*
X146530898Y-102295000D01*
X146428603Y-102047428D01*
X146203755Y-101822188D01*
X145909828Y-101700139D01*
X145591568Y-101699861D01*
X145297428Y-101821397D01*
X145072188Y-102046245D01*
X144999705Y-102220805D01*
X144942851Y-102069557D01*
X144912820Y-102024613D01*
X144777258Y-101979813D01*
X144257071Y-102500000D01*
X144242929Y-102500000D01*
X143722742Y-101979813D01*
X143587180Y-102024613D01*
X143455711Y-102314450D01*
X143445166Y-102632535D01*
X128162865Y-102632535D01*
X127428860Y-101898530D01*
X134749870Y-101898530D01*
X134863811Y-102174286D01*
X135074605Y-102385448D01*
X135350161Y-102499869D01*
X135648530Y-102500130D01*
X135924286Y-102386189D01*
X136135448Y-102175395D01*
X136249869Y-101899839D01*
X136249870Y-101898530D01*
X137749870Y-101898530D01*
X137863811Y-102174286D01*
X138074605Y-102385448D01*
X138350161Y-102499869D01*
X138648530Y-102500130D01*
X138924286Y-102386189D01*
X139135448Y-102175395D01*
X139219596Y-101972742D01*
X143729813Y-101972742D01*
X144250000Y-102492929D01*
X144770187Y-101972742D01*
X144725387Y-101837180D01*
X144435550Y-101705711D01*
X144117465Y-101695166D01*
X143819557Y-101807149D01*
X143774613Y-101837180D01*
X143729813Y-101972742D01*
X139219596Y-101972742D01*
X139249869Y-101899839D01*
X139250130Y-101601470D01*
X139136189Y-101325714D01*
X138925395Y-101114552D01*
X138649839Y-101000131D01*
X138351470Y-100999870D01*
X138075714Y-101113811D01*
X137864552Y-101324605D01*
X137750131Y-101600161D01*
X137749870Y-101898530D01*
X136249870Y-101898530D01*
X136250130Y-101601470D01*
X136136189Y-101325714D01*
X135925395Y-101114552D01*
X135649839Y-101000131D01*
X135351470Y-100999870D01*
X135075714Y-101113811D01*
X134864552Y-101324605D01*
X134750131Y-101600161D01*
X134749870Y-101898530D01*
X127428860Y-101898530D01*
X125375000Y-99844670D01*
X125375000Y-99323755D01*
X140469975Y-99323755D01*
X140561127Y-99544360D01*
X140729762Y-99713290D01*
X140850937Y-99763606D01*
X140981167Y-99893836D01*
X140981169Y-99893839D01*
X141140050Y-100000000D01*
X141159602Y-100013064D01*
X141370078Y-100054931D01*
X141370083Y-100054930D01*
X154186331Y-100054930D01*
X154396807Y-100013064D01*
X154575240Y-99893839D01*
X154944170Y-99524909D01*
X155064419Y-99475223D01*
X155233349Y-99306588D01*
X155324886Y-99086142D01*
X155325094Y-98847447D01*
X155233942Y-98626842D01*
X155065307Y-98457912D01*
X154844861Y-98366375D01*
X154606166Y-98366167D01*
X154385561Y-98457319D01*
X154216631Y-98625954D01*
X154166315Y-98747128D01*
X153958513Y-98954930D01*
X147809738Y-98954930D01*
X147942910Y-98755625D01*
X148000000Y-98468612D01*
X148000000Y-98031388D01*
X147942910Y-97744375D01*
X147780330Y-97501058D01*
X147537013Y-97338478D01*
X147250000Y-97281388D01*
X146962987Y-97338478D01*
X146719670Y-97501058D01*
X146557090Y-97744375D01*
X146500000Y-98031388D01*
X146442910Y-97744375D01*
X146280330Y-97501058D01*
X146037013Y-97338478D01*
X145750000Y-97281388D01*
X145462987Y-97338478D01*
X145219670Y-97501058D01*
X145057090Y-97744375D01*
X145000000Y-98031388D01*
X144942910Y-97744375D01*
X144780330Y-97501058D01*
X144537013Y-97338478D01*
X144250000Y-97281388D01*
X143962987Y-97338478D01*
X143719670Y-97501058D01*
X143557090Y-97744375D01*
X143500000Y-98031388D01*
X143442910Y-97744375D01*
X143280330Y-97501058D01*
X143037013Y-97338478D01*
X142750000Y-97281388D01*
X142462987Y-97338478D01*
X142219670Y-97501058D01*
X142057090Y-97744375D01*
X142000000Y-98031388D01*
X142000000Y-98468612D01*
X142057090Y-98755625D01*
X142190262Y-98954930D01*
X141615982Y-98954930D01*
X141579031Y-98865502D01*
X141410396Y-98696572D01*
X141189950Y-98605035D01*
X140951255Y-98604827D01*
X140730650Y-98695979D01*
X140561720Y-98864614D01*
X140470183Y-99085060D01*
X140469975Y-99323755D01*
X125375000Y-99323755D01*
X125375000Y-93545238D01*
X126050000Y-93545238D01*
X126050000Y-97954762D01*
X128350000Y-97954762D01*
X128350000Y-93545238D01*
X126050000Y-93545238D01*
X125375000Y-93545238D01*
X125375000Y-90375000D01*
X130000000Y-90375000D01*
X130143506Y-90346455D01*
X130265165Y-90265165D01*
X130346455Y-90143506D01*
X130375000Y-90000000D01*
X130375000Y-89757452D01*
X131649774Y-89757452D01*
X131847271Y-90235429D01*
X132212647Y-90601444D01*
X132690279Y-90799774D01*
X133207452Y-90800226D01*
X133685429Y-90602729D01*
X134051444Y-90237353D01*
X134249774Y-89759721D01*
X134250226Y-89242548D01*
X134052729Y-88764571D01*
X133687353Y-88398556D01*
X133209721Y-88200226D01*
X132692548Y-88199774D01*
X132214571Y-88397271D01*
X131848556Y-88762647D01*
X131650226Y-89240279D01*
X131649774Y-89757452D01*
X130375000Y-89757452D01*
X130375000Y-82757452D01*
X131649774Y-82757452D01*
X131847271Y-83235429D01*
X132212647Y-83601444D01*
X132690279Y-83799774D01*
X133207452Y-83800226D01*
X133685429Y-83602729D01*
X134051444Y-83237353D01*
X134249774Y-82759721D01*
X134250226Y-82242548D01*
X134052729Y-81764571D01*
X133687353Y-81398556D01*
X133209721Y-81200226D01*
X132692548Y-81199774D01*
X132214571Y-81397271D01*
X131848556Y-81762647D01*
X131650226Y-82240279D01*
X131649774Y-82757452D01*
X130375000Y-82757452D01*
X130375000Y-75000000D01*
X130346455Y-74856494D01*
X130265165Y-74734835D01*
X130143506Y-74653545D01*
X130000000Y-74625000D01*
X125456938Y-74625000D01*
X126875651Y-67492650D01*
X131128224Y-61128224D01*
X131420002Y-60933264D01*
X131420002Y-62244123D01*
X131000000Y-62244123D01*
X130888827Y-62265042D01*
X130786721Y-62330745D01*
X130718222Y-62430997D01*
X130694123Y-62550000D01*
X130694123Y-63025547D01*
X130569610Y-63150060D01*
X130381176Y-63149896D01*
X130160571Y-63241048D01*
X129991641Y-63409683D01*
X129900104Y-63630129D01*
X129899896Y-63868824D01*
X129991048Y-64089429D01*
X130159683Y-64258359D01*
X130380129Y-64349896D01*
X130618824Y-64350104D01*
X130839429Y-64258952D01*
X131008359Y-64090317D01*
X131099896Y-63869871D01*
X131099995Y-63755877D01*
X131420002Y-63755877D01*
X131420002Y-64700542D01*
X131454256Y-64872750D01*
X131529497Y-64985355D01*
X131551804Y-65018740D01*
X134620079Y-68087015D01*
X134620007Y-68169475D01*
X134711159Y-68390080D01*
X134879794Y-68559010D01*
X135100240Y-68650547D01*
X135338935Y-68650755D01*
X135559540Y-68559603D01*
X135728470Y-68390968D01*
X135820007Y-68170522D01*
X135820215Y-67931827D01*
X135729063Y-67711222D01*
X135560428Y-67542292D01*
X135339982Y-67450755D01*
X135256538Y-67450682D01*
X132320002Y-64514146D01*
X132320002Y-63690102D01*
X132380997Y-63731778D01*
X132500000Y-63755877D01*
X133000000Y-63755877D01*
X133111173Y-63734958D01*
X133213279Y-63669255D01*
X133281778Y-63569003D01*
X133305877Y-63450000D01*
X133305877Y-63375000D01*
X134094670Y-63375000D01*
X134400060Y-63680390D01*
X134399896Y-63868824D01*
X134491048Y-64089429D01*
X134659683Y-64258359D01*
X134880129Y-64349896D01*
X135051215Y-64350045D01*
X135048521Y-64356532D01*
X135048313Y-64595227D01*
X135139465Y-64815832D01*
X135308100Y-64984762D01*
X135528546Y-65076299D01*
X135767241Y-65076507D01*
X135987846Y-64985355D01*
X136122032Y-64851403D01*
X137380112Y-64851403D01*
X141509069Y-68980360D01*
X141508905Y-69168794D01*
X141560761Y-69294296D01*
X141355959Y-69378918D01*
X141187029Y-69547553D01*
X141095492Y-69767999D01*
X141095284Y-70006694D01*
X141186436Y-70227299D01*
X141355071Y-70396229D01*
X141575517Y-70487766D01*
X141814212Y-70487974D01*
X142034817Y-70396822D01*
X142203747Y-70228187D01*
X142295284Y-70007741D01*
X142295323Y-69962871D01*
X142313587Y-69962871D01*
X142457094Y-69934326D01*
X142578752Y-69853036D01*
X143215154Y-69216634D01*
X143296444Y-69094976D01*
X143324989Y-68951469D01*
X143324989Y-63448169D01*
X143314329Y-63394578D01*
X143296444Y-63304662D01*
X143215154Y-63183004D01*
X140865632Y-60833482D01*
X140896647Y-60802521D01*
X140988184Y-60582075D01*
X140988392Y-60343380D01*
X140897240Y-60122775D01*
X140728605Y-59953845D01*
X140508159Y-59862308D01*
X140269464Y-59862100D01*
X140048859Y-59953252D01*
X139879929Y-60121887D01*
X139788392Y-60342333D01*
X139788184Y-60581028D01*
X139879336Y-60801633D01*
X140025547Y-60948100D01*
X140041833Y-61029975D01*
X140123123Y-61151633D01*
X142574989Y-63603499D01*
X142574989Y-68667494D01*
X142449326Y-68541611D01*
X142228880Y-68450074D01*
X142039278Y-68449909D01*
X137800607Y-64211238D01*
X137678949Y-64129948D01*
X137535442Y-64101403D01*
X136121860Y-64101403D01*
X135988734Y-63968044D01*
X135768288Y-63876507D01*
X135597202Y-63876358D01*
X135599896Y-63869871D01*
X135600104Y-63631176D01*
X135508952Y-63410571D01*
X135340317Y-63241641D01*
X135119871Y-63150104D01*
X134930269Y-63149939D01*
X134515165Y-62734835D01*
X134393507Y-62653545D01*
X134250000Y-62625000D01*
X133305877Y-62625000D01*
X133305877Y-62550000D01*
X133284958Y-62438827D01*
X133219255Y-62336721D01*
X133119003Y-62268222D01*
X133000000Y-62244123D01*
X132500000Y-62244123D01*
X132388827Y-62265042D01*
X132320002Y-62309329D01*
X132320002Y-61066394D01*
X134533514Y-58852882D01*
X135175384Y-58423998D01*
X137000000Y-58423998D01*
X137172208Y-58389744D01*
X137318198Y-58292196D01*
X137694123Y-57916271D01*
X137694123Y-58450000D01*
X137715042Y-58561173D01*
X137780745Y-58663279D01*
X137875000Y-58727680D01*
X137875000Y-59594670D01*
X135819610Y-61650060D01*
X135631176Y-61649896D01*
X135410571Y-61741048D01*
X135241641Y-61909683D01*
X135150104Y-62130129D01*
X135149896Y-62368824D01*
X135241048Y-62589429D01*
X135409683Y-62758359D01*
X135630129Y-62849896D01*
X135868824Y-62850104D01*
X136089429Y-62758952D01*
X136258359Y-62590317D01*
X136349896Y-62369871D01*
X136350061Y-62180269D01*
X138515165Y-60015165D01*
X138596455Y-59893507D01*
X138625000Y-59750000D01*
X138625000Y-58726061D01*
X138713279Y-58669255D01*
X138781778Y-58569003D01*
X138805877Y-58450000D01*
X138805877Y-57550000D01*
X139194123Y-57550000D01*
X139194123Y-58450000D01*
X139215042Y-58561173D01*
X139280745Y-58663279D01*
X139380997Y-58731778D01*
X139500000Y-58755877D01*
X140000000Y-58755877D01*
X140111173Y-58734958D01*
X140213279Y-58669255D01*
X140256942Y-58605351D01*
X140409683Y-58758359D01*
X140630129Y-58849896D01*
X140868824Y-58850104D01*
X141089429Y-58758952D01*
X141258359Y-58590317D01*
X141349896Y-58369871D01*
X141350104Y-58131176D01*
X141258952Y-57910571D01*
X141090317Y-57741641D01*
X140869871Y-57650104D01*
X140631176Y-57649896D01*
X140629222Y-57650704D01*
X140500000Y-57625000D01*
X140305877Y-57625000D01*
X140305877Y-57550000D01*
X149694123Y-57550000D01*
X149694123Y-58450000D01*
X149715042Y-58561173D01*
X149780745Y-58663279D01*
X149875000Y-58727680D01*
X149875000Y-59750000D01*
X149903545Y-59893507D01*
X149984835Y-60015165D01*
X150650060Y-60680390D01*
X150649896Y-60868824D01*
X150741048Y-61089429D01*
X150909683Y-61258359D01*
X151130129Y-61349896D01*
X151368824Y-61350104D01*
X151589429Y-61258952D01*
X151758359Y-61090317D01*
X151849896Y-60869871D01*
X151850104Y-60631176D01*
X151758952Y-60410571D01*
X151590317Y-60241641D01*
X151369871Y-60150104D01*
X151180269Y-60149939D01*
X150625000Y-59594670D01*
X150625000Y-58726061D01*
X150713279Y-58669255D01*
X150781778Y-58569003D01*
X150805877Y-58450000D01*
X150805877Y-57550000D01*
X150784958Y-57438827D01*
X150719255Y-57336721D01*
X150619003Y-57268222D01*
X150500000Y-57244123D01*
X150000000Y-57244123D01*
X149888827Y-57265042D01*
X149786721Y-57330745D01*
X149718222Y-57430997D01*
X149694123Y-57550000D01*
X140305877Y-57550000D01*
X140284958Y-57438827D01*
X140219255Y-57336721D01*
X140119003Y-57268222D01*
X140000000Y-57244123D01*
X139500000Y-57244123D01*
X139388827Y-57265042D01*
X139286721Y-57330745D01*
X139218222Y-57430997D01*
X139194123Y-57550000D01*
X138805877Y-57550000D01*
X138784958Y-57438827D01*
X138719255Y-57336721D01*
X138619003Y-57268222D01*
X138500000Y-57244123D01*
X138366271Y-57244123D01*
X138410394Y-57200000D01*
X151563604Y-57200000D01*
X151607727Y-57244123D01*
G36*
X152761015Y-77101920D02*
X152894967Y-77236106D01*
X152894967Y-77967015D01*
X152572501Y-78289481D01*
X152572501Y-77607038D01*
X152576651Y-77586174D01*
X152576651Y-77259142D01*
X152705860Y-77130159D01*
X152739354Y-77049496D01*
X152761015Y-77101920D01*
X152761015Y-77101920D01*
G37*
X152761015Y-77101920D02*
X152894967Y-77236106D01*
X152894967Y-77967015D01*
X152572501Y-78289481D01*
X152572501Y-77607038D01*
X152576651Y-77586174D01*
X152576651Y-77259142D01*
X152705860Y-77130159D01*
X152739354Y-77049496D01*
X152761015Y-77101920D01*
G36*
X148838826Y-67005097D02*
X148838618Y-67243792D01*
X148929770Y-67464397D01*
X149098405Y-67633327D01*
X149296532Y-67715596D01*
X149177258Y-67834662D01*
X149085721Y-68055108D01*
X149085513Y-68293803D01*
X149134765Y-68413001D01*
X148549999Y-68413001D01*
X148406493Y-68441546D01*
X148336857Y-68488075D01*
X148131176Y-68487896D01*
X147910571Y-68579048D01*
X147741641Y-68747683D01*
X147650104Y-68968129D01*
X147649896Y-69206824D01*
X147741048Y-69427429D01*
X147807901Y-69494399D01*
X147218127Y-69494399D01*
X147008562Y-69284834D01*
X146886904Y-69203544D01*
X146743397Y-69174999D01*
X146652769Y-69174999D01*
X148850298Y-66977470D01*
X148838826Y-67005097D01*
X148838826Y-67005097D01*
G37*
X148838826Y-67005097D02*
X148838618Y-67243792D01*
X148929770Y-67464397D01*
X149098405Y-67633327D01*
X149296532Y-67715596D01*
X149177258Y-67834662D01*
X149085721Y-68055108D01*
X149085513Y-68293803D01*
X149134765Y-68413001D01*
X148549999Y-68413001D01*
X148406493Y-68441546D01*
X148336857Y-68488075D01*
X148131176Y-68487896D01*
X147910571Y-68579048D01*
X147741641Y-68747683D01*
X147650104Y-68968129D01*
X147649896Y-69206824D01*
X147741048Y-69427429D01*
X147807901Y-69494399D01*
X147218127Y-69494399D01*
X147008562Y-69284834D01*
X146886904Y-69203544D01*
X146743397Y-69174999D01*
X146652769Y-69174999D01*
X148850298Y-66977470D01*
X148838826Y-67005097D01*
G36*
X151791675Y-69059849D02*
X151657489Y-69193801D01*
X151575670Y-69193801D01*
X151432164Y-69222346D01*
X151310505Y-69303636D01*
X151119742Y-69494399D01*
X148692161Y-69494399D01*
X148758359Y-69428317D01*
X148849896Y-69207871D01*
X148849935Y-69163001D01*
X151046937Y-69163001D01*
X151190444Y-69134456D01*
X151312102Y-69053166D01*
X151359547Y-69005721D01*
X151922675Y-69005721D01*
X151791675Y-69059849D01*
X151791675Y-69059849D01*
G37*
X151791675Y-69059849D02*
X151657489Y-69193801D01*
X151575670Y-69193801D01*
X151432164Y-69222346D01*
X151310505Y-69303636D01*
X151119742Y-69494399D01*
X148692161Y-69494399D01*
X148758359Y-69428317D01*
X148849896Y-69207871D01*
X148849935Y-69163001D01*
X151046937Y-69163001D01*
X151190444Y-69134456D01*
X151312102Y-69053166D01*
X151359547Y-69005721D01*
X151922675Y-69005721D01*
X151791675Y-69059849D01*
M02*
