G04 #@! TF.FileFunction,Profile,NP*
%FSLAX46Y46*%
G04 Gerber Fmt 4.6, Leading zero omitted, Abs format (unit mm)*
G04 Created by KiCad (PCBNEW 4.0.7) date 10/02/18 15:19:20*
%MOMM*%
%LPD*%
G01*
G04 APERTURE LIST*
%ADD10C,0.100000*%
%ADD11C,0.150000*%
G04 APERTURE END LIST*
D10*
D11*
X145000000Y-105000000D02*
X141000000Y-105000000D01*
X145000000Y-107000000D02*
X145000000Y-105000000D01*
X151000000Y-105000000D02*
X151000000Y-107000000D01*
X154000000Y-105000000D02*
X151000000Y-105000000D01*
X154000000Y-107000000D02*
X154000000Y-105000000D01*
X160000000Y-105000000D02*
X160000000Y-107000000D01*
X141000000Y-103500000D02*
X141000000Y-105000000D01*
X133000000Y-103500000D02*
X141000000Y-103500000D01*
X133000000Y-105000000D02*
X133000000Y-103500000D01*
X130000000Y-105000000D02*
X133000000Y-105000000D01*
X145000000Y-107000000D02*
X145000000Y-115000000D01*
X151000000Y-115000000D02*
X151000000Y-107000000D01*
X154000000Y-107000000D02*
X154000000Y-115000000D01*
X160000000Y-115000000D02*
X160000000Y-107000000D01*
X145000000Y-115000000D02*
X151000000Y-115000000D01*
X154000000Y-115000000D02*
X160000000Y-115000000D01*
X165000000Y-100000000D02*
X165000000Y-90000000D01*
X160000000Y-105000000D02*
X165000000Y-100000000D01*
X125000000Y-100000000D02*
X130000000Y-105000000D01*
X125000000Y-90000000D02*
X125000000Y-100000000D01*
X145000000Y-55000000D02*
G75*
G03X125000000Y-75000000I0J-20000000D01*
G01*
X165000000Y-75000000D02*
G75*
G03X145000000Y-55000000I-20000000J0D01*
G01*
X130000000Y-90000000D02*
X125000000Y-90000000D01*
X130000000Y-75000000D02*
X130000000Y-90000000D01*
X125000000Y-75000000D02*
X130000000Y-75000000D01*
X160000000Y-90000000D02*
X165000000Y-90000000D01*
X160000000Y-75000000D02*
X160000000Y-90000000D01*
X165000000Y-75000000D02*
X160000000Y-75000000D01*
M02*
